<svg width="28" height="29" viewBox="0 0 28 29" fill="none" xmlns="http://www.w3.org/2000/svg">
<g clip-path="url(#clip0_195_257)">
<path d="M25.4239 22.0656C25.0156 23.0167 24.5113 23.9236 23.9189 24.7723C23.1268 25.901 22.4787 26.6821 21.9793 27.1161C21.2053 27.8278 20.3752 28.193 19.4868 28.2134C18.8492 28.2134 18.0803 28.032 17.1849 27.6639C16.2866 27.2975 15.4612 27.1155 14.7063 27.1155C13.9148 27.1155 13.066 27.2975 12.1578 27.6639C11.2483 28.032 10.5157 28.2239 9.95567 28.2425C9.104 28.2793 8.25467 27.9042 7.4065 27.1161C6.86575 26.6436 6.18967 25.8351 5.37884 24.6895C4.50909 23.4656 3.79392 22.047 3.23392 20.4288C2.63425 18.6817 2.33325 16.9895 2.33325 15.3515C2.33325 13.4749 2.73867 11.8567 3.55067 10.5005C4.18942 9.41079 5.03817 8.55212 6.101 7.92096C7.1437 7.29699 8.33344 6.9612 9.5485 6.94796C10.2252 6.94796 11.1124 7.15737 12.2155 7.56862C13.3151 7.98104 14.0209 8.19046 14.3307 8.19046C14.5617 8.19046 15.3463 7.94546 16.6757 7.45779C17.9333 7.00512 18.9944 6.81787 19.8636 6.89196C22.2197 7.08212 23.9895 8.01079 25.1661 9.68379C23.0597 10.9601 22.0173 12.748 22.0383 15.0417C22.0569 16.8285 22.705 18.3154 23.979 19.4955C24.5565 20.0438 25.2011 20.4673 25.918 20.7677C25.7677 21.2057 25.6029 21.6386 25.4239 22.0656ZM20.0211 0.805456C20.0211 2.20546 19.5095 3.51329 18.4898 4.72312C17.259 6.16221 15.7709 6.99346 14.1568 6.86221C14.1351 6.68609 14.1242 6.50882 14.1242 6.33137C14.1242 4.98737 14.7093 3.54887 15.7488 2.37229C16.2679 1.77671 16.9271 1.28146 17.7274 0.88654C18.5266 0.497456 19.2814 0.282206 19.9919 0.244873C20.0123 0.432123 20.0211 0.619373 20.0211 0.804873V0.805456Z" fill="white"/>
</g>
<defs>
<clipPath id="clip0_195_257">
<rect width="28" height="28" fill="white" transform="translate(0 0.244873)"/>
</clipPath>
</defs>
</svg>
