<svg width="20" height="16" viewBox="0 0 20 16" fill="none" xmlns="http://www.w3.org/2000/svg">
<path d="M17 0.419922C17.7652 0.419881 18.5015 0.701648 19.0583 1.20757C19.615 1.7135 19.9501 2.40534 19.995 3.14153L20 3.31115V5.06227C19.9977 5.32257 19.925 5.57777 19.7888 5.8026C19.6527 6.02743 19.458 6.21408 19.224 6.34405L19.117 6.39995C18.7935 6.55299 18.5189 6.78745 18.3222 7.07852C18.1256 7.36959 18.0142 7.70647 17.9998 8.05353C17.9855 8.40059 18.0687 8.74494 18.2407 9.05017C18.4127 9.35539 18.6671 9.61015 18.977 9.78751L19.117 9.85979C19.55 10.066 19.937 10.492 19.993 11.0548L20 11.1975V12.9486C20 13.6861 19.7077 14.3957 19.1827 14.9322C18.6578 15.4688 17.9399 15.7917 17.176 15.835L17 15.8398H3C2.23479 15.8399 1.49849 15.5581 0.941739 15.0522C0.384993 14.5462 0.0498925 13.8544 0.00500012 13.1182L4.66045e-09 12.9486V11.1975C4.66045e-09 10.6134 0.352 10.1585 0.776 9.91568L0.883 9.85979C1.20653 9.70674 1.48114 9.47229 1.67779 9.18122C1.87445 8.89014 1.98583 8.55327 2.00017 8.2062C2.01452 7.85914 1.93129 7.5148 1.75928 7.20957C1.58727 6.90435 1.33288 6.64959 1.023 6.47223L0.883 6.39995C0.45 6.19371 0.063 5.76773 0.00699997 5.20491L4.66045e-09 5.06324V3.31115C-4.26217e-05 2.57369 0.292325 1.86408 0.817284 1.32752C1.34224 0.790956 2.06011 0.468005 2.824 0.424741L3 0.419922H17ZM8 5.23864C7.73478 5.23864 7.48043 5.34018 7.29289 5.52091C7.10536 5.70165 7 5.94678 7 6.20238V10.0574C7 10.313 7.10536 10.5581 7.29289 10.7388C7.48043 10.9196 7.73478 11.0211 8 11.0211C8.26522 11.0211 8.51957 10.9196 8.70711 10.7388C8.89464 10.5581 9 10.313 9 10.0574V6.20238C9 5.94678 8.89464 5.70165 8.70711 5.52091C8.51957 5.34018 8.26522 5.23864 8 5.23864Z" fill="#F5F7F5"/>
</svg>
