<svg width="25" height="25" viewBox="0 0 25 25" fill="none" xmlns="http://www.w3.org/2000/svg">
<path d="M25 12.4851C25 12.2086 24.859 11.9655 24.6444 11.8131L24.6489 11.8056L21.6261 10.1237L23.3661 7.21931L23.3602 7.21588C23.4152 7.09618 23.4401 6.96568 23.433 6.83496C23.4258 6.70425 23.3868 6.577 23.3191 6.46353C23.2508 6.35017 23.1558 6.25391 23.0418 6.18258C22.9277 6.11125 22.7978 6.06685 22.6626 6.05299V6.04486H19.1717V2.69023H19.1646C19.15 2.56008 19.1039 2.43506 19.0299 2.3253C18.9559 2.21554 18.8561 2.12413 18.7386 2.05848C18.6207 1.99302 18.4884 1.95535 18.3525 1.94857C18.2166 1.94178 18.0809 1.96606 17.9566 2.01942L17.9524 2.01224L14.8788 3.72252L13.1767 0.881216L13.1706 0.884653C13.0905 0.778965 12.9856 0.692947 12.8646 0.633564C12.7436 0.574182 12.6097 0.543104 12.4739 0.542847C12.187 0.542847 11.9344 0.678757 11.7766 0.88559L11.7688 0.881216L10.0386 3.76938L7.05926 2.11159L7.0557 2.11753C6.93149 2.06456 6.79608 2.04055 6.66045 2.04745C6.52482 2.05434 6.39278 2.09195 6.27504 2.15721C6.15734 2.2229 6.05739 2.31444 5.98331 2.42437C5.90923 2.53431 5.86312 2.65955 5.84873 2.78989H5.83998V6.12485H2.39966V6.13141C2.26462 6.14541 2.1349 6.18987 2.02101 6.2612C1.90712 6.33253 1.81227 6.42871 1.74415 6.54195C1.6764 6.65553 1.6374 6.7829 1.6303 6.91373C1.6232 7.04456 1.64821 7.17516 1.7033 7.29492L1.69584 7.2993L3.39655 10.1384L0.351099 11.8331L0.354665 11.839C0.245001 11.9162 0.155747 12.0173 0.0941307 12.1339C0.0325143 12.2506 0.000266916 12.3795 0 12.5104C0 12.7869 0.141023 13.0303 0.355638 13.1825L0.351099 13.19L3.37386 14.8718L1.63392 17.7763L1.63976 17.7794C1.5848 17.8991 1.55989 18.0296 1.56704 18.1603C1.57419 18.291 1.61321 18.4183 1.68093 18.5317C1.74915 18.6451 1.84415 18.7413 1.95822 18.8127C2.07229 18.884 2.2022 18.9284 2.33742 18.9423V18.9507H5.82798V22.305H5.83512C5.86494 22.56 6.0131 22.7987 6.2611 22.9368C6.37904 23.0022 6.51134 23.0398 6.64722 23.0466C6.78311 23.0534 6.91873 23.0291 7.04305 22.9758L7.04727 22.983L10.1209 21.2727L11.8229 24.114L11.8291 24.1106C11.9092 24.2163 12.014 24.3023 12.1351 24.3617C12.2561 24.4211 12.39 24.4522 12.5258 24.4524C12.8127 24.4524 13.0652 24.3165 13.2231 24.11L13.2306 24.114L14.9608 21.2259L17.9404 22.8837L17.944 22.8777C18.0682 22.9307 18.2036 22.9547 18.3392 22.9478C18.4749 22.9409 18.6069 22.9033 18.7246 22.838C18.8424 22.7724 18.9424 22.6809 19.0164 22.5709C19.0905 22.461 19.1366 22.3357 19.1509 22.2054H19.1597V18.8707H22.6003V18.8642C22.7354 18.8502 22.8651 18.8057 22.979 18.7344C23.0929 18.663 23.1877 18.5669 23.2559 18.4536C23.3236 18.34 23.3626 18.2127 23.3697 18.0818C23.3768 17.951 23.3518 17.8204 23.2967 17.7006L23.3042 17.6966L21.6035 14.8575L24.6489 13.1628L24.6453 13.1569C24.755 13.0796 24.8443 12.9785 24.9059 12.8618C24.9675 12.7451 24.9997 12.6161 25 12.4851ZM8.45944 17.2457C7.7365 17.6482 7.08098 17.7031 6.5237 17.5588L6.60183 16.7162C7.02392 16.8339 7.56954 16.8333 8.085 16.5462C8.52817 16.2997 8.62251 15.9947 8.4964 15.7845C8.12066 15.1577 6.22966 16.7936 5.41691 15.4373C5.05771 14.8375 5.29793 14.0404 6.17876 13.5505C6.773 13.2197 7.37016 13.1184 7.93782 13.2419L7.83765 14.0614C7.37308 13.9601 6.8949 14.0601 6.51365 14.272C6.17714 14.4594 6.07048 14.7059 6.20016 14.9225C6.54023 15.4898 8.45815 13.9114 9.26409 15.2564C9.65928 15.9154 9.46379 16.6874 8.45944 17.2457ZM12.9796 14.6444L12.3786 14.1648L10.7748 15.0571L10.9048 15.7988L10.0019 16.3009L9.28386 11.8946L10.282 11.3394L13.8825 14.1423L12.9796 14.6444ZM14.1963 13.9676L12.0369 10.3627L12.8389 9.91627L14.5938 12.8454L16.1752 11.9655L16.5801 12.6413L14.1963 13.9676ZM17.1179 12.342L14.9585 8.73745L17.6052 7.26431L18.0098 7.93979L16.1596 8.96959L16.6129 9.72631L18.4238 8.71839L18.8284 9.39388L17.0174 10.4015L17.5096 11.2232L19.36 10.1934L19.765 10.8689L17.1179 12.342Z" fill="#F5F7F5"/>
</svg>
