<svg width="18" height="18" viewBox="0 0 18 18" fill="none" xmlns="http://www.w3.org/2000/svg">
<path d="M17.9643 11.4837C17.3941 13.3455 16.2514 14.9799 14.6987 16.1545C13.3355 17.1807 11.7134 17.8066 10.0143 17.9619C8.31525 18.1172 6.60653 17.7958 5.07996 17.0337C3.55339 16.2716 2.26939 15.099 1.37207 13.6476C0.474747 12.1962 -0.000370905 10.5233 4.22866e-05 8.81678C-0.00602684 6.82491 0.641356 4.88605 1.84289 3.29759C3.01722 1.74458 4.65133 0.601593 6.51269 0.0312727C6.63537 -0.00651038 6.76602 -0.0101284 6.8906 0.0208078C7.01518 0.051744 7.12898 0.116064 7.21974 0.20685C7.31051 0.297636 7.37481 0.411454 7.40574 0.536062C7.43667 0.660671 7.43306 0.791355 7.39528 0.914061C6.98827 2.26069 6.95414 3.69254 7.29654 5.05704C7.63894 6.42154 8.34503 7.66756 9.33959 8.66234C10.3341 9.65711 11.5799 10.3634 12.9441 10.7058C14.3083 11.0483 15.7398 11.0142 17.0861 10.6071C17.2088 10.5693 17.3395 10.5657 17.4641 10.5966C17.5886 10.6275 17.7024 10.6919 17.7932 10.7826C17.884 10.8734 17.9483 10.9873 17.9792 11.1119C18.0101 11.2365 18.0065 11.3672 17.9687 11.4899L17.9643 11.4837Z" fill="#B8B8B8"/>
</svg>
