<svg width="17" height="19" viewBox="0 0 17 19" fill="none" xmlns="http://www.w3.org/2000/svg">
<path d="M13.5 5.66234C13.5 7.10795 13 9.03544 10.6 9.80643C11.3 8.16807 11.4 6.52971 10.9 4.98772C10.2 2.96386 7.9 1.42187 6.3 0.554497C5.9 0.265374 5.2 0.650871 5.3 1.22912C5.3 2.28923 5 3.83122 3.3 5.46959C1.1 7.58982 0 9.80643 0 11.9267C0 14.7215 2 18.191 6 18.191C2 14.336 5 10.9629 5 10.9629C5.8 16.649 10 18.191 12 18.191C13.7 18.191 17 17.0345 17 12.023C17 9.03544 15.7 6.72245 14.6 5.37321C14.3 4.89134 13.6 5.18046 13.5 5.66234Z" fill="#F5F7F5"/>
</svg>
