<svg width="30" height="30" viewBox="0 0 30 30" fill="none" xmlns="http://www.w3.org/2000/svg">
<g clip-path="url(#clip0_870_25486)">
<path d="M21.4973 15.1096C21.444 15.0935 21.3871 15.0935 21.3338 15.1096H17.5184C17.3222 15.1096 17.344 15.1097 17.344 14.9342V12.2238C17.3422 11.9288 17.3901 11.6358 17.4857 11.357C17.5774 11.0542 17.7418 10.7787 17.9642 10.5548C18.1866 10.3309 18.4602 10.1655 18.7611 10.0731C19.0794 9.97743 19.41 9.92936 19.7422 9.93045H21.6063C21.6168 9.93242 21.6275 9.93174 21.6377 9.92858C21.6478 9.92541 21.6571 9.9198 21.6646 9.91224C21.6721 9.90467 21.6777 9.8954 21.6808 9.88518C21.6839 9.87496 21.6846 9.86422 21.6827 9.8537C21.6827 9.8537 21.6827 9.85363 21.6827 9.77682V6.37523C21.6771 6.34624 21.6771 6.31649 21.6827 6.2875C21.6827 6.22166 21.6826 6.19963 21.5954 6.19963L20.647 6.06796C20.1892 6.06796 19.7313 5.96922 19.2735 5.94727C18.8486 5.92534 18.4229 5.92534 17.9981 5.94727C17.0314 5.96658 16.0828 6.21471 15.2291 6.67152C14.2137 7.23907 13.4385 8.15972 13.0489 9.26112C12.8166 9.91052 12.6807 10.5908 12.6456 11.2801C12.6456 11.8507 12.6456 12.3774 12.6456 12.97C12.6456 13.5625 12.6456 14.2976 12.6456 14.967V15.0658C12.6456 15.0658 12.6455 15.1316 12.5692 15.1316H8.99369C8.81928 15.1316 8.84106 15.1316 8.84106 15.2962V19.3342C8.84106 19.5207 8.84108 19.4988 8.99369 19.4988H12.4821C12.6565 19.4988 12.6456 19.4988 12.6456 19.6525V29.8244C12.6622 29.8742 12.6622 29.9282 12.6456 29.978C8.92284 29.3791 5.56105 27.3901 3.2302 24.4076C0.899347 21.425 -0.229388 17.6678 0.0690333 13.885C0.367454 10.1021 2.07109 6.5714 4.84035 3.99647C7.60962 1.42154 11.2412 -0.00854492 15.0112 -0.00854492C18.7811 -0.00854492 22.4126 1.42154 25.1819 3.99647C27.9512 6.5714 29.6548 10.1021 29.9532 13.885C30.2516 17.6678 29.1229 21.425 26.7921 24.4076C24.4612 27.3901 21.0994 29.3791 17.3767 29.978C17.3601 29.9282 17.3601 29.8742 17.3767 29.8244V19.5757C17.3767 19.4331 17.3767 19.444 17.5184 19.444H20.7015C20.8651 19.444 20.865 19.444 20.8868 19.2794L21.2466 16.9641C21.3338 16.3497 21.4319 15.7351 21.5191 15.1206L21.4973 15.1096Z" fill="#1877F2"/>
</g>
<defs>
<clipPath id="clip0_870_25486">
<rect width="30" height="30" fill="white"/>
</clipPath>
</defs>
</svg>
