<svg width="518" height="463" viewBox="0 0 518 463" fill="none" xmlns="http://www.w3.org/2000/svg">
<path d="M500.551 244.935C503.145 210.426 495.102 174.49 484.334 142.446C468.377 94.8344 437.371 45.9253 385.218 34.6385C355.12 28.1519 324.503 35.1575 298.816 51.374C274.037 67.0717 254.707 87.31 224.22 91.2019C193.344 95.2237 161.689 93.5371 130.683 93.5371C51.0272 93.5371 -13.7094 177.215 2.50717 264.525C18.7237 351.705 94.8768 412.16 159.613 412.16C217.734 412.16 265.605 377.262 320.741 367.922C348.115 363.251 375.618 368.83 402.732 361.824C434.257 353.781 463.836 334.451 481.22 306.558C493.156 287.487 498.994 266.471 500.551 244.935Z" fill="#C6FF00"/>
<path opacity="0.7" d="M500.551 244.935C503.145 210.426 495.102 174.49 484.334 142.446C468.377 94.8344 437.371 45.9253 385.218 34.6385C355.12 28.1519 324.503 35.1575 298.816 51.374C274.037 67.0717 254.707 87.31 224.22 91.2019C193.344 95.2237 161.689 93.5371 130.683 93.5371C51.0272 93.5371 -13.7094 177.215 2.50717 264.525C18.7237 351.705 94.8768 412.16 159.613 412.16C217.734 412.16 265.605 377.262 320.741 367.922C348.115 363.251 375.618 368.83 402.732 361.824C434.257 353.781 463.836 334.451 481.22 306.558C493.156 287.487 498.994 266.471 500.551 244.935Z" fill="#F5F7F5"/>
<path d="M491.21 232.74C491.21 232.74 491.21 226.254 482.128 217.302C473.047 208.221 467.339 203.161 467.339 203.161C467.339 203.161 462.798 217.951 471.231 227.032C479.664 236.113 491.21 244.416 491.21 244.416V232.74Z" fill="#326039"/>
<path d="M478.107 273.087C478.107 273.087 478.107 266.6 469.026 257.649C459.945 248.567 454.236 243.508 454.236 243.508C454.236 243.508 449.696 258.297 458.128 267.379C466.561 276.46 478.107 284.763 478.107 284.763V273.087Z" fill="#326039"/>
<path d="M490.691 243.767C490.691 243.767 491.34 237.411 501.329 229.367C511.318 221.324 517.545 216.783 517.545 216.783C517.545 216.783 520.529 231.962 511.189 240.135C501.848 248.178 489.394 255.314 489.394 255.314L490.691 243.767Z" fill="#326039"/>
<path d="M474.863 291.379C474.863 291.379 476.161 285.022 486.929 278.147C497.696 271.271 504.442 267.379 504.442 267.379C504.442 267.379 505.74 282.817 495.621 289.952C485.501 297.088 472.398 302.796 472.398 302.796L474.863 291.379Z" fill="#326039"/>
<path d="M477.848 343.272C477.848 343.272 477.848 336.786 486.929 327.834C496.01 318.753 501.718 313.693 501.718 313.693C501.718 313.693 506.259 328.483 497.826 337.564C489.394 346.645 477.848 354.948 477.848 354.948V343.272Z" fill="#326039"/>
<path d="M477.718 355.856C477.718 355.856 478.626 349.5 470.972 339.251C463.318 329.002 458.258 323.034 458.258 323.034C458.258 323.034 451.642 337.045 458.647 347.164C465.653 357.284 476.032 367.273 476.032 367.273L477.718 355.856Z" fill="#326039"/>
<path d="M468.766 393.479C468.766 393.479 468.766 386.992 477.847 378.041C486.928 368.959 492.636 363.9 492.636 363.9C492.636 363.9 497.177 378.689 488.744 387.771C480.312 396.852 468.766 405.155 468.766 405.155V393.479Z" fill="#326039"/>
<path d="M474.734 427.469C474.734 427.469 473.047 421.242 479.534 410.214C486.02 399.187 490.301 392.7 490.301 392.7C490.301 392.7 498.475 405.933 492.637 416.831C486.799 427.728 477.717 438.756 477.717 438.756L474.734 427.469Z" fill="#326039"/>
<path d="M492.118 231.183C491.6 238.059 490.821 245.194 489.653 251.162C486.021 269.584 477.199 281.52 473.567 298.125C469.934 314.731 480.183 336.267 477.459 357.673C474.734 379.079 466.431 391.014 468.767 405.284C471.102 419.555 483.686 458.215 483.686 458.215" stroke="#263238" stroke-width="1.29733" stroke-miterlimit="10" stroke-linecap="round" stroke-linejoin="round"/>
<path d="M490.562 248.049L500.291 240.524" stroke="#263238" stroke-width="1.29733" stroke-miterlimit="10" stroke-linecap="round" stroke-linejoin="round"/>
<path d="M491.08 239.486L486.929 232.221" stroke="#263238" stroke-width="1.29733" stroke-miterlimit="10" stroke-linecap="round" stroke-linejoin="round"/>
<path d="M474.086 297.477C474.086 297.477 482.259 291.379 490.562 285.282" stroke="#263238" stroke-width="1.29733" stroke-miterlimit="10" stroke-linecap="round" stroke-linejoin="round"/>
<path d="M478.107 284.633C478.107 284.633 471.361 271.271 463.577 262.449" stroke="#263238" stroke-width="1.29733" stroke-miterlimit="10" stroke-linecap="round" stroke-linejoin="round"/>
<path d="M478.106 352.483C478.106 352.483 484.463 340.029 495.491 329.131" stroke="#263238" stroke-width="1.29733" stroke-miterlimit="10" stroke-linecap="round" stroke-linejoin="round"/>
<path d="M476.551 361.435C476.551 361.435 472.529 351.705 467.729 344.699C462.929 337.694 462.28 336.786 462.28 336.786" stroke="#263238" stroke-width="1.29733" stroke-miterlimit="10" stroke-linecap="round" stroke-linejoin="round"/>
<path d="M468.766 405.284C468.766 405.284 472.009 396.982 476.16 390.495C480.182 383.879 485.631 378.041 485.631 378.041" stroke="#263238" stroke-width="1.29733" stroke-miterlimit="10" stroke-linecap="round" stroke-linejoin="round"/>
<path d="M477.718 438.756C477.718 438.756 476.81 430.972 480.183 424.485C483.556 417.869 487.448 409.306 489.004 405.933" stroke="#263238" stroke-width="1.29733" stroke-miterlimit="10" stroke-linecap="round" stroke-linejoin="round"/>
<path d="M417.522 319.012C417.522 319.012 416.873 314.991 421.544 308.374C426.214 301.758 429.328 297.866 429.328 297.866C429.328 297.866 433.738 306.688 429.457 313.304C425.176 319.92 418.819 326.407 418.819 326.407L417.522 319.012Z" fill="#326039"/>
<path d="M430.107 342.883C430.107 342.883 429.458 338.861 434.129 332.245C438.799 325.629 441.912 321.737 441.912 321.737C441.912 321.737 446.323 330.559 442.042 337.175C437.761 343.791 431.404 350.278 431.404 350.278L430.107 342.883Z" fill="#326039"/>
<path d="M419.079 325.758C419.079 325.758 417.911 321.866 410.906 317.845C403.77 313.953 399.36 311.747 399.36 311.747C399.36 311.747 399.23 321.607 405.846 325.629C412.592 329.65 421.155 332.764 421.155 332.764L419.079 325.758Z" fill="#326039"/>
<path d="M434.128 353.91C434.128 353.91 432.571 350.148 425.176 346.905C417.652 343.662 412.981 342.105 412.981 342.105C412.981 342.105 413.89 351.964 420.895 355.337C428.03 358.711 436.852 360.916 436.852 360.916L434.128 353.91Z" fill="#326039"/>
<path d="M437.89 386.733C437.89 386.733 437.241 382.711 430.495 378.041C423.879 373.37 419.598 370.776 419.598 370.776C419.598 370.776 418.43 380.635 424.657 385.306C430.884 390.106 439.057 393.998 439.057 393.998L437.89 386.733Z" fill="#326039"/>
<path d="M439.447 394.776C439.447 394.776 438.149 390.884 441.912 383.619C445.544 376.354 448.139 372.073 448.139 372.073C448.139 372.073 453.847 380.116 450.474 387.252C447.231 394.387 441.782 401.782 441.782 401.782L439.447 394.776Z" fill="#326039"/>
<path d="M450.733 427.339C450.733 427.339 451.252 423.317 457.609 418.258C463.966 413.198 467.988 410.344 467.988 410.344C467.988 410.344 469.804 420.074 463.836 425.134C457.869 430.193 449.955 434.734 449.955 434.734L450.733 427.339Z" fill="#326039"/>
<path d="M449.047 417.35C449.047 417.35 448.398 413.328 441.652 408.658C435.036 403.987 430.755 401.393 430.755 401.393C430.755 401.393 429.587 411.252 435.814 415.923C442.042 420.723 450.215 424.615 450.215 424.615L449.047 417.35Z" fill="#326039"/>
<path d="M448.918 439.274C448.918 439.274 449.307 435.123 443.988 429.026C438.798 422.798 435.296 419.166 435.296 419.166C435.296 419.166 431.663 428.377 436.463 434.474C441.263 440.572 448.269 446.539 448.269 446.539L448.918 439.274Z" fill="#326039"/>
<path d="M416.873 317.975C417.911 322.256 419.208 326.667 420.635 330.299C424.916 341.456 431.792 347.943 435.814 358.062C439.836 368.181 435.814 382.711 439.836 395.814C443.857 408.917 450.344 415.533 450.474 424.744C450.474 433.955 446.841 459.513 446.841 459.513" stroke="#263238" stroke-width="1.29733" stroke-miterlimit="10" stroke-linecap="round" stroke-linejoin="round"/>
<path d="M419.597 328.483L412.722 324.85" stroke="#263238" stroke-width="1.29733" stroke-miterlimit="10" stroke-linecap="round" stroke-linejoin="round"/>
<path d="M418.431 323.164L420.117 318.104" stroke="#263238" stroke-width="1.29733" stroke-miterlimit="10" stroke-linecap="round" stroke-linejoin="round"/>
<path d="M435.295 357.673C435.295 357.673 429.457 354.689 423.619 351.835" stroke="#263238" stroke-width="1.29733" stroke-miterlimit="10" stroke-linecap="round" stroke-linejoin="round"/>
<path d="M431.403 350.148C431.403 350.148 434.257 341.067 438.02 334.71" stroke="#263238" stroke-width="1.29733" stroke-miterlimit="10" stroke-linecap="round" stroke-linejoin="round"/>
<path d="M438.669 392.571C438.669 392.571 433.35 385.435 425.177 379.857" stroke="#263238" stroke-width="1.29733" stroke-miterlimit="10" stroke-linecap="round" stroke-linejoin="round"/>
<path d="M440.744 398.149C440.744 398.149 442.301 391.663 444.506 386.733C446.712 381.803 447.101 381.154 447.101 381.154" stroke="#263238" stroke-width="1.29733" stroke-miterlimit="10" stroke-linecap="round" stroke-linejoin="round"/>
<path d="M450.085 431.75C450.085 431.75 454.626 426.171 457.48 423.966C460.334 421.89 462.28 419.815 462.28 419.815" stroke="#263238" stroke-width="1.29733" stroke-miterlimit="10" stroke-linecap="round" stroke-linejoin="round"/>
<path d="M450.345 424.744C450.345 424.744 447.361 419.944 444.118 416.182C440.874 412.55 436.853 409.436 436.853 409.436" stroke="#263238" stroke-width="1.29733" stroke-miterlimit="10" stroke-linecap="round" stroke-linejoin="round"/>
<path d="M448.398 446.669C448.398 446.669 448.138 441.739 445.284 437.977C442.43 434.215 439.057 429.285 437.76 427.339" stroke="#263238" stroke-width="1.29733" stroke-miterlimit="10" stroke-linecap="round" stroke-linejoin="round"/>
<path d="M49.0813 262.449L43.373 246.232L49.0813 253.108L44.5406 228.848L51.5462 246.232L53.8814 212.113L58.0328 244.676L62.4437 238.059V246.232L67.7628 235.335L64.9087 254.406L69.7088 251.162L62.0545 261.671L49.0813 262.449Z" fill="#326039"/>
<path d="M66.8546 258.427H45.8379L49.6001 300.98H63.0923L66.8546 258.427Z" fill="#263238" stroke="#263238" stroke-width="1.29733" stroke-miterlimit="10" stroke-linecap="round" stroke-linejoin="round"/>
<path d="M106.423 300.59H34.5508V452.896H106.423V300.59Z" fill="white" stroke="#263238" stroke-width="1.29733" stroke-miterlimit="10" stroke-linecap="round" stroke-linejoin="round"/>
<path d="M110.315 300.59H70.4873V452.896H110.315V300.59Z" fill="white" stroke="#263238" stroke-width="1.29733" stroke-miterlimit="10" stroke-linecap="round" stroke-linejoin="round"/>
<path d="M105.904 300.59H70.4873V452.896H105.904V300.59Z" fill="#263238" stroke="#263238" stroke-width="1.29733" stroke-miterlimit="10" stroke-linecap="round" stroke-linejoin="round"/>
<path d="M101.883 417.479H70.4873V448.615H101.883V417.479Z" fill="#E7F9AB" stroke="#263238" stroke-width="1.29733" stroke-miterlimit="10" stroke-linecap="round" stroke-linejoin="round"/>
<path d="M101.883 419.166H70.4873V423.188H101.883V419.166Z" fill="white" stroke="#263238" stroke-width="1.29733" stroke-miterlimit="10" stroke-linecap="round" stroke-linejoin="round"/>
<path d="M101.883 442.129H70.4873V446.15H101.883V442.129Z" fill="white" stroke="#263238" stroke-width="1.29733" stroke-miterlimit="10" stroke-linecap="round" stroke-linejoin="round"/>
<path d="M76.4551 418.128V457.567" stroke="#263238" stroke-width="1.29733" stroke-miterlimit="10" stroke-linecap="round" stroke-linejoin="round"/>
<path d="M87.4814 418.128V457.567" stroke="#263238" stroke-width="1.29733" stroke-miterlimit="10" stroke-linecap="round" stroke-linejoin="round"/>
<path d="M97.083 418.128V457.567" stroke="#263238" stroke-width="1.29733" stroke-miterlimit="10" stroke-linecap="round" stroke-linejoin="round"/>
<path d="M101.883 306.169H70.4873V352.094H101.883V306.169Z" fill="#E7F9AB" stroke="#263238" stroke-width="1.29733" stroke-miterlimit="10" stroke-linecap="round" stroke-linejoin="round"/>
<path d="M101.883 308.115H70.4873V312.656H101.883V308.115Z" fill="white" stroke="#263238" stroke-width="1.29733" stroke-miterlimit="10" stroke-linecap="round" stroke-linejoin="round"/>
<path d="M101.883 337.564H70.4873V342.105H101.883V337.564Z" fill="white" stroke="#263238" stroke-width="1.29733" stroke-miterlimit="10" stroke-linecap="round" stroke-linejoin="round"/>
<path d="M76.4551 306.947V351.705" stroke="#263238" stroke-width="1.29733" stroke-miterlimit="10" stroke-linecap="round" stroke-linejoin="round"/>
<path d="M87.4814 306.947V351.705" stroke="#263238" stroke-width="1.29733" stroke-miterlimit="10" stroke-linecap="round" stroke-linejoin="round"/>
<path d="M97.083 306.947V351.705" stroke="#263238" stroke-width="1.29733" stroke-miterlimit="10" stroke-linecap="round" stroke-linejoin="round"/>
<path d="M101.883 361.435H70.4873V407.36H101.883V361.435Z" fill="#E7F9AB" stroke="#263238" stroke-width="1.29733" stroke-miterlimit="10" stroke-linecap="round" stroke-linejoin="round"/>
<path d="M101.883 363.381H70.4873V367.922H101.883V363.381Z" fill="white" stroke="#263238" stroke-width="1.29733" stroke-miterlimit="10" stroke-linecap="round" stroke-linejoin="round"/>
<path d="M101.883 392.83H70.4873V397.371H101.883V392.83Z" fill="white" stroke="#263238" stroke-width="1.29733" stroke-miterlimit="10" stroke-linecap="round" stroke-linejoin="round"/>
<path d="M76.4551 362.213V406.971" stroke="#263238" stroke-width="1.29733" stroke-miterlimit="10" stroke-linecap="round" stroke-linejoin="round"/>
<path d="M87.4814 362.213V406.971" stroke="#263238" stroke-width="1.29733" stroke-miterlimit="10" stroke-linecap="round" stroke-linejoin="round"/>
<path d="M97.083 362.213V406.971" stroke="#263238" stroke-width="1.29733" stroke-miterlimit="10" stroke-linecap="round" stroke-linejoin="round"/>
<path d="M106.423 351.446H70.4873V356.635H106.423V351.446Z" fill="white" stroke="#263238" stroke-width="1.29733" stroke-miterlimit="10" stroke-linecap="round" stroke-linejoin="round"/>
<path d="M106.423 407.101H70.4873V412.29H106.423V407.101Z" fill="white" stroke="#263238" stroke-width="1.29733" stroke-miterlimit="10" stroke-linecap="round" stroke-linejoin="round"/>
<path d="M106.553 300.59V452.896" stroke="#263238" stroke-width="1.29733" stroke-miterlimit="10" stroke-linecap="round" stroke-linejoin="round"/>
<path d="M65.4268 300.59V452.896H70.4863V306.169H105.903V300.461L65.4268 300.59Z" fill="white" stroke="#263238" stroke-width="1.29733" stroke-miterlimit="10" stroke-linecap="round" stroke-linejoin="round"/>
<path d="M70.4873 306.169V300.59" stroke="#263238" stroke-width="1.29733" stroke-miterlimit="10" stroke-linecap="round" stroke-linejoin="round"/>
<path d="M106.163 230.535C102.401 223.27 100.844 218.081 100.844 216.783C100.844 214.448 106.033 213.021 106.033 213.021C114.076 208.74 152.218 214.967 169.343 217.821C186.467 220.675 198.403 220.675 198.403 220.675C198.403 220.675 200.738 218.729 203.592 216.394C206.446 214.059 219.809 198.361 224.998 196.934C230.187 195.507 234.987 198.88 234.987 198.88C234.987 198.88 243.55 204.069 242.123 205.107C240.695 206.015 219.809 224.178 214.489 227.421C209.17 230.665 198.273 229.367 188.802 231.183C180.629 232.87 147.418 234.816 139.764 235.465C139.764 235.465 132.109 237.8 122.639 234.038" fill="white"/>
<mask id="mask0_11_30015" style="mask-type:luminance" maskUnits="userSpaceOnUse" x="100" y="196" width="143" height="41">
<path d="M106.163 230.535C102.401 223.27 100.844 218.081 100.844 216.783C100.844 214.448 106.033 213.021 106.033 213.021C114.076 208.74 152.218 214.967 169.343 217.821C186.467 220.675 198.403 220.675 198.403 220.675C198.403 220.675 200.738 218.729 203.592 216.394C206.446 214.059 219.809 198.361 224.998 196.934C230.187 195.507 234.987 198.88 234.987 198.88C234.987 198.88 243.55 204.069 242.123 205.107C240.695 206.015 219.809 224.178 214.489 227.421C209.17 230.665 198.273 229.367 188.802 231.183C180.629 232.87 147.418 234.816 139.764 235.465C139.764 235.465 132.109 237.8 122.639 234.038" fill="white"/>
</mask>
<g mask="url(#mask0_11_30015)">
<path d="M235.117 198.75C235.117 198.75 230.317 195.377 225.128 196.804C219.938 198.231 206.576 213.929 203.722 216.264C200.868 218.599 198.533 220.545 198.533 220.545C198.533 220.545 186.597 220.545 169.472 217.691C152.348 214.837 114.206 208.61 106.163 212.891C106.163 212.891 100.974 214.318 100.974 216.653C100.974 217.172 101.363 218.599 102.011 220.545C102.401 220.675 102.66 220.805 102.66 220.805C102.66 220.805 112.131 219.767 132.628 220.286C153.126 220.805 200.608 223.529 203.722 224.697C205.149 225.216 214.23 223.14 224.479 219.508C232.263 213.151 241.474 205.237 242.382 204.718C243.679 204.069 235.117 198.75 235.117 198.75Z" fill="#326039"/>
</g>
<mask id="mask1_11_30015" style="mask-type:luminance" maskUnits="userSpaceOnUse" x="100" y="196" width="143" height="41">
<path d="M106.163 230.535C102.401 223.27 100.844 218.081 100.844 216.783C100.844 214.448 106.033 213.021 106.033 213.021C114.076 208.74 152.218 214.967 169.343 217.821C186.467 220.675 198.403 220.675 198.403 220.675C198.403 220.675 200.738 218.729 203.592 216.394C206.446 214.059 219.809 198.361 224.998 196.934C230.187 195.507 234.987 198.88 234.987 198.88C234.987 198.88 243.55 204.069 242.123 205.107C240.695 206.015 219.809 224.178 214.489 227.421C209.17 230.665 198.273 229.367 188.802 231.183C180.629 232.87 147.418 234.816 139.764 235.465C139.764 235.465 132.109 237.8 122.639 234.038" fill="white"/>
</mask>
<g mask="url(#mask1_11_30015)">
<path opacity="0.5" d="M235.117 198.75C235.117 198.75 230.317 195.377 225.128 196.804C219.938 198.231 206.576 213.929 203.722 216.264C200.868 218.599 198.533 220.545 198.533 220.545C198.533 220.545 186.597 220.545 169.472 217.691C152.348 214.837 114.206 208.61 106.163 212.891C106.163 212.891 100.974 214.318 100.974 216.653C100.974 217.172 101.363 218.599 102.011 220.545C102.401 220.675 102.66 220.805 102.66 220.805C102.66 220.805 112.131 219.767 132.628 220.286C153.126 220.805 200.608 223.529 203.722 224.697C205.149 225.216 214.23 223.14 224.479 219.508C232.263 213.151 241.474 205.237 242.382 204.718C243.679 204.069 235.117 198.75 235.117 198.75Z" fill="white"/>
</g>
<path d="M106.163 230.535C102.401 223.27 100.844 218.081 100.844 216.783C100.844 214.448 106.033 213.021 106.033 213.021C114.076 208.74 152.218 214.967 169.343 217.821C186.467 220.675 198.403 220.675 198.403 220.675C198.403 220.675 200.738 218.729 203.592 216.394C206.446 214.059 219.809 198.361 224.998 196.934C230.187 195.507 234.987 198.88 234.987 198.88C234.987 198.88 243.55 204.069 242.123 205.107C240.695 206.015 219.809 224.178 214.489 227.421C209.17 230.665 198.273 229.367 188.802 231.183C180.629 232.87 147.418 234.816 139.764 235.465C139.764 235.465 132.109 237.8 122.639 234.038" stroke="#263238" stroke-width="1.29733" stroke-miterlimit="10" stroke-linecap="round" stroke-linejoin="round"/>
<path d="M294.275 272.957C295.962 269.584 299.465 267.509 303.227 267.509H389.759C389.759 267.509 395.986 267.509 394.169 279.444C392.353 291.379 366.666 363.9 360.439 385.825C354.212 407.749 352.914 454.064 352.914 454.064H249.128C248.999 453.934 257.302 343.402 294.275 272.957Z" fill="white"/>
<mask id="mask2_11_30015" style="mask-type:luminance" maskUnits="userSpaceOnUse" x="249" y="267" width="146" height="188">
<path d="M294.275 272.957C295.962 269.584 299.465 267.509 303.227 267.509H389.759C389.759 267.509 395.986 267.509 394.169 279.444C392.353 291.379 366.666 363.9 360.439 385.825C354.212 407.749 352.914 454.064 352.914 454.064H249.128C248.999 453.934 257.302 343.402 294.275 272.957Z" fill="white"/>
</mask>
<g mask="url(#mask2_11_30015)">
<path opacity="0.16" d="M333.195 267.509H303.227C299.465 267.509 295.962 269.584 294.276 272.957C257.302 343.402 248.999 453.934 248.999 453.934H295.573L306.989 410.344L354.861 420.204C355.25 416.571 355.639 412.809 356.028 409.176L354.991 397.501C354.991 397.501 345.131 387.122 342.147 384.657C339.033 382.062 341.109 377.392 340.59 357.283C340.071 337.175 322.038 322.645 315.292 310.32C308.546 297.866 318.925 290.212 328.136 277.757C331.509 273.217 332.806 269.973 333.195 267.509Z" fill="black"/>
</g>
<path d="M294.275 272.957C295.962 269.584 299.465 267.509 303.227 267.509H389.759C389.759 267.509 395.986 267.509 394.169 279.444C392.353 291.379 366.666 363.9 360.439 385.825C354.212 407.749 352.914 454.064 352.914 454.064H249.128C248.999 453.934 257.302 343.402 294.275 272.957Z" stroke="#263238" stroke-width="1.29733" stroke-miterlimit="10" stroke-linecap="round" stroke-linejoin="round"/>
<path d="M374.71 288.136C366.018 308.504 347.466 389.327 344.482 453.934H352.785C352.785 453.934 354.083 407.62 360.31 385.695C366.537 363.77 392.224 291.25 394.04 279.314C395.857 267.379 389.629 267.379 389.629 267.379C389.629 267.379 381.716 271.79 374.71 288.136Z" fill="#263238" stroke="#263238" stroke-width="1.29733" stroke-miterlimit="10" stroke-linecap="round" stroke-linejoin="round"/>
<path d="M222.663 247.4C222.663 247.4 208.911 239.357 203.592 225.086C198.403 210.815 244.588 187.982 264.567 186.555C284.545 185.128 290.254 190.318 302.189 210.815C314.124 231.313 322.168 259.335 315.941 273.217C309.713 286.968 299.335 290.341 306.859 301.758C314.514 313.174 335.919 345.608 334.492 360.786C333.065 375.965 318.276 389.327 296.87 390.755C275.464 392.182 246.923 379.338 223.052 358.451C199.311 337.564 205.408 306.558 213.971 296.569C222.533 286.579 235.377 282.817 236.285 272.828C237.452 262.579 222.663 247.4 222.663 247.4Z" fill="#263238" stroke="#263238" stroke-width="1.29733" stroke-miterlimit="10" stroke-linecap="round" stroke-linejoin="round"/>
<path d="M281.562 224.697C288.956 238.319 298.038 256.611 300.892 267.638C305.951 286.968 280.134 299.163 287.27 308.504" stroke="white" stroke-width="1.29733" stroke-miterlimit="10" stroke-linecap="round" stroke-linejoin="round"/>
<path d="M271.572 206.923C271.572 206.923 274.426 211.724 278.318 218.989" stroke="white" stroke-width="1.29733" stroke-miterlimit="10" stroke-linecap="round" stroke-linejoin="round"/>
<path d="M309.973 241.173C310.751 243.768 311.4 246.362 311.659 249.087" stroke="white" stroke-width="1.29733" stroke-miterlimit="10" stroke-linecap="round" stroke-linejoin="round"/>
<path d="M276.502 199.658C276.502 199.658 299.075 216.264 308.027 236.243" stroke="white" stroke-width="1.29733" stroke-miterlimit="10" stroke-linecap="round" stroke-linejoin="round"/>
<path d="M245.237 212.242C229.15 216.783 205.928 224.048 207.874 228.329" stroke="white" stroke-width="1.29733" stroke-miterlimit="10" stroke-linecap="round" stroke-linejoin="round"/>
<path d="M260.155 208.351C260.155 208.351 256.652 209.259 251.593 210.556" stroke="white" stroke-width="1.29733" stroke-miterlimit="10" stroke-linecap="round" stroke-linejoin="round"/>
<path d="M240.177 199.918C246.144 197.972 255.874 195.766 268.718 196.156" stroke="white" stroke-width="1.29733" stroke-miterlimit="10" stroke-linecap="round" stroke-linejoin="round"/>
<path d="M233.561 202.642C233.561 202.642 235.117 201.734 238.101 200.696" stroke="white" stroke-width="1.29733" stroke-miterlimit="10" stroke-linecap="round" stroke-linejoin="round"/>
<path d="M100.844 216.913C100.844 217.043 100.844 217.043 100.844 217.172C100.844 217.043 100.844 216.913 100.844 216.913ZM106.163 230.535C103.049 224.697 101.492 220.026 100.973 217.951C101.492 220.156 103.179 224.697 106.163 230.535ZM100.844 217.172C100.844 217.302 100.844 217.302 100.844 217.432C100.844 217.432 100.844 217.302 100.844 217.172ZM100.973 217.562C100.973 217.691 100.973 217.821 101.103 217.951C100.973 217.821 100.973 217.691 100.973 217.562ZM106.163 230.535C109.795 237.67 115.633 246.751 124.066 255.833C141.191 274.384 190.748 322.904 195.419 326.277C200.219 329.65 198.792 339.121 195.419 348.591C192.046 358.062 179.721 371.943 180.24 387.122C180.759 402.301 185.429 425.653 185.04 430.453C184.521 435.253 172.716 451.34 172.716 451.34H295.572C295.572 451.34 280.264 431.88 280.264 425.263C280.264 418.647 301.281 333.283 302.189 327.186C303.097 320.958 299.335 316.677 291.68 316.288C284.026 315.769 254.966 309.672 253.539 304.872C252.112 300.071 261.193 282.039 261.193 282.039L232.652 283.466C232.652 283.466 231.225 295.79 229.279 298.255C227.333 300.59 224.479 295.92 217.863 292.547C211.246 289.174 198.403 286.32 193.603 282.558C188.802 278.795 143.137 235.854 143.137 235.854" fill="white"/>
<mask id="mask3_11_30015" style="mask-type:luminance" maskUnits="userSpaceOnUse" x="100" y="216" width="203" height="236">
<path d="M100.844 216.913C100.844 217.043 100.844 217.043 100.844 217.172C100.844 217.043 100.844 216.913 100.844 216.913ZM106.163 230.535C103.049 224.697 101.492 220.026 100.973 217.951C101.492 220.156 103.179 224.697 106.163 230.535ZM100.844 217.172C100.844 217.302 100.844 217.302 100.844 217.432C100.844 217.432 100.844 217.302 100.844 217.172ZM100.973 217.562C100.973 217.691 100.973 217.821 101.103 217.951C100.973 217.821 100.973 217.691 100.973 217.562ZM106.163 230.535C109.795 237.67 115.633 246.751 124.066 255.833C141.191 274.384 190.748 322.904 195.419 326.277C200.219 329.65 198.792 339.121 195.419 348.591C192.046 358.062 179.721 371.943 180.24 387.122C180.759 402.301 185.429 425.653 185.04 430.453C184.521 435.253 172.716 451.34 172.716 451.34H295.572C295.572 451.34 280.264 431.88 280.264 425.263C280.264 418.647 301.281 333.283 302.189 327.186C303.097 320.958 299.335 316.677 291.68 316.288C284.026 315.769 254.966 309.672 253.539 304.872C252.112 300.071 261.193 282.039 261.193 282.039L232.652 283.466C232.652 283.466 231.225 295.79 229.279 298.255C227.333 300.59 224.479 295.92 217.863 292.547C211.246 289.174 198.403 286.32 193.603 282.558C188.802 278.795 143.137 235.854 143.137 235.854" fill="white"/>
</mask>
<g mask="url(#mask3_11_30015)">
<path d="M200.997 286.19C203.332 290.342 205.797 294.104 205.797 294.104C205.797 294.104 213.841 298.644 215.787 298.644C217.733 298.644 229.798 305.131 229.798 305.131C229.798 305.131 239.787 302.666 236.284 294.104C235.636 292.547 234.209 290.471 232.133 288.136C231.484 291.898 230.576 296.828 229.408 298.255C227.463 300.59 224.608 295.92 217.992 292.547C213.581 290.341 206.576 288.396 200.997 286.19Z" fill="#326039"/>
<path d="M176.478 266.99C161.818 253.368 143.136 235.984 143.136 235.984L132.369 234.427L131.071 235.205C131.071 235.205 161.558 262.19 168.045 265.173C172.197 266.99 174.272 266.73 176.478 266.99Z" fill="#326039"/>
<path d="M191.916 281.131C191.526 280.871 191.137 280.482 190.748 280.093C191.397 281.131 191.656 281.649 191.656 281.649C191.656 281.649 191.786 281.39 191.916 281.131Z" fill="#326039"/>
</g>
<mask id="mask4_11_30015" style="mask-type:luminance" maskUnits="userSpaceOnUse" x="100" y="216" width="203" height="236">
<path d="M100.844 216.913C100.844 217.043 100.844 217.043 100.844 217.172C100.844 217.043 100.844 216.913 100.844 216.913ZM106.163 230.535C103.049 224.697 101.492 220.026 100.973 217.951C101.492 220.156 103.179 224.697 106.163 230.535ZM100.844 217.172C100.844 217.302 100.844 217.302 100.844 217.432C100.844 217.432 100.844 217.302 100.844 217.172ZM100.973 217.562C100.973 217.691 100.973 217.821 101.103 217.951C100.973 217.821 100.973 217.691 100.973 217.562ZM106.163 230.535C109.795 237.67 115.633 246.751 124.066 255.833C141.191 274.384 190.748 322.904 195.419 326.277C200.219 329.65 198.792 339.121 195.419 348.591C192.046 358.062 179.721 371.943 180.24 387.122C180.759 402.301 185.429 425.653 185.04 430.453C184.521 435.253 172.716 451.34 172.716 451.34H295.572C295.572 451.34 280.264 431.88 280.264 425.263C280.264 418.647 301.281 333.283 302.189 327.186C303.097 320.958 299.335 316.677 291.68 316.288C284.026 315.769 254.966 309.672 253.539 304.872C252.112 300.071 261.193 282.039 261.193 282.039L232.652 283.466C232.652 283.466 231.225 295.79 229.279 298.255C227.333 300.59 224.479 295.92 217.863 292.547C211.246 289.174 198.403 286.32 193.603 282.558C188.802 278.795 143.137 235.854 143.137 235.854" fill="white"/>
</mask>
<g mask="url(#mask4_11_30015)">
<g opacity="0.5">
<path d="M200.997 286.19C203.332 290.342 205.797 294.104 205.797 294.104C205.797 294.104 213.841 298.644 215.787 298.644C217.733 298.644 229.798 305.131 229.798 305.131C229.798 305.131 239.787 302.666 236.284 294.104C235.636 292.547 234.209 290.471 232.133 288.136C231.484 291.898 230.576 296.828 229.408 298.255C227.463 300.59 224.608 295.92 217.992 292.547C213.581 290.341 206.576 288.396 200.997 286.19Z" fill="white"/>
<path d="M176.478 266.99C161.818 253.368 143.136 235.984 143.136 235.984L132.369 234.427L131.071 235.205C131.071 235.205 161.558 262.19 168.045 265.173C172.197 266.99 174.272 266.73 176.478 266.99Z" fill="white"/>
<path d="M191.916 281.131C191.526 280.871 191.137 280.482 190.748 280.093C191.397 281.131 191.656 281.649 191.656 281.649C191.656 281.649 191.786 281.39 191.916 281.131Z" fill="white"/>
</g>
</g>
<path d="M106.163 230.535C109.795 237.67 115.633 246.751 124.066 255.833C141.191 274.384 190.748 322.904 195.419 326.277C200.219 329.65 198.792 339.121 195.419 348.591C192.046 358.062 179.721 371.943 180.24 387.122C180.759 402.301 185.429 425.653 185.04 430.453C184.521 435.253 172.716 451.34 172.716 451.34H295.572C295.572 451.34 280.264 431.88 280.264 425.263C280.264 418.647 301.281 333.283 302.189 327.186C303.097 320.958 299.335 316.677 291.68 316.288C284.026 315.769 254.966 309.672 253.539 304.872C252.112 300.071 261.193 282.039 261.193 282.039L232.652 283.466C232.652 283.466 231.225 295.79 229.279 298.255C227.333 300.59 224.479 295.92 217.863 292.547C211.246 289.174 198.403 286.32 193.603 282.558C188.802 278.795 143.137 235.854 143.137 235.854M100.844 216.913C100.844 217.043 100.844 217.043 100.844 217.172C100.844 217.043 100.844 216.913 100.844 216.913ZM106.163 230.535C103.049 224.697 101.492 220.026 100.973 217.951C101.492 220.156 103.179 224.697 106.163 230.535ZM100.844 217.172C100.844 217.302 100.844 217.302 100.844 217.432C100.844 217.432 100.844 217.302 100.844 217.172ZM100.973 217.562C100.973 217.691 100.973 217.821 101.103 217.951C100.973 217.821 100.973 217.691 100.973 217.562Z" stroke="#263238" stroke-width="1.29733" stroke-miterlimit="10" stroke-linecap="round" stroke-linejoin="round"/>
<path d="M143.266 235.984C143.266 235.984 128.088 236.243 119.525 229.237" stroke="#263238" stroke-width="1.29733" stroke-miterlimit="10" stroke-linecap="round" stroke-linejoin="round"/>
<path d="M253.67 305.001C252.243 300.201 261.324 282.168 261.324 282.168L232.783 283.595C232.783 283.595 231.356 295.92 229.41 298.385C227.464 300.72 224.61 296.05 217.993 292.677C217.474 292.417 216.955 292.158 216.307 291.898L214.62 319.012C214.62 319.012 217.085 345.348 247.183 340.289C259.378 338.213 272.351 327.445 283.508 315.25C271.962 313.045 254.707 308.634 253.67 305.001Z" fill="white"/>
<mask id="mask5_11_30015" style="mask-type:luminance" maskUnits="userSpaceOnUse" x="214" y="282" width="70" height="59">
<path d="M253.67 305.001C252.243 300.201 261.324 282.168 261.324 282.168L232.783 283.595C232.783 283.595 231.356 295.92 229.41 298.385C227.464 300.72 224.61 296.05 217.993 292.677C217.474 292.417 216.955 292.158 216.307 291.898L214.62 319.012C214.62 319.012 217.085 345.348 247.183 340.289C259.378 338.213 272.351 327.445 283.508 315.25C271.962 313.045 254.707 308.634 253.67 305.001Z" fill="white"/>
</mask>
<g mask="url(#mask5_11_30015)">
<path d="M252.891 285.671C252.891 285.671 251.204 295.401 249.777 306.039C248.35 316.807 247.312 324.721 247.312 324.721L253.669 304.872L260.805 283.855C260.805 283.985 253.929 283.985 252.891 285.671Z" fill="#326039"/>
</g>
<mask id="mask6_11_30015" style="mask-type:luminance" maskUnits="userSpaceOnUse" x="214" y="282" width="70" height="59">
<path d="M253.67 305.001C252.243 300.201 261.324 282.168 261.324 282.168L232.783 283.595C232.783 283.595 231.356 295.92 229.41 298.385C227.464 300.72 224.61 296.05 217.993 292.677C217.474 292.417 216.955 292.158 216.307 291.898L214.62 319.012C214.62 319.012 217.085 345.348 247.183 340.289C259.378 338.213 272.351 327.445 283.508 315.25C271.962 313.045 254.707 308.634 253.67 305.001Z" fill="white"/>
</mask>
<g mask="url(#mask6_11_30015)">
<path opacity="0.5" d="M252.891 285.671C252.891 285.671 251.204 295.401 249.777 306.039C248.35 316.807 247.312 324.721 247.312 324.721L253.669 304.872L260.805 283.855C260.805 283.985 253.929 283.985 252.891 285.671Z" fill="white"/>
</g>
<path d="M253.67 305.001C252.243 300.201 261.324 282.168 261.324 282.168L232.783 283.595C232.783 283.595 231.356 295.92 229.41 298.385C227.464 300.72 224.61 296.05 217.993 292.677C217.474 292.417 216.955 292.158 216.307 291.898L214.62 319.012C214.62 319.012 217.085 345.348 247.183 340.289C259.378 338.213 272.351 327.445 283.508 315.25C271.962 313.045 254.707 308.634 253.67 305.001Z" stroke="#263238" stroke-width="1.29733" stroke-miterlimit="10" stroke-linecap="round" stroke-linejoin="round"/>
<path d="M229.41 298.255C227.464 300.59 224.61 295.92 217.993 292.547C213.842 290.471 207.096 288.525 201.517 286.45C199.96 282.687 197.885 277.887 196.587 274.903C194.252 269.714 190.36 272.957 190.36 272.957C190.36 272.957 188.025 270.622 185.56 265.303C183.225 260.114 179.333 260.503 174.144 259.595C168.954 258.687 157.927 248.697 157.927 248.697C157.927 248.697 152.867 244.805 150.662 242.859C148.197 247.66 142.359 256.222 129.516 261.541C149.884 282.817 191.139 323.164 195.55 326.277C200.35 329.651 198.923 339.121 195.55 348.591C192.176 358.062 179.852 371.943 180.371 387.122C180.89 402.301 185.56 425.653 185.171 430.453C184.782 434.734 175.311 447.967 173.236 450.821L178.036 451.34H203.204C203.074 438.626 203.074 386.473 211.766 365.716C221.756 342.105 229.41 298.255 229.41 298.255Z" fill="#326039"/>
<mask id="mask7_11_30015" style="mask-type:luminance" maskUnits="userSpaceOnUse" x="129" y="242" width="101" height="210">
<path d="M200.918 286.698L201.026 286.959L201.291 287.057C203.21 287.771 205.271 288.472 207.309 289.164C208.242 289.481 209.171 289.797 210.078 290.111C212.981 291.117 215.668 292.11 217.701 293.126C220.267 294.434 222.24 295.931 223.856 297.156C224.285 297.482 224.688 297.788 225.071 298.066C225.955 298.709 226.795 299.255 227.577 299.452C227.888 299.53 228.207 299.558 228.526 299.508C228.495 299.68 228.46 299.867 228.423 300.068C228.195 301.311 227.857 303.114 227.421 305.351C226.548 309.826 225.281 316.039 223.701 322.988C220.54 336.898 216.139 353.715 211.169 365.463L211.168 365.466C206.773 375.96 204.599 394.294 203.529 411.504C202.493 428.185 202.489 443.92 202.549 450.691H178.07L174.415 450.296C175.748 448.439 178.138 445.044 180.383 441.52C181.725 439.413 183.022 437.25 184.01 435.338C184.982 433.457 185.707 431.723 185.817 430.511L185.817 430.505C185.921 429.224 185.69 426.791 185.302 423.711C184.993 421.265 184.578 418.36 184.127 415.205C184.005 414.349 183.88 413.476 183.754 412.588C182.569 404.247 181.277 394.649 181.019 387.1C180.766 379.685 183.65 372.545 187.075 366.018C188.3 363.682 189.585 361.444 190.814 359.302C191.302 358.45 191.782 357.613 192.247 356.792C193.868 353.922 195.297 351.235 196.161 348.809C197.857 344.047 199.08 339.243 199.262 335.177C199.444 331.143 198.605 327.632 195.924 325.748C195.411 325.386 194.315 324.444 192.717 322.994C191.132 321.556 189.083 319.645 186.681 317.37C181.879 312.82 175.674 306.823 168.97 300.257C155.844 287.4 140.809 272.371 130.634 261.77C142.445 256.622 148.205 248.758 150.855 243.883C151.96 244.821 153.44 246.007 154.72 247.017C155.492 247.627 156.194 248.175 156.704 248.571C156.959 248.769 157.166 248.929 157.309 249.04L157.474 249.167L157.511 249.196L157.525 249.208L157.62 249.293C157.703 249.368 157.825 249.476 157.982 249.615C158.296 249.892 158.75 250.288 159.31 250.766C160.431 251.722 161.98 253.006 163.695 254.32C165.407 255.633 167.293 256.983 169.085 258.064C170.859 259.135 172.609 259.985 174.032 260.234C174.878 260.382 175.704 260.498 176.481 260.607C176.9 260.666 177.305 260.723 177.691 260.781C178.813 260.952 179.811 261.144 180.709 261.456C182.455 262.063 183.875 263.138 184.969 265.569L184.969 265.569L184.972 265.576C186.222 268.274 187.442 270.222 188.357 271.502C188.814 272.142 189.194 272.615 189.463 272.93C189.598 273.088 189.704 273.207 189.779 273.287C189.816 273.327 189.845 273.358 189.866 273.38L189.89 273.405L189.898 273.412L189.9 273.415L189.901 273.415L189.901 273.416C189.901 273.416 189.902 273.416 190.36 272.957L189.902 273.416L190.32 273.835L190.774 273.457L190.774 273.457L190.775 273.456L190.775 273.456L190.775 273.456L190.778 273.454C190.782 273.45 190.79 273.444 190.801 273.435C190.824 273.418 190.859 273.391 190.907 273.358C191.002 273.29 191.143 273.197 191.32 273.099C191.678 272.9 192.157 272.695 192.681 272.628C193.193 272.562 193.744 272.628 194.29 272.963C194.842 273.302 195.448 273.953 195.994 275.166C197.292 278.15 199.364 282.943 200.918 286.698Z" fill="white" stroke="white" stroke-width="1.29733"/>
</mask>
<g mask="url(#mask7_11_30015)">
<path opacity="0.16" d="M217.993 292.547C213.841 290.471 207.095 288.525 201.517 286.45C199.96 282.687 197.884 277.887 196.587 274.903C194.252 269.714 190.36 272.957 190.36 272.957C190.36 272.957 188.025 270.622 185.56 265.303C183.225 260.114 179.333 260.503 174.143 259.595C168.954 258.687 157.927 248.697 157.927 248.697C157.927 248.697 152.867 244.805 150.662 242.859C149.883 244.416 148.586 246.492 146.899 248.697C155.462 255.833 164.802 263.487 168.046 265.044C174.532 268.028 176.089 265.563 181.019 268.546C186.079 271.53 191.527 281.52 191.527 281.52C191.527 281.52 194.511 273.476 196.976 279.055C199.441 284.504 205.539 294.104 205.539 294.104C205.539 294.104 213.582 298.644 215.528 298.644C217.085 298.644 224.739 302.666 228.112 304.353C228.89 300.59 229.28 298.255 229.28 298.255C227.463 300.72 224.609 295.92 217.993 292.547Z" fill="black"/>
</g>
<path d="M229.41 298.255C227.464 300.59 224.61 295.92 217.993 292.547C213.842 290.471 207.096 288.525 201.517 286.45C199.96 282.687 197.885 277.887 196.587 274.903C194.252 269.714 190.36 272.957 190.36 272.957C190.36 272.957 188.025 270.622 185.56 265.303C183.225 260.114 179.333 260.503 174.144 259.595C168.954 258.687 157.927 248.697 157.927 248.697C157.927 248.697 152.867 244.805 150.662 242.859C148.197 247.66 142.359 256.222 129.516 261.541C149.884 282.817 191.139 323.164 195.55 326.277C200.35 329.651 198.923 339.121 195.55 348.591C192.176 358.062 179.852 371.943 180.371 387.122C180.89 402.301 185.56 425.653 185.171 430.453C184.782 434.734 175.311 447.967 173.236 450.821L178.036 451.34H203.204C203.074 438.626 203.074 386.473 211.766 365.716C221.756 342.105 229.41 298.255 229.41 298.255Z" stroke="#263238" stroke-width="1.29733" stroke-miterlimit="10" stroke-linecap="round" stroke-linejoin="round"/>
<path d="M229.67 296.569C229.67 296.569 223.702 294.752 220.069 297.996C216.437 301.239 210.988 317.585 207.745 335.359C204.501 353.132 211.637 365.976 211.637 365.976C211.637 365.976 219.161 346.386 221.367 336.786C223.832 327.186 229.67 296.569 229.67 296.569Z" fill="#326039"/>
<mask id="mask8_11_30015" style="mask-type:luminance" maskUnits="userSpaceOnUse" x="206" y="296" width="24" height="70">
<path d="M229.67 296.569C229.67 296.569 223.702 294.752 220.069 297.996C216.437 301.239 210.988 317.585 207.745 335.359C204.501 353.132 211.637 365.976 211.637 365.976C211.637 365.976 219.161 346.386 221.367 336.786C223.832 327.186 229.67 296.569 229.67 296.569Z" fill="white"/>
</mask>
<g mask="url(#mask8_11_30015)">
<path opacity="0.16" d="M218.383 299.552C218.383 299.552 222.664 298.515 224.48 299.163C226.296 299.812 228.632 301.628 228.632 301.628L229.799 296.698C229.799 296.698 226.945 295.142 224.091 295.79C220.977 296.309 218.383 299.552 218.383 299.552Z" fill="black"/>
</g>
<path d="M229.67 296.569C229.67 296.569 223.702 294.752 220.069 297.996C216.437 301.239 210.988 317.585 207.745 335.359C204.501 353.132 211.637 365.976 211.637 365.976C211.637 365.976 219.161 346.386 221.367 336.786C223.832 327.186 229.67 296.569 229.67 296.569Z" stroke="#263238" stroke-width="1.29733" stroke-miterlimit="10" stroke-linecap="round" stroke-linejoin="round"/>
<path d="M189.842 298.125L197.496 329.132L180.371 290.082" stroke="#263238" stroke-width="1.29733" stroke-miterlimit="10" stroke-linecap="round" stroke-linejoin="round"/>
<path d="M253.689 307.011C253.725 306.879 253.76 306.754 253.793 306.637C254.114 306.949 254.498 307.243 254.916 307.519C255.912 308.18 257.238 308.832 258.778 309.467C261.862 310.738 265.9 311.975 270.111 313.072C278.527 315.266 287.751 316.931 291.637 317.195L291.637 317.195L291.648 317.195C295.368 317.385 298.04 318.514 299.673 320.251C301.295 321.976 301.979 324.391 301.547 327.351C301.325 328.844 299.851 335.282 297.749 344.264C296.759 348.493 295.632 353.275 294.436 358.352L294.222 359.264C292.946 364.68 291.597 370.409 290.255 376.142C287.571 387.607 284.914 399.092 282.929 408.125C281.936 412.641 281.11 416.549 280.532 419.536C280.243 421.029 280.016 422.297 279.86 423.298C279.706 424.286 279.616 425.053 279.616 425.523C279.616 426.46 279.883 427.569 280.312 428.762C280.744 429.965 281.356 431.296 282.081 432.688C283.532 435.474 285.461 438.549 287.38 441.404C289.301 444.261 291.222 446.91 292.661 448.843C293.299 449.7 293.843 450.417 294.251 450.951H240.646C240.11 444.244 239.056 429.808 238.49 414.261C237.906 398.223 237.844 381.054 239.392 369.96C241.333 356.89 245.024 340.732 248.234 327.829C249.838 321.379 251.321 315.748 252.402 311.73C252.943 309.72 253.384 308.114 253.689 307.011Z" fill="#326039" stroke="#263638" stroke-width="1.29733"/>
<mask id="mask9_11_30015" style="mask-type:luminance" maskUnits="userSpaceOnUse" x="237" y="305" width="66" height="147">
<path d="M253.689 307.011C253.725 306.879 253.76 306.754 253.793 306.637C254.114 306.949 254.498 307.243 254.916 307.519C255.912 308.18 257.238 308.832 258.778 309.467C261.862 310.738 265.9 311.975 270.111 313.072C278.527 315.266 287.751 316.931 291.637 317.195L291.637 317.195L291.648 317.195C295.368 317.385 298.04 318.514 299.673 320.251C301.295 321.976 301.979 324.391 301.547 327.351C301.325 328.844 299.851 335.282 297.749 344.264C296.759 348.493 295.632 353.275 294.436 358.352L294.222 359.264C292.946 364.68 291.597 370.409 290.255 376.142C287.571 387.607 284.914 399.092 282.929 408.125C281.936 412.641 281.11 416.549 280.532 419.536C280.243 421.029 280.016 422.297 279.86 423.298C279.706 424.286 279.616 425.053 279.616 425.523C279.616 426.46 279.883 427.569 280.312 428.762C280.744 429.965 281.356 431.296 282.081 432.688C283.532 435.474 285.461 438.549 287.38 441.404C289.301 444.261 291.222 446.91 292.661 448.843C293.299 449.7 293.843 450.417 294.251 450.951H240.646C240.11 444.244 239.056 429.808 238.49 414.261C237.906 398.223 237.844 381.054 239.392 369.96C241.333 356.89 245.024 340.732 248.234 327.829C249.838 321.379 251.321 315.748 252.402 311.73C252.943 309.72 253.384 308.114 253.689 307.011Z" fill="white" stroke="white" stroke-width="1.29733"/>
</mask>
<g mask="url(#mask9_11_30015)">
<path opacity="0.16" d="M291.64 317.065L291.64 317.065L291.647 317.066C295.369 317.255 298.038 318.385 299.655 320.12C301.258 321.84 301.912 324.251 301.419 327.209L301.41 327.262V327.315C301.41 327.501 301.359 327.863 301.244 328.437C301.203 328.643 301.155 328.87 301.101 329.117C298.174 325.23 294.55 323.271 290.532 322.103C288.397 321.483 286.149 321.084 283.843 320.737C283.053 320.618 282.26 320.505 281.461 320.391C279.911 320.171 278.342 319.948 276.742 319.671C271.936 318.838 267.734 317.395 264.732 316.159C263.232 315.541 262.034 314.976 261.213 314.566C260.803 314.362 260.487 314.196 260.274 314.082C260.226 314.056 260.184 314.033 260.147 314.013L258.033 309.017C262.257 310.831 268.626 312.631 274.765 314.066C281.712 315.689 288.469 316.867 291.64 317.065Z" fill="black" stroke="#263638" stroke-width="1.29733"/>
</g>
<path d="M240.047 451.599H295.573C295.573 451.599 280.264 432.139 280.264 425.523C280.264 418.907 301.281 333.543 302.189 327.445C303.097 321.218 299.335 316.937 291.681 316.548C284.027 316.029 254.967 309.931 253.54 305.131C253.54 305.131 242.642 343.662 238.75 369.868C235.636 392.182 239.009 438.756 240.047 451.599Z" stroke="#263638" stroke-width="1.29733" stroke-miterlimit="10" stroke-linecap="round" stroke-linejoin="round"/>
<path d="M241.668 365.116C240.842 366.21 240.136 367.121 239.591 367.812C240.096 358.628 243.517 343.766 246.95 330.773C248.789 323.816 250.624 317.42 251.999 312.764C252.686 310.436 253.259 308.544 253.66 307.233C253.831 306.671 253.971 306.216 254.075 305.88C254.346 306.01 254.693 306.193 255.09 306.439C256.078 307.05 257.376 308.045 258.595 309.573C261.016 312.611 263.188 317.841 261.85 326.568C260.511 335.305 254.68 345.971 249.12 354.513C246.349 358.771 243.663 362.476 241.668 365.116Z" fill="#326039" stroke="#263638" stroke-width="1.29733"/>
<mask id="mask10_11_30015" style="mask-type:luminance" maskUnits="userSpaceOnUse" x="238" y="305" width="25" height="65">
<path d="M241.668 365.116C240.842 366.21 240.136 367.121 239.591 367.812C240.096 358.628 243.517 343.766 246.95 330.773C248.789 323.816 250.624 317.42 251.999 312.764C252.686 310.436 253.259 308.544 253.66 307.233C253.831 306.671 253.971 306.216 254.075 305.88C254.346 306.01 254.693 306.193 255.09 306.439C256.078 307.05 257.376 308.045 258.595 309.573C261.016 312.611 263.188 317.841 261.85 326.568C260.511 335.305 254.68 345.971 249.12 354.513C246.349 358.771 243.663 362.476 241.668 365.116Z" fill="white" stroke="white" stroke-width="1.29733"/>
</mask>
<g mask="url(#mask10_11_30015)">
<path opacity="0.16" d="M259.758 312.269C260.009 312.699 260.237 313.117 260.443 313.514C258.623 312.04 256.747 311.233 255.153 310.797C253.974 310.475 252.95 310.356 252.217 310.317C252.166 310.315 252.116 310.312 252.068 310.31L253.977 305.92C256.499 307.452 258.426 309.99 259.758 312.269Z" fill="black" stroke="#263638" stroke-width="1.29733"/>
</g>
<path d="M253.669 305.001C253.669 305.001 239.01 351.705 238.88 369.738C238.88 369.738 259.767 344.44 262.491 326.667C265.216 308.893 253.669 305.001 253.669 305.001Z" stroke="#263638" stroke-width="1.29733" stroke-miterlimit="10" stroke-linecap="round" stroke-linejoin="round"/>
<path d="M410.387 442.777C410.387 442.777 421.155 443.166 428.16 444.204C435.166 445.242 442.301 445.372 442.301 445.372C442.301 445.372 438.409 437.458 434.258 435.253C430.106 433.047 422.582 429.026 416.225 429.934C409.868 430.842 400.917 437.069 401.695 439.145C402.473 441.35 405.976 442.129 410.387 442.777Z" fill="white"/>
<mask id="mask11_11_30015" style="mask-type:luminance" maskUnits="userSpaceOnUse" x="401" y="429" width="42" height="17">
<path d="M410.387 442.777C410.387 442.777 421.155 443.166 428.16 444.204C435.166 445.242 442.301 445.372 442.301 445.372C442.301 445.372 438.409 437.458 434.258 435.253C430.106 433.047 422.582 429.026 416.225 429.934C409.868 430.842 400.917 437.069 401.695 439.145C402.473 441.35 405.976 442.129 410.387 442.777Z" fill="white"/>
</mask>
<g mask="url(#mask11_11_30015)">
<path d="M410.387 442.777C410.387 442.777 421.155 443.166 428.16 444.204C435.166 445.242 442.301 445.372 442.301 445.372C442.301 445.372 438.409 437.458 434.258 435.253C430.106 433.047 422.582 429.026 416.225 429.934C409.868 430.842 400.917 437.069 401.695 439.145C402.473 441.35 405.976 442.129 410.387 442.777Z" fill="#326039"/>
</g>
<mask id="mask12_11_30015" style="mask-type:luminance" maskUnits="userSpaceOnUse" x="401" y="429" width="42" height="17">
<path d="M410.387 442.777C410.387 442.777 421.155 443.166 428.16 444.204C435.166 445.242 442.301 445.372 442.301 445.372C442.301 445.372 438.409 437.458 434.258 435.253C430.106 433.047 422.582 429.026 416.225 429.934C409.868 430.842 400.917 437.069 401.695 439.145C402.473 441.35 405.976 442.129 410.387 442.777Z" fill="white"/>
</mask>
<g mask="url(#mask12_11_30015)">
<path opacity="0.5" d="M410.387 442.777C410.387 442.777 421.155 443.166 428.16 444.204C435.166 445.242 442.301 445.372 442.301 445.372C442.301 445.372 438.409 437.458 434.258 435.253C430.106 433.047 422.582 429.026 416.225 429.934C409.868 430.842 400.917 437.069 401.695 439.145C402.473 441.35 405.976 442.129 410.387 442.777Z" fill="white"/>
</g>
<path d="M410.387 442.777C410.387 442.777 421.155 443.166 428.16 444.204C435.166 445.242 442.301 445.372 442.301 445.372C442.301 445.372 438.409 437.458 434.258 435.253C430.106 433.047 422.582 429.026 416.225 429.934C409.868 430.842 400.917 437.069 401.695 439.145C402.473 441.35 405.976 442.129 410.387 442.777Z" stroke="#263238" stroke-width="1.29733" stroke-miterlimit="10" stroke-linecap="round" stroke-linejoin="round"/>
<path d="M428.29 439.534C428.29 439.534 436.852 435.123 438.928 435.123C441.004 435.123 455.145 444.723 454.496 446.28C453.847 447.837 451.123 448.485 450.085 447.967C448.528 447.188 439.058 443.166 439.058 443.166L432.831 444.594L428.29 439.534Z" fill="white"/>
<mask id="mask13_11_30015" style="mask-type:luminance" maskUnits="userSpaceOnUse" x="428" y="435" width="27" height="14">
<path d="M428.29 439.534C428.29 439.534 436.852 435.123 438.928 435.123C441.004 435.123 455.145 444.723 454.496 446.28C453.847 447.837 451.123 448.485 450.085 447.967C448.528 447.188 439.058 443.166 439.058 443.166L432.831 444.594L428.29 439.534Z" fill="white"/>
</mask>
<g mask="url(#mask13_11_30015)">
<path d="M428.29 439.534C428.29 439.534 436.852 435.123 438.928 435.123C441.004 435.123 455.145 444.723 454.496 446.28C453.847 447.837 450.474 449.004 450.085 447.967C449.696 446.799 439.058 443.166 439.058 443.166L432.831 444.594L428.29 439.534Z" fill="#326039"/>
</g>
<mask id="mask14_11_30015" style="mask-type:luminance" maskUnits="userSpaceOnUse" x="428" y="435" width="27" height="14">
<path d="M428.29 439.534C428.29 439.534 436.852 435.123 438.928 435.123C441.004 435.123 455.145 444.723 454.496 446.28C453.847 447.837 451.123 448.485 450.085 447.967C448.528 447.188 439.058 443.166 439.058 443.166L432.831 444.594L428.29 439.534Z" fill="white"/>
</mask>
<g mask="url(#mask14_11_30015)">
<path opacity="0.5" d="M428.29 439.534C428.29 439.534 436.852 435.123 438.928 435.123C441.004 435.123 455.145 444.723 454.496 446.28C453.847 447.837 450.474 449.004 450.085 447.967C449.696 446.799 439.058 443.166 439.058 443.166L432.831 444.594L428.29 439.534Z" fill="white"/>
</g>
<path d="M428.29 439.534C428.29 439.534 436.852 435.123 438.928 435.123C441.004 435.123 455.145 444.723 454.496 446.28C453.847 447.837 451.123 448.485 450.085 447.967C448.528 447.188 439.058 443.166 439.058 443.166L432.831 444.594L428.29 439.534Z" stroke="#263238" stroke-width="1.29733" stroke-miterlimit="10" stroke-linecap="round" stroke-linejoin="round"/>
<path d="M422.191 432.269C422.191 432.269 433.608 431.88 435.813 433.047C438.019 434.215 448.268 451.729 446.711 452.896C445.154 454.194 441.003 453.805 441.132 452.377C441.262 450.95 431.792 441.61 431.792 441.61L424.397 439.923L422.191 432.269Z" fill="white"/>
<mask id="mask15_11_30015" style="mask-type:luminance" maskUnits="userSpaceOnUse" x="422" y="432" width="25" height="22">
<path d="M422.191 432.269C422.191 432.269 433.608 431.88 435.813 433.047C438.019 434.215 448.268 451.729 446.711 452.896C445.154 454.194 441.003 453.805 441.132 452.377C441.262 450.95 431.792 441.61 431.792 441.61L424.397 439.923L422.191 432.269Z" fill="white"/>
</mask>
<g mask="url(#mask15_11_30015)">
<path d="M422.191 432.269C422.191 432.269 433.608 431.88 435.813 433.047C438.019 434.215 448.268 451.729 446.711 452.896C445.154 454.194 441.003 453.805 441.132 452.377C441.262 450.95 431.792 441.61 431.792 441.61L424.397 439.923L422.191 432.269Z" fill="#326039"/>
</g>
<mask id="mask16_11_30015" style="mask-type:luminance" maskUnits="userSpaceOnUse" x="422" y="432" width="25" height="22">
<path d="M422.191 432.269C422.191 432.269 433.608 431.88 435.813 433.047C438.019 434.215 448.268 451.729 446.711 452.896C445.154 454.194 441.003 453.805 441.132 452.377C441.262 450.95 431.792 441.61 431.792 441.61L424.397 439.923L422.191 432.269Z" fill="white"/>
</mask>
<g mask="url(#mask16_11_30015)">
<path opacity="0.5" d="M422.191 432.269C422.191 432.269 433.608 431.88 435.813 433.047C438.019 434.215 448.268 451.729 446.711 452.896C445.154 454.194 441.003 453.805 441.132 452.377C441.262 450.95 431.792 441.61 431.792 441.61L424.397 439.923L422.191 432.269Z" fill="white"/>
</g>
<path d="M422.191 432.269C422.191 432.269 433.608 431.88 435.813 433.047C438.019 434.215 448.268 451.729 446.711 452.896C445.154 454.194 441.003 453.805 441.132 452.377C441.262 450.95 431.792 441.61 431.792 441.61L424.397 439.923L422.191 432.269Z" stroke="#263238" stroke-width="1.29733" stroke-miterlimit="10" stroke-linecap="round" stroke-linejoin="round"/>
<path d="M415.446 429.934C415.446 429.934 426.992 429.545 429.198 430.712C431.533 431.88 441.782 449.523 440.225 450.821C438.668 452.118 434.387 451.729 434.517 450.302C434.647 448.875 425.046 439.404 425.046 439.404L417.522 437.718L415.446 429.934Z" fill="white"/>
<mask id="mask17_11_30015" style="mask-type:luminance" maskUnits="userSpaceOnUse" x="415" y="429" width="26" height="23">
<path d="M415.446 429.934C415.446 429.934 426.992 429.545 429.198 430.712C431.533 431.88 441.782 449.523 440.225 450.821C438.668 452.118 434.387 451.729 434.517 450.302C434.647 448.875 425.046 439.404 425.046 439.404L417.522 437.718L415.446 429.934Z" fill="white"/>
</mask>
<g mask="url(#mask17_11_30015)">
<path d="M415.446 429.934C415.446 429.934 426.992 429.545 429.198 430.712C431.533 431.88 441.782 449.523 440.225 450.821C438.668 452.118 434.387 451.729 434.517 450.302C434.647 448.875 425.046 439.404 425.046 439.404L417.522 437.718L415.446 429.934Z" fill="#326039"/>
</g>
<mask id="mask18_11_30015" style="mask-type:luminance" maskUnits="userSpaceOnUse" x="415" y="429" width="26" height="23">
<path d="M415.446 429.934C415.446 429.934 426.992 429.545 429.198 430.712C431.533 431.88 441.782 449.523 440.225 450.821C438.668 452.118 434.387 451.729 434.517 450.302C434.647 448.875 425.046 439.404 425.046 439.404L417.522 437.718L415.446 429.934Z" fill="white"/>
</mask>
<g mask="url(#mask18_11_30015)">
<path opacity="0.5" d="M415.446 429.934C415.446 429.934 426.992 429.545 429.198 430.712C431.533 431.88 441.782 449.523 440.225 450.821C438.668 452.118 434.387 451.729 434.517 450.302C434.647 448.875 425.046 439.404 425.046 439.404L417.522 437.718L415.446 429.934Z" fill="white"/>
</g>
<path d="M415.446 429.934C415.446 429.934 426.992 429.545 429.198 430.712C431.533 431.88 441.782 449.523 440.225 450.821C438.668 452.118 434.387 451.729 434.517 450.302C434.647 448.875 425.046 439.404 425.046 439.404L417.522 437.718L415.446 429.934Z" stroke="#263238" stroke-width="1.29733" stroke-miterlimit="10" stroke-linecap="round" stroke-linejoin="round"/>
<path d="M284.675 364.03C292.978 376.873 309.714 409.306 314.643 413.069C322.298 418.777 373.153 432.658 378.083 436.42C383.012 440.183 382.623 444.075 387.294 445.372C391.964 446.799 409.348 450.691 415.965 451.34C422.581 451.988 419.597 447.837 419.597 447.837L408.31 440.053L418.17 437.588C418.17 437.588 428.03 449.523 429.976 450.172C431.922 450.821 435.165 450.172 434.905 448.745C434.516 446.41 424.008 427.209 420.246 426.301C416.483 425.523 393.78 428.636 393.78 428.636C393.78 428.636 346.039 396.463 345.26 395.295C345.26 395.295 342.406 387.252 340.071 383.879C337.736 380.506 336.309 381.544 336.309 381.544C336.309 381.544 337.217 377.262 335.79 375.835C334.363 374.408 328.136 368.181 328.136 368.181L327.876 368.57C326.579 365.976 325.281 362.992 323.854 359.619C319.833 350.278 305.822 323.942 303.357 320.05C301.54 317.196 286.621 315.12 279.097 314.342" fill="#326039"/>
<mask id="mask19_11_30015" style="mask-type:luminance" maskUnits="userSpaceOnUse" x="278" y="314" width="157" height="138">
<path d="M284.501 364.029C292.804 376.873 309.54 409.306 314.47 413.068C322.124 418.776 372.979 432.658 377.909 436.42C382.839 440.182 382.449 444.074 387.12 445.372C391.79 446.799 409.174 450.691 415.791 451.339C422.407 451.988 419.423 447.837 419.423 447.837L408.137 440.053L417.996 437.588C417.996 437.588 427.856 449.523 429.802 450.172C431.748 450.82 434.991 450.172 434.732 448.745C434.342 446.409 423.834 427.209 420.072 426.301C416.31 425.523 393.606 428.636 393.606 428.636C393.606 428.636 345.865 396.462 345.086 395.295C345.086 395.295 342.232 387.251 339.897 383.878C337.562 380.505 336.135 381.543 336.135 381.543C336.135 381.543 337.043 377.262 335.616 375.835C334.189 374.408 327.962 368.181 327.962 368.181L327.702 368.57C326.405 365.975 325.108 362.991 323.681 359.618C319.659 350.278 305.648 323.942 303.183 320.05C301.367 317.196 286.447 315.12 278.923 314.342" fill="white"/>
</mask>
<g mask="url(#mask19_11_30015)">
<path opacity="0.16" d="M317.757 364.808C323.985 370.387 321.909 370.387 320.482 375.187C319.055 379.987 321.52 373.5 327.358 373.76C333.196 374.149 331.509 381.673 330.86 383.1C330.212 384.527 338.126 386.214 336.698 389.327C335.271 392.441 327.358 396.982 322.817 401.393C318.276 405.933 334.623 394.128 340.072 393.738C341.758 393.609 343.185 393.868 344.353 393.868C343.445 391.403 341.369 386.344 339.682 383.879C337.347 380.506 335.92 381.544 335.92 381.544C335.92 381.544 336.828 377.262 335.401 375.835C333.974 374.408 327.747 368.181 327.747 368.181L327.487 368.57C326.19 365.976 324.893 362.992 323.466 359.619C319.444 350.278 305.433 323.942 302.968 320.05C301.152 317.196 286.232 315.12 278.708 314.342L279.357 320.31L279.486 320.439C279.486 320.439 288.827 322.126 291.941 322.515C295.054 322.904 298.817 325.629 298.557 327.704C298.168 329.78 289.216 339.121 291.941 339.77C294.665 340.418 297.779 332.894 300.892 333.932C304.265 335.099 311.53 359.23 317.757 364.808Z" fill="black"/>
</g>
<path d="M284.675 364.03C292.978 376.873 309.714 409.306 314.643 413.069C322.298 418.777 373.153 432.658 378.083 436.42C383.012 440.183 382.623 444.075 387.294 445.372C391.964 446.799 409.348 450.691 415.965 451.34C422.581 451.988 419.597 447.837 419.597 447.837L408.31 440.053L418.17 437.588C418.17 437.588 428.03 449.523 429.976 450.172C431.922 450.821 435.165 450.172 434.905 448.745C434.516 446.41 424.008 427.209 420.246 426.301C416.483 425.523 393.78 428.636 393.78 428.636C393.78 428.636 346.039 396.463 345.26 395.295C345.26 395.295 342.406 387.252 340.071 383.879C337.736 380.506 336.309 381.544 336.309 381.544C336.309 381.544 337.217 377.262 335.79 375.835C334.363 374.408 328.136 368.181 328.136 368.181L327.876 368.57C326.579 365.976 325.281 362.992 323.854 359.619C319.833 350.278 305.822 323.942 303.357 320.05C301.54 317.196 286.621 315.12 279.097 314.342" stroke="#263238" stroke-width="1.29733" stroke-miterlimit="10" stroke-linecap="round" stroke-linejoin="round"/>
<path d="M284.806 346.386C284.416 347.554 284.157 348.721 283.897 349.889" stroke="#263238" stroke-width="1.29733" stroke-miterlimit="10" stroke-linecap="round" stroke-linejoin="round"/>
<path d="M297.389 324.85C297.389 324.85 291.292 331.467 287.141 340.289" stroke="#263238" stroke-width="1.29733" stroke-miterlimit="10" stroke-linecap="round" stroke-linejoin="round"/>
<path d="M316.46 398.539C319.963 393.349 325.541 386.733 331.639 384.917" stroke="#263238" stroke-width="1.29733" stroke-miterlimit="10" stroke-linecap="round" stroke-linejoin="round"/>
<path d="M312.568 404.895C312.568 404.895 313.217 403.728 314.255 401.782" stroke="#263238" stroke-width="1.29733" stroke-miterlimit="10" stroke-linecap="round" stroke-linejoin="round"/>
<path d="M312.568 396.722C312.568 396.722 318.925 380.765 325.282 376.743C331.639 372.592 328.007 380.895 328.007 380.895" stroke="#263238" stroke-width="1.29733" stroke-miterlimit="10" stroke-linecap="round" stroke-linejoin="round"/>
<path d="M377.953 436.291C382.883 440.053 382.494 443.945 387.164 445.242C391.834 446.669 409.218 450.561 415.835 451.21C422.451 451.859 419.467 447.707 419.467 447.707L408.181 439.923L418.04 437.458C418.04 437.458 427.9 449.394 429.846 450.042C431.792 450.691 435.165 450.95 434.776 448.615C433.868 444.075 423.878 427.08 420.116 426.172C416.354 425.393 393.651 428.507 393.651 428.507C393.651 428.507 350.19 398.668 345.39 395.425C326.968 397.241 318.146 406.841 314.514 412.679L314.643 412.809C322.168 418.647 373.153 432.528 377.953 436.291Z" fill="white"/>
<mask id="mask20_11_30015" style="mask-type:luminance" maskUnits="userSpaceOnUse" x="314" y="395" width="121" height="57">
<path d="M377.953 436.291C382.883 440.053 382.494 443.945 387.164 445.242C391.834 446.669 409.218 450.561 415.835 451.21C422.451 451.859 419.467 447.707 419.467 447.707L408.181 439.923L418.04 437.458C418.04 437.458 427.9 449.394 429.846 450.042C431.792 450.691 435.165 450.95 434.776 448.615C433.868 444.075 423.878 427.08 420.116 426.172C416.354 425.393 393.651 428.507 393.651 428.507C393.651 428.507 350.19 398.668 345.39 395.425C326.968 397.241 318.146 406.841 314.514 412.679L314.643 412.809C322.168 418.647 373.153 432.528 377.953 436.291Z" fill="white"/>
</mask>
<g mask="url(#mask20_11_30015)">
<path d="M434.776 448.745C432.44 442.907 423.878 427.209 420.116 426.301C416.354 425.523 393.65 428.636 393.65 428.636C393.65 428.636 350.19 398.798 345.39 395.555C339.811 396.074 335.141 397.371 331.249 398.928C338.125 402.82 383.92 428.766 389.629 429.934C395.726 431.231 416.224 427.858 419.727 430.323C422.062 431.88 428.808 442.648 433.349 450.302C434.776 450.172 435.295 449.913 434.776 448.745Z" fill="#326039"/>
</g>
<mask id="mask21_11_30015" style="mask-type:luminance" maskUnits="userSpaceOnUse" x="314" y="395" width="121" height="57">
<path d="M377.953 436.291C382.883 440.053 382.494 443.945 387.164 445.242C391.834 446.669 409.218 450.561 415.835 451.21C422.451 451.859 419.467 447.707 419.467 447.707L408.181 439.923L418.04 437.458C418.04 437.458 427.9 449.394 429.846 450.042C431.792 450.691 435.165 450.95 434.776 448.615C433.868 444.075 423.878 427.08 420.116 426.172C416.354 425.393 393.651 428.507 393.651 428.507C393.651 428.507 350.19 398.668 345.39 395.425C326.968 397.241 318.146 406.841 314.514 412.679L314.643 412.809C322.168 418.647 373.153 432.528 377.953 436.291Z" fill="white"/>
</mask>
<g mask="url(#mask21_11_30015)">
<path opacity="0.5" d="M434.776 448.745C431.143 440.442 423.878 427.209 420.116 426.301C416.354 425.523 393.65 428.636 393.65 428.636C393.65 428.636 350.19 398.798 345.39 395.555C339.811 396.074 335.141 397.371 331.249 398.928C338.125 402.82 383.92 428.766 389.629 429.934C395.726 431.231 416.224 427.858 419.727 430.323C422.062 431.88 428.808 442.648 433.349 450.302C434.776 450.172 435.295 449.913 434.776 448.745Z" fill="white"/>
</g>
<path d="M377.953 436.291C382.883 440.053 382.494 443.945 387.164 445.242C391.834 446.669 409.218 450.561 415.835 451.21C422.451 451.859 419.467 447.707 419.467 447.707L408.181 439.923L418.04 437.458C418.04 437.458 427.9 449.394 429.846 450.042C431.792 450.691 435.165 450.95 434.776 448.615C433.868 444.075 423.878 427.08 420.116 426.172C416.354 425.393 393.651 428.507 393.651 428.507C393.651 428.507 350.19 398.668 345.39 395.425C326.968 397.241 318.146 406.841 314.514 412.679L314.643 412.809C322.168 418.647 373.153 432.528 377.953 436.291Z" stroke="#263238" stroke-width="1.29733" stroke-miterlimit="10" stroke-linecap="round" stroke-linejoin="round"/>
<path d="M263.27 209.778L224.22 226.124C224.22 226.124 223.831 236.243 219.161 245.973C214.491 255.703 217.215 274.255 221.626 284.244C226.037 294.233 245.626 290.341 252.762 289.044C259.897 287.747 266.902 284.893 266.902 284.893C266.902 284.893 273.259 287.747 279.616 283.076C279.746 283.206 258.859 224.437 263.27 209.778Z" fill="white"/>
<mask id="mask22_11_30015" style="mask-type:luminance" maskUnits="userSpaceOnUse" x="216" y="209" width="64" height="82">
<path d="M263.27 209.778L224.22 226.124C224.22 226.124 223.831 236.243 219.161 245.973C214.491 255.703 217.215 274.255 221.626 284.244C226.037 294.233 245.626 290.341 252.762 289.044C259.897 287.747 266.902 284.893 266.902 284.893C266.902 284.893 273.259 287.747 279.616 283.076C279.746 283.206 258.859 224.437 263.27 209.778Z" fill="white"/>
</mask>
<g mask="url(#mask22_11_30015)">
<path d="M263.27 209.778L224.22 226.124C224.22 226.124 223.831 236.243 219.161 245.973C214.491 255.703 217.215 274.255 221.626 284.244C222.404 285.931 223.572 287.228 225.129 288.136V287.358C225.129 287.358 217.864 269.325 219.291 259.076C220.718 248.697 226.556 243.508 227.204 237.021C227.853 230.405 227.594 227.291 240.696 222.491C253.799 217.691 259.378 213.151 260.675 217.951C262.102 222.751 267.551 254.535 271.443 262.189C275.205 269.844 274.946 277.757 268.978 281.13C264.308 283.855 257.043 287.617 250.037 289.433C251.075 289.304 251.983 289.044 252.762 288.914C259.897 287.617 266.902 284.763 266.902 284.763C266.902 284.763 273.259 287.617 279.616 282.947C279.746 283.206 258.859 224.437 263.27 209.778Z" fill="#326039"/>
</g>
<mask id="mask23_11_30015" style="mask-type:luminance" maskUnits="userSpaceOnUse" x="216" y="209" width="64" height="82">
<path d="M263.27 209.778L224.22 226.124C224.22 226.124 223.831 236.243 219.161 245.973C214.491 255.703 217.215 274.255 221.626 284.244C226.037 294.233 245.626 290.341 252.762 289.044C259.897 287.747 266.902 284.893 266.902 284.893C266.902 284.893 273.259 287.747 279.616 283.076C279.746 283.206 258.859 224.437 263.27 209.778Z" fill="white"/>
</mask>
<g mask="url(#mask23_11_30015)">
<path opacity="0.5" d="M263.27 209.778L224.22 226.124C224.22 226.124 223.831 236.243 219.161 245.973C214.491 255.703 217.215 274.255 221.626 284.244C222.404 285.931 223.572 287.228 225.129 288.136V287.358C225.129 287.358 217.864 269.325 219.291 259.076C220.718 248.697 226.556 243.508 227.204 237.021C227.853 230.405 227.594 227.291 240.696 222.491C253.799 217.691 259.378 213.151 260.675 217.951C262.102 222.751 267.551 254.535 271.443 262.189C275.205 269.844 274.946 277.757 268.978 281.13C264.308 283.855 257.043 287.617 250.037 289.433C251.075 289.304 251.983 289.044 252.762 288.914C259.897 287.617 266.902 284.763 266.902 284.763C266.902 284.763 273.259 287.617 279.616 282.947C279.746 283.206 258.859 224.437 263.27 209.778Z" fill="white"/>
</g>
<path d="M263.27 209.778L224.22 226.124C224.22 226.124 223.831 236.243 219.161 245.973C214.491 255.703 217.215 274.255 221.626 284.244C226.037 294.233 245.626 290.341 252.762 289.044C259.897 287.747 266.902 284.893 266.902 284.893C266.902 284.893 273.259 287.747 279.616 283.076C279.746 283.206 258.859 224.437 263.27 209.778Z" stroke="#263238" stroke-width="1.29733" stroke-miterlimit="10" stroke-linecap="round" stroke-linejoin="round"/>
<path d="M243.551 235.335C243.551 235.335 243.81 239.486 242.772 242.081C241.735 244.676 231.875 254.925 232.264 255.962C232.524 257 233.432 260.633 235.118 260.892" stroke="#263238" stroke-width="1.29733" stroke-miterlimit="10" stroke-linecap="round" stroke-linejoin="round"/>
<path d="M254.448 244.546C255.875 241.822 260.286 244.546 260.286 250.643" stroke="#263238" stroke-width="1.29733" stroke-miterlimit="10" stroke-linecap="round" stroke-linejoin="round"/>
<path d="M232.264 236.503C232.264 236.503 236.026 234.816 239.529 241.043" stroke="#263238" stroke-width="1.29733" stroke-miterlimit="10" stroke-linecap="round" stroke-linejoin="round"/>
<path d="M248.999 253.497C248.999 253.497 255.486 253.497 260.805 258.427" stroke="#263238" stroke-width="0.648663" stroke-miterlimit="10" stroke-linecap="round" stroke-linejoin="round"/>
<path d="M227.723 245.324C227.723 245.324 232.004 245.973 234.339 247.141" stroke="#263238" stroke-width="0.648663" stroke-miterlimit="10" stroke-linecap="round" stroke-linejoin="round"/>
<path d="M243.162 229.627C243.162 229.627 240.048 227.81 236.545 229.497C233.043 231.183 230.967 233 231.097 230.924C231.356 228.719 235.378 226.383 236.675 226.124C237.972 225.735 243.551 224.827 243.162 229.627Z" fill="#263238"/>
<path d="M252.891 224.827C252.891 224.827 258.729 229.367 261.323 235.854C263.918 242.34 265.994 235.205 263.918 231.054C261.842 226.643 256.004 222.232 252.891 224.827Z" fill="#263238"/>
<path d="M280.264 294.233C280.264 297.217 278.577 299.682 276.501 299.682C274.426 299.682 272.739 297.217 272.739 294.233C272.739 291.25 274.426 283.466 276.501 283.466C278.577 283.466 280.264 291.25 280.264 294.233Z" fill="#326039" stroke="#263238" stroke-width="1.29733" stroke-miterlimit="10" stroke-linecap="round" stroke-linejoin="round"/>
<path d="M254.837 243.378C254.707 243.768 254.578 244.157 254.448 244.546C254.059 246.492 253.669 250.514 254.578 250.643C255.356 250.773 257.172 247.011 257.432 245.195C257.561 244.805 257.561 244.416 257.561 244.027C256.653 243.638 255.615 243.508 254.837 243.378Z" fill="#263238"/>
<path d="M232.653 236.113C232.523 236.373 232.393 236.762 232.393 237.151C232.004 239.097 232.004 243.249 232.783 243.508C233.561 243.638 234.988 239.746 235.247 237.8C235.377 237.281 235.377 236.762 235.377 236.373C234.469 236.113 233.431 235.984 232.653 236.113Z" fill="#263238"/>
<path d="M254.448 244.546L255.746 242.081C255.746 242.081 259.119 242.6 261.065 245.195" stroke="#263238" stroke-width="0.972994" stroke-miterlimit="10" stroke-linecap="round" stroke-linejoin="round"/>
<path d="M232.652 236.113L233.95 234.556C233.95 234.556 234.469 234.297 237.582 235.724" stroke="#263238" stroke-width="0.972994" stroke-miterlimit="10" stroke-linecap="round" stroke-linejoin="round"/>
<path d="M227.723 271.271C227.723 271.271 229.928 267.249 232.782 267.249C235.636 267.249 237.842 273.865 237.842 273.865" stroke="#263238" stroke-width="1.29733" stroke-miterlimit="10" stroke-linecap="round" stroke-linejoin="round"/>
<path d="M133.797 444.204C130.554 444.204 126.921 442.777 125.624 442.258C124.197 441.61 123.548 439.923 124.197 438.496C124.845 437.069 126.532 436.42 127.959 437.069C130.554 438.237 133.927 438.885 134.835 438.496C136.521 436.68 138.986 425.523 135.743 420.204C134.964 419.036 134.316 418.777 133.927 418.777C132.11 418.517 129.256 420.463 128.348 421.371C127.18 422.409 125.364 422.409 124.326 421.242C123.289 420.074 123.289 418.258 124.456 417.22C124.975 416.701 129.645 412.55 134.705 413.198C136.391 413.458 138.856 414.366 140.673 417.35C145.473 425.134 142.229 440.183 138.467 443.037C137.04 443.815 135.483 444.204 133.797 444.204Z" fill="white"/>
<mask id="mask24_11_30015" style="mask-type:luminance" maskUnits="userSpaceOnUse" x="123" y="413" width="21" height="32">
<path d="M133.797 444.204C130.554 444.204 126.921 442.777 125.624 442.258C124.197 441.61 123.548 439.923 124.197 438.496C124.845 437.069 126.532 436.42 127.959 437.069C130.554 438.237 133.927 438.885 134.835 438.496C136.521 436.68 138.986 425.523 135.743 420.204C134.964 419.036 134.316 418.777 133.927 418.777C132.11 418.517 129.256 420.463 128.348 421.371C127.18 422.409 125.364 422.409 124.326 421.242C123.289 420.074 123.289 418.258 124.456 417.22C124.975 416.701 129.645 412.55 134.705 413.198C136.391 413.458 138.856 414.366 140.673 417.35C145.473 425.134 142.229 440.183 138.467 443.037C137.04 443.815 135.483 444.204 133.797 444.204Z" fill="white"/>
</mask>
<g mask="url(#mask24_11_30015)">
<path d="M137.559 419.296C136.391 416.96 134.834 416.312 133.667 416.182C130.423 415.663 127.44 418.906 127.05 419.296C126.402 420.074 126.272 421.112 126.791 422.02C127.31 421.89 127.699 421.631 128.218 421.371C129.256 420.463 131.98 418.517 133.796 418.777C134.315 418.777 134.964 419.036 135.613 420.204C138.856 425.523 136.391 436.68 134.705 438.496C133.796 438.885 130.423 438.237 127.829 437.069C127.44 436.939 127.18 436.81 126.791 436.81C126.921 437.588 127.31 438.237 127.829 438.496C128.737 438.885 131.072 440.053 133.148 440.053C134.186 440.053 135.224 439.793 136.002 439.015C138.597 436.81 140.802 425.263 137.559 419.296Z" fill="#E7F9AB"/>
</g>
<mask id="mask25_11_30015" style="mask-type:luminance" maskUnits="userSpaceOnUse" x="123" y="413" width="21" height="32">
<path d="M133.797 444.204C130.554 444.204 126.921 442.777 125.624 442.258C124.197 441.61 123.548 439.923 124.197 438.496C124.845 437.069 126.532 436.42 127.959 437.069C130.554 438.237 133.927 438.885 134.835 438.496C136.521 436.68 138.986 425.523 135.743 420.204C134.964 419.036 134.316 418.777 133.927 418.777C132.11 418.517 129.256 420.463 128.348 421.371C127.18 422.409 125.364 422.409 124.326 421.242C123.289 420.074 123.289 418.258 124.456 417.22C124.975 416.701 129.645 412.55 134.705 413.198C136.391 413.458 138.856 414.366 140.673 417.35C145.473 425.134 142.229 440.183 138.467 443.037C137.04 443.815 135.483 444.204 133.797 444.204Z" fill="white"/>
</mask>
<g mask="url(#mask25_11_30015)">
<path opacity="0.5" d="M137.559 419.296C136.391 416.96 134.834 416.312 133.667 416.182C130.423 415.663 127.44 418.906 127.05 419.296C126.402 420.074 126.272 421.112 126.791 422.02C127.31 421.89 127.699 421.631 128.218 421.371C129.256 420.463 131.98 418.517 133.796 418.777C134.315 418.777 134.964 419.036 135.613 420.204C138.856 425.523 136.391 436.68 134.705 438.496C133.796 438.885 130.423 438.237 127.829 437.069C127.44 436.939 127.18 436.81 126.791 436.81C126.921 437.588 127.31 438.237 127.829 438.496C128.737 438.885 131.072 440.053 133.148 440.053C134.186 440.053 135.224 439.793 136.002 439.015C138.597 436.81 140.802 425.263 137.559 419.296Z" fill="white"/>
</g>
<path d="M133.797 444.204C130.554 444.204 126.921 442.777 125.624 442.258C124.197 441.61 123.548 439.923 124.197 438.496C124.845 437.069 126.532 436.42 127.959 437.069C130.554 438.237 133.927 438.885 134.835 438.496C136.521 436.68 138.986 425.523 135.743 420.204C134.964 419.036 134.316 418.777 133.927 418.777C132.11 418.517 129.256 420.463 128.348 421.371C127.18 422.409 125.364 422.409 124.326 421.242C123.289 420.074 123.289 418.258 124.456 417.22C124.975 416.701 129.645 412.55 134.705 413.198C136.391 413.458 138.856 414.366 140.673 417.35C145.473 425.134 142.229 440.183 138.467 443.037C137.04 443.815 135.483 444.204 133.797 444.204Z" stroke="#263238" stroke-width="1.29733" stroke-miterlimit="10" stroke-linecap="round" stroke-linejoin="round"/>
<path d="M128.866 410.733H97.6006V452.118H128.866V410.733Z" fill="white"/>
<mask id="mask26_11_30015" style="mask-type:luminance" maskUnits="userSpaceOnUse" x="97" y="410" width="32" height="43">
<path d="M128.866 410.733H97.6006V452.118H128.866V410.733Z" fill="white"/>
</mask>
<g mask="url(#mask26_11_30015)">
<path d="M110.444 410.733H97.6006V452.118H110.444V410.733Z" fill="#E7F9AB"/>
</g>
<mask id="mask27_11_30015" style="mask-type:luminance" maskUnits="userSpaceOnUse" x="97" y="410" width="32" height="43">
<path d="M128.866 410.733H97.6006V452.118H128.866V410.733Z" fill="white"/>
</mask>
<g mask="url(#mask27_11_30015)">
<path opacity="0.5" d="M110.444 410.733H97.6006V452.118H110.444V410.733Z" fill="white"/>
</g>
<path d="M128.866 410.733H97.6006V452.118H128.866V410.733Z" stroke="#263238" stroke-width="1.29733" stroke-miterlimit="10" stroke-linecap="round" stroke-linejoin="round"/>
<path d="M300.244 451.599H167.009L162.598 378.3C162.079 375.316 164.414 372.462 167.528 372.462H299.725C302.839 372.462 305.174 375.187 304.655 378.3L300.244 451.599Z" fill="#263238" stroke="#263238" stroke-width="1.29733" stroke-miterlimit="10" stroke-linecap="round" stroke-linejoin="round"/>
<path d="M173.625 374.278H298.817C301.801 374.278 304.136 377.003 303.617 379.857" stroke="white" stroke-width="1.29733" stroke-miterlimit="10" stroke-linecap="round" stroke-linejoin="round"/>
<path d="M163.636 378.689C163.765 376.224 165.841 374.278 168.566 374.278" stroke="white" stroke-width="1.29733" stroke-miterlimit="10" stroke-linecap="round" stroke-linejoin="round"/>
<path d="M300.892 444.464H166.489V451.599H300.892V444.464Z" fill="white" stroke="#263238" stroke-width="1.29733" stroke-miterlimit="10" stroke-linecap="round" stroke-linejoin="round"/>
<path d="M233.173 417.998C238.403 417.998 242.643 415.443 242.643 412.29C242.643 409.138 238.403 406.582 233.173 406.582C227.942 406.582 223.702 409.138 223.702 412.29C223.702 415.443 227.942 417.998 233.173 417.998Z" fill="white" stroke="#263238" stroke-width="1.29733" stroke-miterlimit="10" stroke-linecap="round" stroke-linejoin="round"/>
<path d="M503.664 450.691H3.02637V462.886H503.664V450.691Z" fill="#263238"/>
<path d="M373.802 167.614H132.888C124.715 167.614 118.229 160.998 118.229 152.955V14.6598C118.229 6.48663 124.845 0 132.888 0H373.802C381.975 0 388.461 6.61636 388.461 14.6598V152.825C388.461 160.998 381.845 167.614 373.802 167.614Z" fill="#326039"/>
<path d="M259.778 96.373C281.636 92.8594 296.508 72.2913 292.994 50.4328C289.48 28.5744 268.912 13.7029 247.054 17.2164C225.195 20.73 210.324 41.2981 213.837 63.1566C217.351 85.015 237.919 99.8865 259.778 96.373Z" fill="#E7F9AB"/>
<path d="M253.021 64.2176L239.659 81.3423C238.491 82.8991 237.064 83.6775 235.378 83.6775C234.21 83.6775 233.172 83.2883 232.264 82.3802C231.356 81.6018 230.967 80.5639 230.967 79.2666C230.967 78.099 231.356 76.9314 232.264 75.7638L247.443 56.9526L233.172 38.1414C232.524 37.2333 232.134 36.1954 232.134 35.0278C232.134 33.7305 232.653 32.5629 233.691 31.525C234.729 30.4872 235.897 29.9682 237.194 29.9682C238.751 29.9682 240.178 30.7466 241.345 32.3034L254.189 49.2984L267.162 32.5629C268.46 30.7466 269.887 29.8385 271.573 29.8385C272.741 29.8385 273.779 30.2277 274.557 31.1358C275.335 32.044 275.854 32.9521 275.854 34.1197C275.854 35.0278 275.465 35.9359 274.816 36.8441L259.508 56.4337L274.297 75.8936C275.076 76.9314 275.465 77.8396 275.465 79.0071C275.465 80.3045 274.946 81.4721 273.908 82.3802C272.87 83.2883 271.703 83.8073 270.405 83.8073C268.719 83.8073 267.292 83.0289 266.254 81.4721L253.021 64.2176Z" fill="#326039"/>
<path d="M329.692 138.554H176.997C170.511 138.554 165.321 133.365 165.321 126.878C165.321 120.392 170.511 115.203 176.997 115.203H329.692C336.179 115.203 341.368 120.392 341.368 126.878C341.368 133.365 336.179 138.554 329.692 138.554Z" fill="white"/>
<path d="M197.885 130.641C197.625 130.641 197.495 130.511 197.366 130.381C197.236 130.252 197.106 129.992 197.106 129.862C197.106 129.733 197.106 129.473 197.236 129.343L198.403 127.527L196.068 127.657C195.809 127.657 195.549 127.527 195.42 127.397C195.29 127.268 195.16 127.008 195.16 126.879C195.16 126.619 195.29 126.489 195.42 126.36C195.549 126.23 195.809 126.1 196.068 126.1L198.403 126.23L197.366 124.543C197.236 124.284 197.236 124.154 197.236 124.024C197.236 123.765 197.366 123.635 197.495 123.376C197.625 123.246 197.885 123.116 198.014 123.116C198.274 123.116 198.533 123.246 198.663 123.505L199.831 125.581L200.868 123.635C201.128 123.246 201.387 123.116 201.647 123.116C201.906 123.116 202.036 123.246 202.166 123.376C202.295 123.505 202.425 123.765 202.425 123.895C202.425 124.024 202.425 124.284 202.295 124.414L201.128 126.23L203.463 126.1C203.722 126.1 203.982 126.23 204.112 126.36C204.241 126.489 204.371 126.749 204.371 126.879C204.371 127.138 204.241 127.268 204.112 127.397C203.982 127.527 203.722 127.657 203.463 127.657L200.998 127.527L202.036 129.214C202.166 129.473 202.295 129.603 202.295 129.862C202.295 130.122 202.166 130.252 202.036 130.381C201.906 130.511 201.647 130.641 201.517 130.641C201.258 130.641 200.998 130.511 200.739 130.122L199.701 128.176L198.663 130.122C198.533 130.511 198.274 130.641 197.885 130.641Z" fill="black"/>
<path d="M209.82 130.641C209.561 130.641 209.431 130.511 209.301 130.381C209.171 130.252 209.042 129.992 209.042 129.862C209.042 129.733 209.042 129.473 209.171 129.343L210.339 127.527L208.004 127.657C207.744 127.657 207.485 127.527 207.355 127.397C207.225 127.268 207.096 127.008 207.096 126.879C207.096 126.619 207.225 126.489 207.355 126.36C207.485 126.23 207.744 126.1 208.004 126.1L210.339 126.23L209.301 124.543C209.171 124.284 209.171 124.154 209.171 124.024C209.171 123.765 209.301 123.635 209.431 123.376C209.561 123.246 209.82 123.116 209.95 123.116C210.209 123.116 210.469 123.246 210.598 123.505L211.766 125.581L212.804 123.635C213.063 123.246 213.323 123.116 213.582 123.116C213.842 123.116 213.972 123.246 214.101 123.376C214.231 123.505 214.361 123.765 214.361 123.895C214.361 124.024 214.361 124.284 214.231 124.414L213.063 126.23L215.399 126.1C215.658 126.1 215.918 126.23 216.047 126.36C216.177 126.489 216.307 126.749 216.307 126.879C216.307 127.138 216.177 127.268 216.047 127.397C215.918 127.527 215.658 127.657 215.399 127.657L212.934 127.527L213.972 129.214C214.101 129.473 214.231 129.603 214.231 129.862C214.231 130.122 214.101 130.252 213.972 130.381C213.842 130.511 213.582 130.641 213.453 130.641C213.193 130.641 212.934 130.511 212.674 130.122L211.636 128.176L210.598 130.122C210.339 130.511 210.08 130.641 209.82 130.641Z" fill="black"/>
<path d="M221.756 130.641C221.496 130.641 221.366 130.511 221.237 130.381C221.107 130.252 220.977 129.992 220.977 129.862C220.977 129.733 220.977 129.473 221.107 129.343L222.275 127.527L219.939 127.657C219.68 127.657 219.42 127.527 219.291 127.397C219.161 127.268 219.031 127.008 219.031 126.879C219.031 126.619 219.161 126.489 219.291 126.36C219.42 126.23 219.68 126.1 219.939 126.1L222.275 126.23L221.237 124.543C221.107 124.284 221.107 124.154 221.107 124.024C221.107 123.765 221.237 123.635 221.366 123.376C221.496 123.246 221.756 123.116 221.885 123.116C222.145 123.116 222.404 123.246 222.534 123.505L223.702 125.581L224.739 123.635C224.999 123.246 225.258 123.116 225.518 123.116C225.777 123.116 225.907 123.246 226.037 123.376C226.167 123.505 226.296 123.765 226.296 123.895C226.296 124.024 226.296 124.284 226.167 124.414L224.999 126.23L227.334 126.1C227.594 126.1 227.853 126.23 227.983 126.36C228.113 126.489 228.242 126.749 228.242 126.879C228.242 127.138 228.113 127.268 227.983 127.397C227.853 127.527 227.594 127.657 227.334 127.657L224.869 127.527L225.907 129.214C226.037 129.473 226.167 129.603 226.167 129.862C226.167 130.122 226.037 130.252 225.907 130.381C225.777 130.511 225.518 130.641 225.388 130.641C225.129 130.641 224.869 130.511 224.61 130.122L223.572 128.176L222.534 130.122C222.275 130.511 222.015 130.641 221.756 130.641Z" fill="black"/>
<path d="M233.691 130.641C233.432 130.641 233.302 130.511 233.172 130.381C233.043 130.252 232.913 129.992 232.913 129.862C232.913 129.733 232.913 129.473 233.043 129.343L234.21 127.527L231.875 127.657C231.615 127.657 231.356 127.527 231.226 127.397C231.097 127.268 230.967 127.008 230.967 126.879C230.967 126.619 231.097 126.489 231.226 126.36C231.356 126.23 231.615 126.1 231.875 126.1L234.21 126.23L233.172 124.543C233.043 124.284 233.043 124.154 233.043 124.024C233.043 123.765 233.172 123.635 233.302 123.376C233.432 123.246 233.691 123.116 233.821 123.116C234.08 123.116 234.34 123.246 234.47 123.505L235.637 125.581L236.675 123.635C236.935 123.246 237.194 123.116 237.453 123.116C237.713 123.116 237.843 123.246 237.972 123.376C238.102 123.505 238.232 123.765 238.232 123.895C238.232 124.024 238.232 124.284 238.102 124.414L236.935 126.23L239.27 126.1C239.529 126.1 239.789 126.23 239.918 126.36C240.048 126.489 240.178 126.749 240.178 126.879C240.178 127.138 240.048 127.268 239.918 127.397C239.789 127.527 239.529 127.657 239.27 127.657L236.805 127.527L237.843 129.214C237.972 129.473 238.102 129.603 238.102 129.862C238.102 130.122 237.972 130.252 237.843 130.381C237.713 130.511 237.453 130.641 237.324 130.641C237.064 130.641 236.805 130.511 236.545 130.122L235.507 128.176L234.47 130.122C234.21 130.511 233.951 130.641 233.691 130.641Z" fill="black"/>
<path d="M245.497 130.641C245.237 130.641 245.108 130.511 244.978 130.381C244.848 130.252 244.718 129.992 244.718 129.862C244.718 129.733 244.718 129.473 244.848 129.343L246.016 127.527L243.681 127.657C243.421 127.657 243.162 127.527 243.032 127.397C242.902 127.268 242.772 127.008 242.772 126.879C242.772 126.619 242.902 126.489 243.032 126.36C243.162 126.23 243.421 126.1 243.681 126.1L246.016 126.23L244.978 124.543C244.848 124.284 244.848 124.154 244.848 124.024C244.848 123.765 244.978 123.635 245.108 123.376C245.237 123.246 245.497 123.116 245.627 123.116C245.886 123.116 246.146 123.246 246.275 123.505L247.443 125.581L248.481 123.635C248.74 123.246 249 123.116 249.259 123.116C249.519 123.116 249.648 123.246 249.778 123.376C249.908 123.505 250.037 123.765 250.037 123.895C250.037 124.024 250.037 124.284 249.908 124.414L248.74 126.23L251.075 126.1C251.335 126.1 251.594 126.23 251.724 126.36C251.854 126.489 251.983 126.749 251.983 126.879C251.983 127.138 251.854 127.268 251.724 127.397C251.594 127.527 251.335 127.657 251.075 127.657L248.61 127.527L249.648 129.214C249.778 129.473 249.908 129.603 249.908 129.862C249.908 130.122 249.778 130.252 249.648 130.381C249.519 130.511 249.259 130.641 249.129 130.641C248.87 130.641 248.61 130.511 248.351 130.122L247.313 128.176L246.275 130.122C246.146 130.511 245.886 130.641 245.497 130.641Z" fill="black"/>
<path d="M257.431 130.641C257.172 130.641 257.042 130.511 256.912 130.381C256.783 130.252 256.653 129.992 256.653 129.862C256.653 129.733 256.653 129.473 256.783 129.343L257.95 127.527L255.615 127.657C255.356 127.657 255.096 127.527 254.966 127.397C254.837 127.268 254.707 127.008 254.707 126.879C254.707 126.619 254.837 126.489 254.966 126.36C255.096 126.23 255.356 126.1 255.615 126.1L257.95 126.23L256.912 124.543C256.783 124.284 256.783 124.154 256.783 124.024C256.783 123.765 256.912 123.635 257.042 123.376C257.172 123.246 257.431 123.116 257.561 123.116C257.821 123.116 258.08 123.246 258.21 123.505L259.377 125.581L260.415 123.635C260.675 123.246 260.934 123.116 261.194 123.116C261.453 123.116 261.583 123.246 261.713 123.376C261.842 123.505 261.972 123.765 261.972 123.895C261.972 124.024 261.972 124.284 261.842 124.414L260.675 126.23L263.01 126.1C263.269 126.1 263.529 126.23 263.659 126.36C263.788 126.489 263.918 126.749 263.918 126.879C263.918 127.138 263.788 127.268 263.659 127.397C263.529 127.527 263.269 127.657 263.01 127.657L260.545 127.527L261.583 129.214C261.713 129.473 261.842 129.603 261.842 129.862C261.842 130.122 261.713 130.252 261.583 130.381C261.453 130.511 261.194 130.641 261.064 130.641C260.804 130.641 260.545 130.511 260.286 130.122L259.248 128.176L258.21 130.122C258.08 130.511 257.821 130.641 257.431 130.641Z" fill="black"/>
<path d="M269.367 130.641C269.108 130.641 268.978 130.511 268.848 130.381C268.718 130.252 268.589 129.992 268.589 129.862C268.589 129.733 268.589 129.473 268.718 129.343L269.886 127.527L267.551 127.657C267.291 127.657 267.032 127.527 266.902 127.397C266.772 127.268 266.643 127.008 266.643 126.879C266.643 126.619 266.772 126.489 266.902 126.36C267.032 126.23 267.291 126.1 267.551 126.1L269.886 126.23L268.848 124.543C268.718 124.284 268.718 124.154 268.718 124.024C268.718 123.765 268.848 123.635 268.978 123.376C269.108 123.246 269.367 123.116 269.497 123.116C269.756 123.116 270.016 123.246 270.145 123.505L271.313 125.581L272.351 123.635C272.61 123.246 272.87 123.116 273.129 123.116C273.389 123.116 273.518 123.246 273.648 123.376C273.778 123.505 273.908 123.765 273.908 123.895C273.908 124.024 273.908 124.284 273.778 124.414L272.61 126.23L274.945 126.1C275.205 126.1 275.464 126.23 275.594 126.36C275.724 126.489 275.854 126.749 275.854 126.879C275.854 127.138 275.724 127.268 275.594 127.397C275.464 127.527 275.205 127.657 274.945 127.657L272.481 127.527L273.518 129.214C273.648 129.473 273.778 129.603 273.778 129.862C273.778 130.122 273.648 130.252 273.518 130.381C273.389 130.511 273.129 130.641 272.999 130.641C272.74 130.641 272.481 130.511 272.221 130.122L271.183 128.176L270.145 130.122C269.886 130.511 269.626 130.641 269.367 130.641Z" fill="black"/>
<path d="M281.303 130.641C281.043 130.641 280.913 130.511 280.784 130.381C280.654 130.252 280.524 129.992 280.524 129.862C280.524 129.733 280.524 129.473 280.654 129.343L281.821 127.527L279.486 127.657C279.227 127.657 278.967 127.527 278.838 127.397C278.708 127.268 278.578 127.008 278.578 126.879C278.578 126.619 278.708 126.489 278.838 126.36C278.967 126.23 279.227 126.1 279.486 126.1L281.821 126.23L280.784 124.543C280.654 124.284 280.654 124.154 280.654 124.024C280.654 123.765 280.784 123.635 280.913 123.376C281.043 123.246 281.302 123.116 281.432 123.116C281.692 123.116 281.951 123.246 282.081 123.505L283.249 125.581L284.286 123.635C284.546 123.246 284.805 123.116 285.065 123.116C285.324 123.116 285.454 123.246 285.584 123.376C285.713 123.505 285.843 123.765 285.843 123.895C285.843 124.024 285.843 124.284 285.713 124.414L284.546 126.23L286.881 126.1C287.14 126.1 287.4 126.23 287.53 126.36C287.659 126.489 287.789 126.749 287.789 126.879C287.789 127.138 287.659 127.268 287.53 127.397C287.4 127.527 287.14 127.657 286.881 127.657L284.416 127.527L285.454 129.214C285.584 129.473 285.713 129.603 285.713 129.862C285.713 130.122 285.584 130.252 285.454 130.381C285.324 130.511 285.065 130.641 284.935 130.641C284.676 130.641 284.416 130.511 284.157 130.122L283.119 128.176L282.081 130.122C281.821 130.511 281.562 130.641 281.303 130.641Z" fill="black"/>
<path d="M293.238 130.641C292.979 130.641 292.849 130.511 292.719 130.381C292.589 130.252 292.46 129.992 292.46 129.862C292.46 129.733 292.46 129.473 292.589 129.343L293.757 127.527L291.422 127.657C291.162 127.657 290.903 127.527 290.773 127.397C290.643 127.268 290.514 127.008 290.514 126.879C290.514 126.619 290.643 126.489 290.773 126.36C290.903 126.23 291.162 126.1 291.422 126.1L293.757 126.23L292.719 124.543C292.589 124.284 292.589 124.154 292.589 124.024C292.589 123.765 292.719 123.635 292.849 123.376C292.979 123.246 293.238 123.116 293.368 123.116C293.627 123.116 293.887 123.246 294.016 123.505L295.184 125.581L296.222 123.635C296.481 123.246 296.741 123.116 297 123.116C297.26 123.116 297.39 123.246 297.519 123.376C297.649 123.505 297.779 123.765 297.779 123.895C297.779 124.024 297.779 124.284 297.649 124.414L296.481 126.23L298.817 126.1C299.076 126.1 299.336 126.23 299.465 126.36C299.595 126.489 299.725 126.749 299.725 126.879C299.725 127.138 299.595 127.268 299.465 127.397C299.336 127.527 299.076 127.657 298.817 127.657L296.352 127.527L297.39 129.214C297.519 129.473 297.649 129.603 297.649 129.862C297.649 130.122 297.519 130.252 297.39 130.381C297.26 130.511 297 130.641 296.871 130.641C296.611 130.641 296.352 130.511 296.092 130.122L295.054 128.176L294.016 130.122C293.757 130.511 293.498 130.641 293.238 130.641Z" fill="black"/>
<path d="M305.045 130.641C304.785 130.641 304.656 130.511 304.526 130.381C304.396 130.252 304.266 129.992 304.266 129.862C304.266 129.733 304.266 129.473 304.396 129.343L305.564 127.527L303.228 127.657C302.969 127.657 302.71 127.527 302.58 127.397C302.45 127.268 302.32 127.008 302.32 126.879C302.32 126.619 302.45 126.489 302.58 126.36C302.71 126.23 302.969 126.1 303.228 126.1L305.564 126.23L304.526 124.543C304.396 124.284 304.396 124.154 304.396 124.024C304.396 123.765 304.526 123.635 304.656 123.376C304.785 123.246 305.045 123.116 305.174 123.116C305.434 123.116 305.693 123.246 305.823 123.505L306.991 125.581L308.029 123.635C308.288 123.246 308.547 123.116 308.807 123.116C309.066 123.116 309.196 123.246 309.326 123.376C309.456 123.505 309.585 123.765 309.585 123.895C309.585 124.024 309.585 124.284 309.456 124.414L308.288 126.23L310.623 126.1C310.883 126.1 311.142 126.23 311.272 126.36C311.402 126.489 311.531 126.749 311.531 126.879C311.531 127.138 311.402 127.268 311.272 127.397C311.142 127.527 310.883 127.657 310.623 127.657L308.158 127.527L309.196 129.214C309.326 129.473 309.456 129.603 309.456 129.862C309.456 130.122 309.326 130.252 309.196 130.381C309.066 130.511 308.807 130.641 308.677 130.641C308.418 130.641 308.158 130.511 307.899 130.122L306.861 128.176L305.823 130.122C305.693 130.511 305.434 130.641 305.045 130.641Z" fill="black"/>
<path d="M345.909 159.312H361.737" stroke="white" stroke-width="3.89198" stroke-miterlimit="10" stroke-linecap="round" stroke-linejoin="round"/>
<path d="M125.753 42.5522V147.895C125.753 154.252 130.942 159.441 137.299 159.441H330.86" stroke="white" stroke-width="3.89198" stroke-miterlimit="10" stroke-linecap="round" stroke-linejoin="round"/>
<path d="M125.753 14.53V30.3574" stroke="white" stroke-width="3.89198" stroke-miterlimit="10" stroke-linecap="round" stroke-linejoin="round"/>
</svg>
