<svg width="19" height="21" viewBox="0 0 19 21" fill="none" xmlns="http://www.w3.org/2000/svg">
<path d="M1.46154 17.454C1.46154 18.2011 1.7695 18.9177 2.31769 19.446C2.86587 19.9743 3.60937 20.2711 4.38462 20.2711H8.58654C8.63499 20.2711 8.68146 20.2525 8.71572 20.2195C8.74998 20.1865 8.76923 20.1417 8.76923 20.095V11.9959C8.76923 11.9492 8.74998 11.9044 8.71572 11.8714C8.68146 11.8383 8.63499 11.8198 8.58654 11.8198H1.82692C1.73002 11.8198 1.63708 11.8569 1.56856 11.9229C1.50003 11.989 1.46154 12.0785 1.46154 12.1719V17.454ZM8.76923 10.2352V5.48133H10.2308V10.2352C10.2308 10.2819 10.25 10.3267 10.2843 10.3597C10.3185 10.3927 10.365 10.4112 10.4135 10.4112H16.8077C17.0567 10.4113 17.3038 10.3703 17.5385 10.2902C17.9655 10.1441 18.3352 9.87422 18.5969 9.51762C18.8585 9.16103 18.9994 8.73517 19 8.29843V7.59415C19 7.0338 18.769 6.49639 18.3579 6.10016C17.9468 5.70393 17.3891 5.48133 16.8077 5.48133H14.9561C14.9402 5.48108 14.9246 5.47684 14.9109 5.46901C14.8973 5.46119 14.8859 5.45005 14.8781 5.43671C14.8702 5.42337 14.8662 5.40828 14.8662 5.39294C14.8663 5.37761 14.8705 5.36256 14.8785 5.34928C15.3013 4.66124 15.4387 3.84457 15.2629 3.06304C15.0872 2.2815 14.6114 1.59288 13.931 1.13524C13.2506 0.677598 12.4157 0.48478 11.594 0.595446C10.7722 0.706112 10.0242 1.11208 9.5 1.73195C8.97578 1.11208 8.2278 0.706112 7.40602 0.595446C6.58425 0.48478 5.74945 0.677598 5.069 1.13524C4.38856 1.59288 3.91278 2.2815 3.73706 3.06304C3.56134 3.84457 3.69868 4.66124 4.12154 5.34928C4.1295 5.36256 4.13372 5.37761 4.13378 5.39294C4.13385 5.40828 4.12976 5.42337 4.12191 5.43671C4.11407 5.45005 4.10274 5.46119 4.08906 5.46901C4.07537 5.47684 4.0598 5.48108 4.04389 5.48133H2.19231C1.61087 5.48133 1.05325 5.70393 0.642112 6.10016C0.230975 6.49639 0 7.0338 0 7.59415V8.29843C0.000645005 8.73517 0.141451 9.16103 0.403112 9.51762C0.664773 9.87422 1.03448 10.1441 1.46154 10.2902C1.69621 10.3703 1.94335 10.4113 2.19231 10.4112H8.58654C8.63499 10.4112 8.68146 10.3927 8.71572 10.3597C8.74998 10.3267 8.76923 10.2819 8.76923 10.2352ZM10.2308 3.72064C10.2308 3.37241 10.3379 3.032 10.5387 2.74246C10.7394 2.45292 11.0247 2.22724 11.3586 2.09398C11.6924 1.96072 12.0597 1.92585 12.4141 1.99379C12.7685 2.06173 13.094 2.22941 13.3495 2.47565C13.605 2.72189 13.779 3.03561 13.8495 3.37715C13.92 3.71869 13.8838 4.07271 13.7455 4.39443C13.6073 4.71615 13.3731 4.99113 13.0727 5.1846C12.7722 5.37807 12.419 5.48133 12.0577 5.48133H10.2308V3.72064ZM6.81168 1.96436C7.06197 1.94707 7.31327 1.97965 7.54991 2.06008C7.78656 2.14051 8.00348 2.26706 8.18714 2.43184C8.3708 2.59662 8.51727 2.7961 8.61742 3.01783C8.71757 3.23957 8.76925 3.47881 8.76923 3.72064V5.48133H6.94231C6.46991 5.48016 6.01634 5.30268 5.6768 4.98615C5.33726 4.66961 5.13814 4.23862 5.12124 3.78364C5.10434 3.32866 5.27097 2.88505 5.58616 2.54593C5.90134 2.2068 6.34058 1.99852 6.81168 1.9648V1.96436ZM10.4135 20.2711H14.6154C15.3906 20.2711 16.1341 19.9743 16.6823 19.446C17.2305 18.9177 17.5385 18.2011 17.5385 17.454V12.1719C17.5385 12.0785 17.5 11.989 17.4314 11.9229C17.3629 11.8569 17.27 11.8198 17.1731 11.8198H10.4135C10.365 11.8198 10.3185 11.8383 10.2843 11.8714C10.25 11.9044 10.2308 11.9492 10.2308 11.9959V20.095C10.2308 20.1417 10.25 20.1865 10.2843 20.2195C10.3185 20.2525 10.365 20.2711 10.4135 20.2711Z" fill="#F5F7F5"/>
</svg>
