<svg width="30" height="30" viewBox="0 0 30 30" fill="none" xmlns="http://www.w3.org/2000/svg">
<g clip-path="url(#clip0_870_25502)">
<g clip-path="url(#clip1_870_25502)">
<path d="M1.6499 8.32018C1.86805 7.8026 2.1636 7.32959 2.47529 6.86836C4.63935 3.66536 7.57291 1.54545 11.2656 0.561598C14.854 -0.396609 18.3717 -0.132142 21.7734 1.41091C23.098 2.01174 24.2951 2.82152 25.3899 3.78856C25.5096 3.89493 25.5282 3.95379 25.4015 4.07741C24.0471 5.39482 22.6973 6.71784 21.352 8.04646C21.2154 8.18143 21.138 8.21464 20.9733 8.06917C19.5431 6.81076 17.8687 6.14939 15.9874 6.02115C13.5421 5.85466 11.3742 6.56325 9.48364 8.14695C8.27852 9.15401 7.35617 10.4661 6.80961 11.9508C6.78519 12.0159 6.75415 12.0769 6.72683 12.1412C6.68988 12.1229 6.65408 12.1022 6.61962 12.0794C5.34111 11.1065 4.0626 10.1336 2.78409 9.16066C2.40865 8.87433 2.02783 8.59935 1.6499 8.32018Z" fill="#E94335"/>
<path d="M6.71938 17.8792C6.87129 18.2311 7.00127 18.5939 7.17843 18.9324C8.71496 21.868 11.0992 23.5943 14.3569 23.9778C16.497 24.2301 18.5269 23.8096 20.3838 22.6529C20.4138 22.6359 20.4448 22.6206 20.4765 22.6071C21.5561 23.4287 22.6358 24.2502 23.7156 25.0718C24.2835 25.5019 24.8568 25.9249 25.4276 26.3512C25.058 26.7519 24.618 27.066 24.1771 27.3759C22.2478 28.7335 20.0986 29.5046 17.7831 29.8271C16.2796 30.0373 14.7746 30.0634 13.2712 29.8645C10.7101 29.5256 8.3656 28.6128 6.25908 27.0895C4.3587 25.7159 2.83997 23.9946 1.73269 21.905C1.7004 21.8436 1.67639 21.7788 1.6499 21.7145C2.23521 21.2711 2.82065 20.8276 3.40623 20.3842C4.50979 19.5489 5.61417 18.7139 6.71938 17.8792Z" fill="#34A853"/>
<path d="M25.4272 26.3512C24.8563 25.9249 24.283 25.5019 23.7151 25.0718C22.6339 24.2522 21.5542 23.4306 20.4761 22.6071C20.9351 22.2707 21.3888 21.9302 21.7792 21.511C22.631 20.5961 23.2151 19.5349 23.4953 18.3034C23.5425 18.0931 23.468 18.0877 23.3082 18.0881C20.7363 18.0909 18.1644 18.0909 15.5925 18.0881C15.299 18.0881 15.2986 18.0881 15.2986 17.7967C15.2986 16.0388 15.3019 14.2809 15.2944 12.523C15.2944 12.3288 15.3462 12.2808 15.5345 12.2813C20.1888 12.2866 24.843 12.2866 29.497 12.2813C29.6713 12.2813 29.7325 12.33 29.7611 12.5028C30.05 14.2244 30.0765 15.9808 29.8397 17.7105C29.6079 19.402 29.136 21.0182 28.3616 22.5373C27.6533 23.9356 26.7049 25.1942 25.5609 26.2537C25.5184 26.2891 25.4738 26.3217 25.4272 26.3512Z" fill="#4285F3"/>
<path d="M6.71926 17.8793C5.6135 18.7143 4.50801 19.5495 3.40281 20.3848C2.81695 20.828 2.2315 21.2714 1.64647 21.7151C1.2135 20.9381 0.897666 20.1098 0.634817 19.2613C0.132624 17.6346 -0.075358 15.9289 0.0209469 14.2269C0.127274 12.2076 0.653934 10.2342 1.56617 8.43685C1.59079 8.39606 1.61847 8.35726 1.64896 8.3208C2.02688 8.59998 2.4077 8.87496 2.78231 9.15918C4.06165 10.1304 5.34016 11.1033 6.61784 12.0779C6.6523 12.1008 6.68811 12.1214 6.72505 12.1398C6.57521 12.6863 6.41667 13.2249 6.33719 13.7875C6.15229 15.0854 6.26463 16.4091 6.66545 17.6556C6.68945 17.7288 6.70187 17.8049 6.71926 17.8793Z" fill="#FABB06"/>
</g>
</g>
<defs>
<clipPath id="clip0_870_25502">
<rect width="30" height="30" fill="white"/>
</clipPath>
<clipPath id="clip1_870_25502">
<rect width="30" height="30" fill="white"/>
</clipPath>
</defs>
</svg>
