<svg width="21" height="20" viewBox="0 0 21 20" fill="none" xmlns="http://www.w3.org/2000/svg">
<path d="M9.95319 3.30765V1.4698C9.95319 1.30732 10.0211 1.1515 10.142 1.03661C10.2629 0.921721 10.4268 0.857178 10.5978 0.857178C10.7688 0.857178 10.9327 0.921721 11.0536 1.03661C11.1745 1.1515 11.2424 1.30732 11.2424 1.4698V3.30765C11.2424 3.47013 11.1745 3.62595 11.0536 3.74084C10.9327 3.85573 10.7688 3.92027 10.5978 3.92027C10.4268 3.92027 10.2629 3.85573 10.142 3.74084C10.0211 3.62595 9.95319 3.47013 9.95319 3.30765ZM10.5978 5.14551C9.57787 5.14551 8.58084 5.43295 7.73281 5.97147C6.88477 6.50999 6.2238 7.27542 5.83349 8.17095C5.44318 9.06648 5.34106 10.0519 5.54004 11.0026C5.73902 11.9533 6.23016 12.8265 6.95135 13.512C7.67255 14.1974 8.59141 14.6641 9.59174 14.8532C10.5921 15.0423 11.6289 14.9453 12.5712 14.5744C13.5135 14.2034 14.3189 13.5752 14.8856 12.7693C15.4522 11.9633 15.7546 11.0158 15.7546 10.0465C15.7531 8.74709 15.2094 7.50133 14.2426 6.58253C13.2758 5.66373 11.965 5.14693 10.5978 5.14551ZM4.98489 5.57894C5.10585 5.69389 5.2699 5.75847 5.44095 5.75847C5.61201 5.75847 5.77605 5.69389 5.89701 5.57894C6.01796 5.46399 6.08591 5.30808 6.08591 5.14551C6.08591 4.98294 6.01796 4.82704 5.89701 4.71208L4.6078 3.48685C4.48684 3.37189 4.32279 3.30731 4.15174 3.30731C3.98068 3.30731 3.81663 3.37189 3.69568 3.48685C3.57473 3.6018 3.50677 3.75771 3.50677 3.92027C3.50677 4.08284 3.57473 4.23875 3.69568 4.3537L4.98489 5.57894ZM4.98489 14.514L3.69568 15.7392C3.57473 15.8542 3.50677 16.0101 3.50677 16.1727C3.50677 16.3352 3.57473 16.4911 3.69568 16.6061C3.81663 16.721 3.98068 16.7856 4.15174 16.7856C4.32279 16.7856 4.48684 16.721 4.6078 16.6061L5.89701 15.3808C5.9569 15.3239 6.00441 15.2564 6.03682 15.182C6.06923 15.1076 6.08591 15.0279 6.08591 14.9474C6.08591 14.8669 6.06923 14.7872 6.03682 14.7128C6.00441 14.6385 5.9569 14.5709 5.89701 14.514C5.83712 14.4571 5.76602 14.4119 5.68777 14.3811C5.60952 14.3503 5.52565 14.3345 5.44095 14.3345C5.35625 14.3345 5.27238 14.3503 5.19413 14.3811C5.11588 14.4119 5.04478 14.4571 4.98489 14.514ZM15.7546 5.75813C15.8393 5.75819 15.9232 5.7424 16.0014 5.71165C16.0797 5.68091 16.1508 5.63581 16.2107 5.57894L17.4999 4.3537C17.6209 4.23875 17.6888 4.08284 17.6888 3.92027C17.6888 3.75771 17.6209 3.6018 17.4999 3.48685C17.379 3.37189 17.2149 3.30731 17.0438 3.30731C16.8728 3.30731 16.7087 3.37189 16.5878 3.48685L15.2986 4.71208C15.2083 4.79776 15.1469 4.90696 15.1219 5.02586C15.097 5.14476 15.1098 5.26801 15.1586 5.38002C15.2075 5.49202 15.2902 5.58773 15.3962 5.65504C15.5023 5.72235 15.6271 5.75823 15.7546 5.75813ZM16.2107 14.514C16.0897 14.399 15.9257 14.3345 15.7546 14.3345C15.5836 14.3345 15.4195 14.399 15.2986 14.514C15.1776 14.6289 15.1097 14.7848 15.1097 14.9474C15.1097 15.11 15.1776 15.2659 15.2986 15.3808L16.5878 16.6061C16.6477 16.663 16.7188 16.7081 16.797 16.739C16.8753 16.7698 16.9592 16.7856 17.0438 16.7856C17.1285 16.7856 17.2124 16.7698 17.2907 16.739C17.3689 16.7081 17.44 16.663 17.4999 16.6061C17.5598 16.5492 17.6073 16.4816 17.6397 16.4072C17.6721 16.3329 17.6888 16.2531 17.6888 16.1727C17.6888 16.0922 17.6721 16.0125 17.6397 15.9381C17.6073 15.8637 17.5598 15.7961 17.4999 15.7392L16.2107 14.514ZM4.15174 10.0465C4.15174 9.88399 4.08383 9.72816 3.96294 9.61328C3.84205 9.49839 3.67809 9.43384 3.50713 9.43384H1.57332C1.40236 9.43384 1.2384 9.49839 1.11751 9.61328C0.996625 9.72816 0.928711 9.88399 0.928711 10.0465C0.928711 10.2089 0.996625 10.3648 1.11751 10.4797C1.2384 10.5945 1.40236 10.6591 1.57332 10.6591H3.50713C3.67809 10.6591 3.84205 10.5945 3.96294 10.4797C4.08383 10.3648 4.15174 10.2089 4.15174 10.0465ZM10.5978 16.1727C10.4268 16.1727 10.2629 16.2372 10.142 16.3521C10.0211 16.467 9.95319 16.6228 9.95319 16.7853V18.6231C9.95319 18.7856 10.0211 18.9414 10.142 19.0563C10.2629 19.1712 10.4268 19.2357 10.5978 19.2357C10.7688 19.2357 10.9327 19.1712 11.0536 19.0563C11.1745 18.9414 11.2424 18.7856 11.2424 18.6231V16.7853C11.2424 16.6228 11.1745 16.467 11.0536 16.3521C10.9327 16.2372 10.7688 16.1727 10.5978 16.1727ZM19.6223 9.43384H17.6885C17.5175 9.43384 17.3535 9.49839 17.2327 9.61328C17.1118 9.72816 17.0438 9.88399 17.0438 10.0465C17.0438 10.2089 17.1118 10.3648 17.2327 10.4797C17.3535 10.5945 17.5175 10.6591 17.6885 10.6591H19.6223C19.7932 10.6591 19.9572 10.5945 20.0781 10.4797C20.199 10.3648 20.2669 10.2089 20.2669 10.0465C20.2669 9.88399 20.199 9.72816 20.0781 9.61328C19.9572 9.49839 19.7932 9.43384 19.6223 9.43384Z" fill="#B8B8B8"/>
</svg>
