<svg width="207" height="51" viewBox="0 0 207 51" fill="none" xmlns="http://www.w3.org/2000/svg">
<mask id="mask0_11_651" style="mask-type:luminance" maskUnits="userSpaceOnUse" x="0" y="0" width="207" height="51">
<path d="M207 0H0V51H207V0Z" fill="white"/>
</mask>
<g mask="url(#mask0_11_651)">
<path d="M20.8114 40.5042H3.83757C2.82006 40.5033 1.84447 40.0945 1.12498 39.3675C0.405491 38.6404 0.000890993 37.6547 0 36.6265L0 12.7823C0.000890993 11.7541 0.405491 10.7684 1.12498 10.0413C1.84447 9.31433 2.82006 8.9055 3.83757 8.9046H20.8114C23.4874 8.90865 26.0526 9.98459 27.9448 11.8966C29.837 13.8086 30.9018 16.4006 30.9058 19.1046V30.2957C30.9018 32.9997 29.837 35.5917 27.9448 37.5037C26.0526 39.4157 23.4874 40.4916 20.8114 40.4957M5.43081 35.0149H20.8114C22.0492 35.0135 23.2359 34.5161 24.1112 33.6317C24.9864 32.7473 25.4787 31.5481 25.4801 30.2974V19.1097C25.4787 17.859 24.9864 16.6598 24.1112 15.7754C23.2359 14.891 22.0492 14.3935 20.8114 14.3922H5.43081V35.0149Z" fill="white"/>
<path d="M57.8378 40.5025H41.9845C40.5643 40.5007 39.2028 39.9299 38.1986 38.9152C37.1944 37.9005 36.6295 36.5247 36.6277 35.0897V21.4115C36.6295 19.9765 37.1944 18.6008 38.1986 17.5861C39.2028 16.5714 40.5643 16.0005 41.9845 15.9987H57.8378C59.2579 16.0005 60.6194 16.5714 61.6236 17.5861C62.6278 18.6008 63.1928 19.9765 63.1946 21.4115V35.0897C63.1928 36.5247 62.6278 37.9005 61.6236 38.9152C60.6194 39.9299 59.2579 40.5007 57.8378 40.5025ZM42.0585 35.0149H57.7654V21.4863H42.0585V35.0149Z" fill="white"/>
<path d="M154.13 40.5042H135.634C134.214 40.5024 132.852 39.9316 131.848 38.9169C130.844 37.9022 130.279 36.5264 130.277 35.0914V21.4115C130.279 19.9765 130.844 18.6008 131.848 17.5861C132.852 16.5714 134.214 16.0005 135.634 15.9987H154.129V21.4863H135.706V35.0166H154.129L154.13 40.5042Z" fill="white"/>
<path d="M177.676 40.5042H164.248C162.828 40.5024 161.467 39.9315 160.463 38.9168C159.458 37.9021 158.893 36.5264 158.892 35.0914V15.8899H164.322V35.0166H177.676V40.5042Z" fill="white"/>
<path d="M179.991 51H167.177V45.5124H179.917V15.8899H185.347V45.5855C185.346 47.0205 184.781 48.3962 183.777 49.4109C182.772 50.4256 181.411 50.9982 179.991 51Z" fill="white"/>
<path d="M73.6003 47.8533H68.1763V21.4115C68.1781 19.9765 68.743 18.6008 69.7472 17.5861C70.7514 16.5714 72.1129 16.0005 73.533 15.9987H89.3746C90.7948 16.0005 92.1562 16.5714 93.1604 17.5861C94.1646 18.6008 94.7296 19.9765 94.7314 21.4115V35.0897C94.7296 36.5247 94.1646 37.9005 93.1604 38.9152C92.1562 39.9299 90.7948 40.5007 89.3746 40.5025H76.8339V35.0166H89.3023V21.4863H73.5953L73.6003 47.8533Z" fill="white"/>
<path d="M119.032 40.5042H105.559C104.139 40.5024 102.778 39.9316 101.773 38.9169C100.769 37.9022 100.204 36.5264 100.202 35.0914V21.4115C100.204 19.9765 100.769 18.6008 101.773 17.5861C102.778 16.5714 104.139 16.0005 105.559 15.9987H121.412C122.833 16.0005 124.194 16.5714 125.198 17.5861C126.203 18.6008 126.767 19.9765 126.769 21.4115V26.7869C126.767 28.2219 126.203 29.5977 125.198 30.6124C124.194 31.6271 122.833 32.1979 121.412 32.1997H108.872V26.7138H121.343V21.4863H105.637V35.0166H119.037L119.032 40.5042Z" fill="white"/>
<path d="M178.887 0H191.374V2.1403H186.19V12.58H184.072V2.1403H178.889L178.887 0Z" fill="black"/>
<path d="M207 0.0170288V12.5732H204.882V4.25853L201.298 10.4533L200.08 12.5732L198.855 10.455L195.282 4.27553V12.5732H193.164V0.0170288H195.274L195.282 0.0323288L200.08 8.33173L204.882 0.0170288H207Z" fill="black"/>
</g>
</svg>
