<svg width="124" height="31" viewBox="0 0 124 31" fill="none" xmlns="http://www.w3.org/2000/svg">
<path d="M12.37 24.326H2.281C1.6762 24.3255 1.09633 24.085 0.668674 23.6573C0.241019 23.2297 0.000529594 22.6498 0 22.045L0 8.019C0.000529594 7.41421 0.241019 6.83433 0.668674 6.40668C1.09633 5.97902 1.6762 5.73854 2.281 5.73801H12.37C13.9606 5.74039 15.4853 6.37329 16.61 7.49799C17.7347 8.6227 18.3676 10.1474 18.37 11.738V18.321C18.3676 19.9116 17.7347 21.4363 16.61 22.561C15.4853 23.6857 13.9606 24.3186 12.37 24.321M3.228 21.097H12.37C13.1057 21.0962 13.8111 20.8036 14.3313 20.2833C14.8516 19.7631 15.1442 19.0577 15.145 18.322V11.741C15.1442 11.0053 14.8516 10.2999 14.3313 9.77966C13.8111 9.25942 13.1057 8.9668 12.37 8.966H3.228V21.097Z" fill="#326039"/>
<path d="M34.378 24.325H24.955C24.1109 24.3239 23.3016 23.9881 22.7047 23.3913C22.1079 22.7944 21.7721 21.9851 21.771 21.141V13.095C21.7721 12.2509 22.1079 11.4416 22.7047 10.8447C23.3016 10.2479 24.1109 9.91205 24.955 9.911H34.378C35.2221 9.91205 36.0314 10.2479 36.6283 10.8447C37.2252 11.4416 37.561 12.2509 37.562 13.095V21.141C37.561 21.9851 37.2252 22.7944 36.6283 23.3913C36.0314 23.9881 35.2221 24.3239 34.378 24.325ZM24.999 21.097H34.335V13.139H24.999V21.097Z" fill="#326039"/>
<path d="M91.613 24.326H80.619C79.7749 24.3249 78.9657 23.9891 78.3688 23.3923C77.7719 22.7954 77.4361 21.9861 77.435 21.142V13.095C77.4361 12.2509 77.7719 11.4416 78.3688 10.8447C78.9657 10.2479 79.7749 9.91205 80.619 9.911H91.612V13.139H80.662V21.098H91.612L91.613 24.326Z" fill="#326039"/>
<path d="M105.608 24.326H97.627C96.7829 24.3249 95.9737 23.9891 95.3768 23.3923C94.7799 22.7954 94.4441 21.9861 94.443 21.142V9.847H97.671V21.098H105.608V24.326Z" fill="#326039"/>
<path d="M106.984 30.5H99.368V27.272H106.94V9.847H110.168V27.315C110.167 28.1591 109.831 28.9684 109.234 29.5653C108.637 30.1621 107.828 30.4989 106.984 30.5Z" fill="#326039"/>
<path d="M43.747 28.649H40.523V13.095C40.5241 12.2509 40.8599 11.4416 41.4568 10.8447C42.0536 10.2479 42.8629 9.91205 43.707 9.911H53.123C53.9671 9.91205 54.7764 10.2479 55.3733 10.8447C55.9701 11.4416 56.3059 12.2509 56.307 13.095V21.141C56.3059 21.9851 55.9701 22.7944 55.3733 23.3913C54.7764 23.9881 53.9671 24.3239 53.123 24.325H45.669V21.098H53.08V13.139H43.744L43.747 28.649Z" fill="#326039"/>
<path d="M70.751 24.326H62.743C61.8989 24.3249 61.0896 23.9891 60.4928 23.3923C59.8959 22.7954 59.5601 21.9861 59.559 21.142V13.095C59.5601 12.2509 59.8959 11.4416 60.4928 10.8447C61.0896 10.2479 61.8989 9.91205 62.743 9.911H72.166C73.0101 9.91205 73.8194 10.2479 74.4162 10.8447C75.0131 11.4416 75.3489 12.2509 75.35 13.095V16.257C75.3489 17.1011 75.0131 17.9104 74.4162 18.5073C73.8194 19.1041 73.0101 19.4399 72.166 19.441H64.712V16.214H72.125V13.139H62.789V21.098H70.754L70.751 24.326Z" fill="#326039"/>
<path d="M106.328 0.5H113.75V1.759H110.669V7.9H109.41V1.759H106.329L106.328 0.5Z" fill="black"/>
<path d="M123.038 0.509995V7.89599H121.779V3.00499L119.649 6.64899L118.925 7.89599L118.197 6.64999L116.073 3.01499V7.89599H114.814V0.509995H116.068L116.073 0.518995L118.925 5.40099L121.779 0.509995H123.038Z" fill="black"/>
</svg>
