<svg width="31" height="19" viewBox="0 0 31 19" fill="none" xmlns="http://www.w3.org/2000/svg">
<path fill-rule="evenodd" clip-rule="evenodd" d="M21.5582 18.3928C26.5147 18.3928 30.5327 14.4226 30.5327 9.52512C30.5327 4.62765 26.5147 0.657471 21.5582 0.657471C19.3369 0.657471 17.304 1.45493 15.7369 2.77591C14.1697 1.45497 12.1369 0.65755 9.9156 0.65755C4.95916 0.65755 0.941162 4.62773 0.941162 9.5252C0.941162 14.4227 4.95916 18.3928 9.9156 18.3928C12.137 18.3928 14.1698 17.5954 15.737 16.2744C17.3041 17.5953 19.3369 18.3928 21.5582 18.3928Z" fill="#ED0006"/>
<path fill-rule="evenodd" clip-rule="evenodd" d="M15.7368 16.2744C17.6664 14.6479 18.89 12.2277 18.89 9.52512C18.89 6.82255 17.6664 4.40236 15.7368 2.77587C17.3039 1.45491 19.3368 0.657471 21.5581 0.657471C26.5146 0.657471 30.5326 4.62765 30.5326 9.52512C30.5326 14.4226 26.5146 18.3928 21.5581 18.3928C19.3368 18.3928 17.3039 17.5953 15.7368 16.2744Z" fill="#F9A000"/>
<path fill-rule="evenodd" clip-rule="evenodd" d="M15.7369 16.2744C17.6665 14.6479 18.89 12.2277 18.89 9.52513C18.89 6.82256 17.6665 4.40237 15.7369 2.77588C13.8073 4.40237 12.5837 6.82256 12.5837 9.52513C12.5837 12.2277 13.8073 14.6479 15.7369 16.2744Z" fill="#FF5E00"/>
</svg>
