<svg width="54" height="54" viewBox="0 0 54 54" fill="none" xmlns="http://www.w3.org/2000/svg">
<mask id="mask0_55_8837" style="mask-type:luminance" maskUnits="userSpaceOnUse" x="2" y="2" width="50" height="50">
<path d="M51.5455 2.45453H2.45459V51.5454H51.5455V2.45453Z" fill="white"/>
</mask>
<g mask="url(#mask0_55_8837)">
<path d="M22.4051 10.5088C22.4051 9.50585 22.4167 8.59112 22.3916 7.66104C22.3541 7.49597 22.2565 7.35051 22.1176 7.25257C21.6658 6.91554 21.3327 6.44522 21.1659 5.90878C20.9991 5.37235 21.007 4.79724 21.1887 4.26559C21.3704 3.73394 21.7164 3.27294 22.1774 2.94843C22.6384 2.62392 23.1908 2.45251 23.7557 2.45866C24.3206 2.46481 24.8691 2.64821 25.3228 2.98268C25.7766 3.31715 26.1124 3.78558 26.2823 4.32105C26.4522 4.85653 26.4475 5.43168 26.2689 5.96435C26.0903 6.49702 25.7469 6.95997 25.2877 7.28709C25.17 7.37914 25.0099 7.51721 25.006 7.63802C24.9829 8.57577 24.9925 9.51544 24.9925 10.5146C25.8608 10.5146 26.6654 10.4954 27.468 10.5146C28.8811 10.4856 30.2947 10.5496 31.6993 10.7063C33.9099 11.1094 35.9002 12.2909 37.3055 14.0341C38.7107 15.7774 39.4368 17.9656 39.3505 20.1977C39.2643 22.4298 38.3714 24.5563 36.8358 26.1873C35.3001 27.8182 33.2244 28.8444 30.9892 29.0778C30.6156 29.1183 30.2402 29.14 29.8644 29.143C25.7251 29.143 21.5864 29.143 17.4484 29.143C14.9622 29.1582 12.5717 28.1913 10.8029 26.4548C9.034 24.7182 8.03164 22.3545 8.01629 19.8834C8.00094 17.4124 8.97385 15.0365 10.721 13.2784C12.4682 11.5203 14.8464 10.5241 17.3326 10.5088C18.9958 10.4973 20.6609 10.5088 22.4051 10.5088ZM23.6747 25.3191C25.5366 25.3191 27.4005 25.3191 29.2701 25.3191C30.737 25.3334 32.1494 24.7679 33.1968 23.747C34.2441 22.7262 34.8406 21.3337 34.8549 19.8758C34.8692 18.4178 34.3003 17.014 33.2732 15.973C32.2461 14.9321 30.845 14.3392 29.3782 14.325C25.599 14.2905 21.8192 14.2905 18.0388 14.325C16.5722 14.3392 15.1714 14.932 14.1445 15.9727C13.1176 17.0135 12.5487 18.4171 12.563 19.8748C12.5774 21.3324 13.1737 22.7247 14.2209 23.7454C15.268 24.766 16.6803 25.3314 18.1469 25.3172C19.9914 25.3172 21.836 25.3172 23.6824 25.3172" fill="#355E38"/>
<path d="M23.7152 31.7319C27.1355 31.7319 30.5558 31.7319 33.976 31.7319C34.5467 31.7009 35.1175 31.7893 35.6517 31.9913C36.1859 32.1933 36.6714 32.5044 37.0771 32.9045C37.4828 33.3046 37.7995 33.7849 38.0068 34.3142C38.2141 34.8436 38.3074 35.4102 38.2806 35.9776C38.2806 36.9365 38.2941 37.8953 38.2806 38.8542C38.2832 39.3903 38.1785 39.9215 37.9724 40.417C37.7664 40.9125 37.4632 41.3623 37.0805 41.7401C36.6978 42.118 36.2433 42.4163 35.7434 42.6178C35.2436 42.8194 34.7084 42.92 34.169 42.9139C30.0689 42.9369 25.9688 42.9139 21.8668 42.9139C19.019 42.9139 16.173 42.9273 13.3252 42.9139C12.3571 42.9431 11.4105 42.6266 10.6569 42.0219C9.90334 41.4172 9.39266 40.5642 9.21738 39.6174C9.13655 38.9109 9.11074 38.1992 9.1402 37.4887C9.13055 36.9134 9.1402 36.3497 9.1402 35.7801C9.13604 35.2441 9.23958 34.7127 9.44474 34.217C9.6499 33.7213 9.95255 33.2713 10.335 32.8934C10.7174 32.5155 11.1718 32.2172 11.6717 32.0161C12.1716 31.815 12.7068 31.7151 13.2461 31.7223C16.7384 31.7127 20.2287 31.7223 23.721 31.7223" fill="#355E38"/>
<path d="M38.1783 45.5602C38.1734 46.0582 38.0684 46.5501 37.8696 47.0072C37.6708 47.4643 37.3822 47.8773 37.0207 48.222C35.886 49.3629 34.356 50.0303 32.7431 50.0879C31.7436 50.1531 30.7384 50.1205 29.7351 50.1205C24.9114 50.1205 20.0878 50.1205 15.2777 50.1205C13.7075 50.1764 12.1624 49.7175 10.8805 48.8146C10.3363 48.4538 9.88534 47.9706 9.56418 47.4042C9.24303 46.8378 9.06074 46.2041 9.0321 45.5545L38.1783 45.5602Z" fill="#355E38"/>
<path d="M50.3783 37.7265H46.2358C45.3405 37.7265 44.4453 37.74 43.55 37.7265C43.3949 37.7072 43.2375 37.7332 43.097 37.8013C42.9565 37.8694 42.839 37.9767 42.7589 38.1101C42.5161 38.4703 42.1897 38.7673 41.8073 38.9759C41.4248 39.1845 40.9974 39.2986 40.5613 39.3086C40.3548 37.4063 40.9298 35.4733 39.9515 33.7071C40.459 33.5695 40.9971 33.5934 41.4902 33.7754C41.9834 33.9573 42.4068 34.2882 42.701 34.7215C42.7951 34.8767 42.932 35.0019 43.0955 35.0821C43.259 35.1623 43.4421 35.1942 43.6233 35.1741C44.9739 35.1511 46.34 35.1741 47.7581 35.1741C47.7697 34.9555 47.787 34.7675 47.787 34.5815C47.787 33.1586 47.8025 31.7338 47.7735 30.3128C47.7565 30.0459 47.6435 29.7941 47.4552 29.6032C47.2099 29.3809 47.0118 29.1122 46.8724 28.8128C46.7329 28.5135 46.655 28.1895 46.6431 27.8598C46.6313 27.5301 46.6857 27.2014 46.8033 26.8929C46.9209 26.5844 47.0992 26.3023 47.3278 26.0632C47.5578 25.8315 47.8322 25.648 48.1347 25.5235C48.4372 25.399 48.7617 25.3361 49.0891 25.3383C49.4166 25.3406 49.7402 25.408 50.0409 25.5367C50.3417 25.6653 50.6134 25.8526 50.8401 26.0874C51.0668 26.3222 51.2439 26.5998 51.3608 26.9038C51.4778 27.2077 51.5323 27.5319 51.521 27.8572C51.5098 28.1824 51.4331 28.5021 51.2955 28.7974C51.1579 29.0927 50.9621 29.3575 50.7198 29.5764C50.6053 29.668 50.5144 29.7853 50.4543 29.9186C50.3943 30.052 50.3669 30.1975 50.3744 30.3434C50.3744 32.5852 50.3744 34.827 50.3744 37.0688V37.7323" fill="#355E38"/>
<path d="M6.26914 33.6208V34.2345C6.26914 38.2718 6.26914 42.3098 6.26914 46.3485C6.25758 46.4946 6.28294 46.6414 6.34291 46.7753C6.40289 46.9093 6.49559 47.0263 6.61258 47.1156C6.87872 47.3332 7.09689 47.6029 7.25348 47.9081C7.41008 48.2132 7.50173 48.5471 7.52273 48.889C7.54373 49.2308 7.49363 49.5733 7.37554 49.8951C7.25746 50.2169 7.07393 50.511 6.8364 50.7592C6.59911 51.0064 6.31363 51.2031 5.99739 51.337C5.68114 51.471 5.34075 51.5396 4.99697 51.5385C4.65319 51.5375 4.31322 51.4669 3.9978 51.331C3.68239 51.1951 3.39813 50.9967 3.16236 50.748C2.92659 50.4993 2.74426 50.2056 2.62647 49.8846C2.50869 49.5636 2.45793 49.222 2.47728 48.8809C2.49663 48.5397 2.5857 48.2061 2.73904 47.9003C2.89238 47.5945 3.10679 47.3229 3.36918 47.1021C3.4807 47.0193 3.56928 46.9097 3.62664 46.7836C3.684 46.6575 3.70827 46.5191 3.69719 46.3811C3.68561 44.4775 3.68561 42.5738 3.69719 40.6702C3.70948 40.2844 3.59127 39.9056 3.36146 39.5944C2.99635 39.063 2.77164 38.4488 2.70801 37.8084C2.64439 37.168 2.7439 36.522 2.99739 35.9299C3.25088 35.3378 3.65019 34.8185 4.15855 34.42C4.66691 34.0215 5.26798 33.7566 5.9064 33.6496C6.00674 33.6323 6.11093 33.6323 6.26721 33.6208" fill="#355E38"/>
<path d="M17.5217 17.8823C17.5177 17.6639 17.5582 17.447 17.6407 17.2445C17.7231 17.042 17.8459 16.8581 18.0015 16.704C18.1572 16.5498 18.3426 16.4284 18.5466 16.3472C18.7506 16.2659 18.969 16.2265 19.1887 16.2311C19.6193 16.2457 20.0273 16.426 20.3267 16.7339C20.626 17.0417 20.7934 17.4532 20.7934 17.8813C20.7934 18.3095 20.626 18.7209 20.3267 19.0288C20.0273 19.3367 19.6193 19.5169 19.1887 19.5315C18.9688 19.5358 18.7502 19.4963 18.5459 19.4152C18.3417 19.3341 18.1559 19.213 17.9995 19.0593C17.8432 18.9055 17.7195 18.7221 17.6357 18.5199C17.552 18.3177 17.5099 18.1009 17.512 17.8823" fill="#355E38"/>
<path d="M26.5651 17.9034C26.5575 17.682 26.5948 17.4613 26.6748 17.2545C26.7548 17.0477 26.8759 16.859 27.0308 16.6997C27.1857 16.5404 27.3713 16.4137 27.5766 16.3272C27.7818 16.2406 28.0024 16.196 28.2253 16.196C28.4483 16.196 28.6689 16.2406 28.8741 16.3272C29.0794 16.4137 29.2649 16.5404 29.4199 16.6997C29.5748 16.859 29.6959 17.0477 29.7759 17.2545C29.8559 17.4613 29.8932 17.682 29.8856 17.9034C29.8709 18.3313 29.6896 18.7369 29.3798 19.0344C29.0701 19.332 28.6561 19.4983 28.2253 19.4983C27.7946 19.4983 27.3806 19.332 27.0708 19.0344C26.7611 18.7369 26.5797 18.3313 26.5651 17.9034Z" fill="#355E38"/>
<path d="M24.2072 23.7236C23.9027 23.8238 23.5739 23.8238 23.2695 23.7236C22.7846 23.5802 22.3079 23.4106 21.8417 23.2154C21.7423 23.1741 21.6529 23.1123 21.5794 23.0341C21.5059 22.9558 21.4499 22.8629 21.4152 22.7616C21.3806 22.6602 21.3679 22.5527 21.3782 22.4461C21.3885 22.3396 21.4215 22.2364 21.4749 22.1435C21.5284 22.0505 21.6011 21.9699 21.6882 21.907C21.7754 21.8441 21.875 21.8003 21.9804 21.7785C22.0859 21.7568 22.1948 21.7575 22.2999 21.7808C22.4051 21.804 22.5041 21.8492 22.5903 21.9133C22.9246 22.1224 23.3115 22.2334 23.7065 22.2334C24.1015 22.2334 24.4884 22.1224 24.8227 21.9133C24.9051 21.8516 24.9994 21.8075 25.0998 21.7836C25.2001 21.7598 25.3044 21.7568 25.4059 21.7748C25.5075 21.7928 25.6042 21.8314 25.6901 21.8882C25.776 21.9451 25.8492 22.0189 25.9051 22.1051C25.9672 22.1936 26.0086 22.2949 26.0264 22.4013C26.0441 22.5078 26.0378 22.6169 26.0079 22.7206C25.978 22.8244 25.9251 22.9202 25.8533 23.0012C25.7815 23.0821 25.6924 23.1461 25.5925 23.1886C25.1419 23.3914 24.6792 23.5668 24.2072 23.714" fill="#355E38"/>
</g>
</svg>
