<svg width="24" height="24" viewBox="0 0 24 24" fill="none" xmlns="http://www.w3.org/2000/svg">
<path d="M12 23.7217C18.6274 23.7217 24 18.5439 24 12.1568C24 5.76965 18.6274 0.591858 12 0.591858C5.37258 0.591858 0 5.76965 0 12.1568C0 18.5439 5.37258 23.7217 12 23.7217Z" fill="#326039"/>
<path opacity="0.5" d="M23.2291 14.8707C22.4161 14.5064 21.6811 13.6005 20.9031 12.6416C19.6201 11.0572 18.1671 9.26556 15.8061 9.26556C15.7851 9.26556 15.7641 9.26556 15.7431 9.26556C13.1501 9.30315 11.6331 10.4529 10.0271 11.6711C9.45808 12.1019 8.87008 12.5471 8.20508 12.9692C6.82108 13.853 4.75408 14.8871 1.01908 15.0384C0.864084 15.0451 0.720084 15.1213 0.630084 15.2446C0.541084 15.368 0.517084 15.5231 0.564084 15.6667C2.15808 20.4855 6.75408 23.7217 12.0001 23.7217C17.2841 23.7217 22.0131 20.3178 23.4991 15.4432C23.5691 15.2148 23.4541 14.9709 23.2291 14.8707Z" fill="white"/>
<path opacity="0.5" d="M23.3331 15.261C23.2301 15.1357 23.0721 15.0673 22.9051 15.0788C21.8931 15.1473 21.0941 15.3024 20.2491 15.4663C18.9331 15.7216 17.4411 16.0117 14.7501 16.0117C12.3611 16.0117 10.5821 14.595 8.82011 13.0174L8.48911 12.7215C7.08411 11.4571 5.74311 10.2505 4.23611 10.3064C2.55311 10.3526 1.55511 11.2865 0.675108 12.1095C0.515108 12.2589 0.356108 12.4093 0.192108 12.5529C0.0811078 12.6521 0.0211078 12.7938 0.0311078 12.9384C0.0931078 13.8876 0.273108 14.8071 0.564108 15.6696L0.566108 15.6686C0.593108 15.7496 0.638108 15.8286 0.689108 15.8826C0.777108 15.9761 0.899108 16.032 1.02911 16.0397C4.60511 16.2479 6.26511 17.5132 7.87111 18.7372C9.28411 19.8137 10.6181 20.8305 13.0001 20.8305C15.1521 20.8305 17.1051 20.0498 18.9951 19.2952C20.0511 18.8731 21.0471 18.4751 22.0471 18.2216C22.1911 18.185 22.3061 18.0867 22.3681 17.9614C22.8171 17.2251 23.1701 16.4657 23.4181 15.7024C23.4671 15.5501 23.4361 15.3853 23.3331 15.261Z" fill="white"/>
<path d="M21.9199 18.2332C21.6439 18.2332 21.4199 18.0222 21.4199 17.7562V17.7465C21.4199 17.4805 21.6439 17.2646 21.9199 17.2646C22.1959 17.2646 22.4199 17.4805 22.4199 17.7465C22.4199 18.0125 22.1959 18.2332 21.9199 18.2332Z" fill="#BBDEFB"/>
<path d="M22.318 17.4641C22.195 17.3099 21.99 17.2386 21.793 17.2897C20.727 17.5595 19.652 17.9894 18.612 18.4047C16.813 19.1237 14.953 19.8667 13 19.8667C10.966 19.8667 9.81901 18.9936 8.49201 17.9816C6.84601 16.7269 4.97901 15.3053 1.09001 15.0779C0.922014 15.0615 0.766014 15.1376 0.665014 15.2629C0.563014 15.3882 0.533014 15.554 0.583014 15.7053C2.17801 20.4999 6.76601 23.7217 12 23.7217C16.247 23.7217 20.214 21.5292 22.352 17.999C22.454 17.8303 22.44 17.6193 22.318 17.4641Z" fill="#56865D"/>
</svg>
