<svg width="15" height="14" viewBox="0 0 15 14" fill="none" xmlns="http://www.w3.org/2000/svg">
<path d="M7.37025 0.83845C7.41765 0.692576 7.62402 0.692575 7.67142 0.83845L9.17382 5.46236C9.19501 5.5276 9.25581 5.57177 9.3244 5.57177H14.1863C14.3397 5.57177 14.4034 5.76804 14.2793 5.8582L10.346 8.71593C10.2905 8.75625 10.2673 8.82772 10.2885 8.89295L11.7909 13.5169C11.8383 13.6627 11.6713 13.784 11.5472 13.6939L7.6139 10.8362C7.55841 10.7958 7.48326 10.7958 7.42777 10.8362L3.49443 13.6939C3.37034 13.784 3.20338 13.6627 3.25078 13.5169L4.75318 8.89295C4.77438 8.82772 4.75116 8.75625 4.69566 8.71593L0.76233 5.8582C0.638242 5.76804 0.702015 5.57177 0.855396 5.57177H5.71727C5.78586 5.57177 5.84665 5.5276 5.86785 5.46236L7.37025 0.83845Z" fill="#FABD14"/>
</svg>
