<svg width="437" height="450" viewBox="0 0 437 450" fill="none" xmlns="http://www.w3.org/2000/svg">
<path d="M359.1 363.783H394.3V352.583H359.1V363.783Z" fill="#EBEBEB"/>
<path d="M145.435 183.346H180.635V172.146H145.435V183.346Z" fill="#EBEBEB"/>
<path d="M378.8 377.8C384.6 377.7 399.6 377.5 405.2 377.4H413.9L413.4 377.9V366.7L413.9 367.2C408.1 367.2 393.2 367.1 387.5 367L378.7 366.9L378.9 366.7L378.8 377.8ZM378.8 377.8L378.6 366.6V366.4H378.8C383.2 366.3 392 366.2 396.4 366.2L414 366.1H414.5V366.6V377.8V378.3H414H405.1C399.5 378.2 384.6 377.9 378.8 377.8Z" fill="#EBEBEB"/>
<path d="M211.6 294.4C217.4 294.3 232.4 294.1 238 294H246.7L246.2 294.5V283.3L246.7 283.8C240.9 283.8 226 283.7 220.3 283.6L211.5 283.5L211.7 283.3L211.6 294.4ZM211.6 294.4L211.4 283.2V283H211.6C216 282.9 224.8 282.8 229.2 282.8L246.8 282.7H247.3V283.2V294.4V294.9H246.8H237.9C232.3 294.8 217.4 294.5 211.6 294.4Z" fill="#EBEBEB"/>
<path d="M231.2 308.5C237 308.4 252 308.2 257.6 308.1H266.3L265.8 308.6V297.4L266.3 297.9C260.5 297.9 245.6 297.8 239.9 297.7L231.1 297.6L231.3 297.4L231.2 308.5ZM231.2 308.5L231 297.3V297.1H231.2C235.6 297 244.4 296.9 248.8 296.9L266.4 296.8H266.9V297.3V308.5V309H266.4H257.5C251.9 308.9 237 308.6 231.2 308.5Z" fill="#EBEBEB"/>
<path d="M250.748 294.471H285.948V283.271H250.748V294.471Z" fill="#EBEBEB"/>
<path d="M0.175976 377.802H35.376V366.602H0.175976V377.802Z" fill="#EBEBEB"/>
<path d="M19.8 18.5564L55 18.5564V7.3564L19.8 7.3564V18.5564Z" fill="#EBEBEB"/>
<path d="M0.299999 32.6L18 32.3L26.7 32.2H35.4L34.9 32.7V21.5L35.4 22L17.8 21.9L9 21.8L0.199997 21.7L0.399998 21.5L0.299999 32.6ZM0.299999 32.6L0 21.4V21.2H0.199997L9 21.1L17.8 21L35.4 20.9H35.9V21.4V32.6V33.1H35.4H26.5L17.7 33L0.299999 32.6Z" fill="#EBEBEB"/>
<path d="M359.2 18.5L376.9 18.2L385.6 18.1H394.3L393.8 18.6V7.4L394.3 7.9L376.7 7.8L367.9 7.7L359.1 7.6L359.3 7.4L359.2 18.5ZM359.2 18.5L359 7.3V7.1H359.2L368 7L376.8 6.9L394.4 6.8H394.9V7.3V18.5V19H394.4H385.5L376.7 18.9L359.2 18.5Z" fill="#EBEBEB"/>
<path d="M289.1 403.8H405.9L409.7 329.7H285.4L289.1 403.8Z" fill="#EBEBEB"/>
<path d="M293.601 338.4H398.501L396.901 363.2H294.901L293.601 338.4Z" stroke="#DBDBDB" stroke-miterlimit="10"/>
<path d="M296.801 370.5L297.901 392.8H395.501L396.901 370.5H296.801Z" stroke="#DBDBDB" stroke-miterlimit="10"/>
<path d="M357.4 353.1H336.4L335.7 347.8H358L357.4 353.1Z" stroke="#DBDBDB" stroke-miterlimit="10"/>
<path d="M357.4 384.3H336.4L335.7 379H358L357.4 384.3Z" stroke="#DBDBDB" stroke-miterlimit="10"/>
<path d="M305.3 403.8L304.2 411.9L301.9 428.1H297.5V403.8H305.3Z" fill="#EBEBEB"/>
<path d="M305.3 403.8L304.2 411.9H297.5V403.8H305.3Z" fill="#DBDBDB"/>
<path d="M389.7 403.8L390.8 411.9L393.1 428.1H397.6V403.8H389.7Z" fill="#EBEBEB"/>
<path d="M389.7 403.8L390.8 411.9H397.6V403.8H389.7Z" fill="#DBDBDB"/>
<path d="M415.9 1H248.8V144.6H415.9V1Z" stroke="#EBEBEB" stroke-miterlimit="10"/>
<path d="M256.7 6C256.7 7.1 255.8 8 254.7 8C253.6 8 252.7 7.1 252.7 6C252.7 4.9 253.6 4 254.7 4C255.7 4 256.7 4.9 256.7 6Z" fill="#A6A6A6"/>
<path d="M265 6C265 7.1 264.1 8 263 8C261.9 8 261 7.1 261 6C261 4.9 261.9 4 263 4C264.1 4 265 4.9 265 6Z" fill="#EBEBEB"/>
<path d="M273.3 6C273.3 7.1 272.4 8 271.3 8C270.2 8 269.3 7.1 269.3 6C269.3 4.9 270.2 4 271.3 4C272.4 4 273.3 4.9 273.3 6Z" fill="#326039"/>
<path d="M248.8 11H415.8" stroke="#EBEBEB" stroke-miterlimit="10"/>
<path d="M358.9 317.1C359.7 322.7 359.4 328.5 358 334C357.4 336.6 356.5 339 355.4 341.5C354.1 344.6 352.7 347.6 353 351C353.3 351.2 352.2 351.2 352.2 350.9C343.2 345.8 331.6 344.8 324.7 336.4C321.4 332.4 319.8 327.4 319 322.3C318.1 316.8 317.9 310.7 319.3 305.3C320.5 300.7 323.2 296.3 327.5 294.1C331.9 291.8 337.7 292 342.4 293.4C352.5 296.5 357.5 307.4 358.9 317.1Z" fill="#326039"/>
<path d="M363.6 383.9C362.4 379.8 361.1 375.7 359.9 371.6C357.4 363.6 354.9 355.6 352 347.7C350.3 343 348.5 338.3 346.6 333.7C346.9 330.8 347.1 327.9 347.7 325C348.5 321.5 349.5 318.1 350.6 314.7C350.7 314.5 350.3 314.4 350.2 314.6C348.2 319.3 345.5 325.3 345.5 330.9C343.3 325.7 340.9 320.5 338.4 315.4C338.3 311.1 338.1 306.8 338.8 302.5C338.8 302.3 338.5 302.2 338.5 302.4C337.8 306.1 337.3 310 337.6 313.8C335.7 310 333.6 306.2 331.4 302.5C331.2 302.2 330.7 302.5 330.9 302.8C334.3 309.3 337.4 316 340.4 322.7C336.3 319.1 331.4 316.3 326.3 314.5C326.1 314.4 325.9 314.7 326.1 314.8C331.9 317.2 336.8 320.7 341.4 324.9C343.5 329.8 345.5 334.8 347.5 339.9C341.9 334.4 334.1 330.7 326.7 328.8C326.4 328.7 326.4 329.1 326.6 329.2C335.2 331.8 342 336.7 348.5 342.6C349.3 344.6 350 346.7 350.7 348.7C353.5 356.4 356.1 364.2 358.7 372C359.9 375.7 361.1 379.5 362.3 383.3C363.6 387.3 364.5 391.6 366.2 395.5C366.4 395.9 367 395.8 366.9 395.3C366.1 391.5 364.7 387.7 363.6 383.9Z" fill="#263238"/>
<path d="M348.6 309.2C347 311.7 345.9 314.4 345.4 317.3C345.4 317.4 345.5 317.4 345.5 317.3C346.5 314.6 347.7 311.9 349 309.4C349.1 309.2 348.8 309 348.6 309.2Z" fill="#263238"/>
<path d="M332.5 328C330.2 326.7 327.1 325.6 324.4 325.3C324.3 325.3 324.3 325.4 324.4 325.4C325.7 325.9 327.1 326.3 328.4 326.8C329.7 327.3 331 327.9 332.3 328.4C332.6 328.5 332.8 328.2 332.5 328Z" fill="#263238"/>
<path d="M328 305.4C327.2 304.9 326.3 304.2 325.4 303.8C325.3 303.7 325.1 303.9 325.3 304C326 304.7 327 305.2 327.9 305.7C328 305.8 328.1 305.5 328 305.4Z" fill="#263238"/>
<path d="M389.299 347.8C382.799 349.7 376.299 351.5 369.799 353.4C369.199 353.6 358.299 332.5 362.199 321.7C365.899 311.7 374.299 304.2 384.299 300.7C388.899 299.1 394.599 297.8 399.499 298.9C403.899 299.9 406.899 303.4 408.399 307.5C410.299 313.1 409.699 319.7 408.599 325.4C407.599 330.7 405.699 335.9 402.199 340C398.799 344.1 394.399 346.3 389.299 347.8Z" fill="#326039"/>
<path d="M398.799 327.8C394.699 329.9 390.499 331.4 386.099 332.8C383.299 333.7 380.199 334.5 377.599 335.9C380.299 329.8 383.399 323.8 386.499 317.9C390.699 316.7 395.099 314.8 398.299 311.8C398.499 311.6 398.299 311.4 398.099 311.5C394.599 313.9 390.799 315.4 386.999 317.1C387.899 315.5 388.699 313.9 389.599 312.3C389.799 311.9 389.199 311.4 388.899 311.8C385.499 316.7 382.399 321.9 379.699 327.3C378.999 322.6 378.799 317.9 378.999 313.1C378.999 313 378.799 313 378.799 313.1C377.999 318.2 377.999 323.6 378.999 328.7C376.699 333.2 374.599 337.9 372.799 342.6C372.099 339.8 371.099 337 370.499 334.1C369.599 330 369.099 325.8 369.599 321.6C369.599 321.5 369.399 321.5 369.399 321.6C368.099 329.1 369.299 337.5 372.099 344.6C370.999 347.4 369.999 350.3 368.999 353.1C364.099 367.7 361.199 382.8 360.399 398.2C360.399 398.6 360.899 398.6 360.899 398.2C362.699 383.1 365.799 368.1 370.599 353.7C372.499 348 374.699 342.5 376.999 337.1C380.799 336 384.699 334.4 388.399 333.1C392.099 331.8 395.799 330.4 398.899 327.9C398.999 327.9 398.899 327.7 398.799 327.8Z" fill="#263238"/>
<path d="M404.799 321.7C400.799 323.1 397.099 325.1 393.099 326.5C392.899 326.6 392.999 326.9 393.199 326.8C397.399 325.9 401.599 324.6 404.899 321.9C405.099 321.8 404.999 321.6 404.799 321.7Z" fill="#263238"/>
<path d="M372.4 313.1C372.4 312.9 372.1 312.8 372.1 313C371 316.7 370.3 320.5 371.3 324.3C371.3 324.4 371.6 324.5 371.6 324.3C371.7 320.5 371.5 316.8 372.4 313.1Z" fill="#263238"/>
<path d="M388.799 304.6C387.499 306.3 386.999 308.7 387.099 310.8C387.099 310.9 387.299 311 387.399 310.9C387.899 308.8 388.699 306.9 389.299 304.9C389.399 304.6 388.999 304.4 388.799 304.6Z" fill="#263238"/>
<path d="M312.1 357.1C314 363.1 318.5 371.5 325.7 371.6C330.3 371.6 335 371.1 339.7 371C344.7 370.9 349.7 370.9 354.7 371.2C355.1 371.2 354.1 356.3 342.1 349C338.7 347 334.6 346.3 330.8 345.5C326.4 344.6 321.9 343.9 317.5 344.1C314.7 344.2 312.5 344.8 311.5 347.6C310.4 350.5 311.2 354.2 312.1 357.1Z" fill="#326039"/>
<path d="M317.199 349.5C320.099 350.2 323.099 351.1 325.999 352C325.199 351.2 324.499 350.4 323.599 349.6C322.299 348.6 320.999 347.7 319.599 346.8C319.499 346.7 319.599 346.5 319.699 346.6C322.399 347.6 325.099 349.8 326.799 352.2C330.399 353.4 334.099 354.7 337.499 356.1C339.999 357.1 342.199 358.3 344.399 359.7C343.599 358.2 342.899 356.7 341.899 355.4C340.299 353.3 338.199 352.2 336.099 350.7C335.899 350.6 336.099 350.3 336.299 350.4C340.999 352.5 343.899 355.9 345.599 360.5C348.099 362.3 350.299 364.3 352.399 366.7C360.299 375.7 366.599 387.7 366.599 399.9C366.599 400.2 366.099 400.3 366.099 400C363.799 387.9 359.099 376.9 350.999 367.5C350.399 366.8 349.899 366.2 349.299 365.6C347.099 365.4 344.999 365.1 342.699 365.1C340.099 365.1 337.599 365.5 335.099 365.7C330.899 366 326.299 366.1 322.499 364C322.299 363.9 322.399 363.6 322.599 363.7C330.999 366.8 339.799 362.9 348.299 364.7C344.699 361.2 340.599 358.6 335.899 356.7C335.599 356.6 335.399 356.5 335.099 356.4C329.699 357 323.999 358.5 318.699 356.7C318.499 356.6 318.599 356.4 318.799 356.5C323.899 357.8 328.799 356.2 333.799 355.9C328.299 353.8 322.799 352.1 317.299 350C316.699 349.8 316.699 349.4 317.199 349.5Z" fill="#263238"/>
<path d="M314.8 354.8C317.4 355.2 320 355.2 322.7 355.4C322.8 355.4 322.8 355.5 322.7 355.5C320.1 356.1 317.3 355.7 314.8 355C314.7 355 314.7 354.8 314.8 354.8Z" fill="#263238"/>
<path d="M332.599 349.6C333.999 350.1 335.399 351.3 336.499 352.3C336.599 352.4 336.499 352.7 336.299 352.6C335.599 352.1 334.999 351.7 334.299 351.2C333.699 350.8 332.999 350.5 332.399 350C332.199 349.9 332.399 349.5 332.599 349.6Z" fill="#263238"/>
<path d="M374.9 369.1C374.8 369.3 375.1 369.5 375.2 369.3C375.2 369.4 375.3 369.4 375.4 369.4C380.2 370.4 385.1 371.5 390 372C394 372.4 398.5 372.6 402 370.3C406.7 367.2 409.8 358.9 407.3 353.6C404.3 347.3 395.2 350.7 390.7 353C383.7 356.2 378.1 362 374.9 369.1Z" fill="#326039"/>
<path d="M371.4 372C374.1 369.4 377 367.2 380.1 365.3C382.2 361.7 385.5 358.6 389 356.3C389.2 356.2 389.3 356.5 389.2 356.6C386.2 358.9 383.9 361.6 381.7 364.5C385.2 362.5 388.9 360.9 392.7 359.5C394 357.1 396.2 354.8 398.6 353.6C398.6 353.6 398.7 353.6 398.7 353.7C396.6 355.4 394.9 357.1 393.4 359.3C395.6 358.5 397.9 357.7 400.1 356.9C400.3 356.8 400.4 357.1 400.2 357.2C396.2 358.8 392.1 360.4 388.1 362.3C393.1 363 397.6 363.1 402.7 362.3C402.8 362.3 402.9 362.5 402.8 362.5C397.9 363.9 392.2 364.2 387.3 362.7C384.8 363.9 382.3 365.3 379.9 366.8C381.9 366.5 383.8 366.9 385.8 367.3C389.3 368 392.7 368.6 396.2 368.5C396.3 368.5 396.4 368.7 396.2 368.7C390.1 369.7 384.4 367 378.4 367.7C376.2 369.2 374.1 370.9 372.1 372.8C368.3 376.5 365.3 380.9 363 385.7C360.5 390.8 359.1 396.3 357.1 401.6C357 401.8 356.7 401.7 356.7 401.5C358.5 391 363.8 379.5 371.4 372Z" fill="#263238"/>
<path d="M389.701 357.6C390.101 356.9 390.701 356.3 391.301 355.7C391.801 355.2 392.401 354.6 393.101 354.4C393.201 354.4 393.201 354.5 393.201 354.5C392.701 355.1 392.001 355.5 391.501 356C391.001 356.5 390.501 357.2 390.001 357.7C389.701 357.8 389.601 357.7 389.701 357.6Z" fill="#263238"/>
<path d="M399.7 360.9C400.6 360.7 401.5 360.7 402.5 360.5C403.4 360.3 404.3 360 405.2 359.7C405.3 359.7 405.4 359.8 405.3 359.9C403.8 360.8 401.5 361.5 399.8 361.2C399.5 361.1 399.5 360.9 399.7 360.9Z" fill="#263238"/>
<path d="M346.399 388.6L347.199 397.6L349.899 428.1H373.799L377.199 397.6L378.199 388.6H346.399Z" fill="#37474F"/>
<path d="M346.399 388.6L347.199 397.6H377.199L378.199 388.6H346.399Z" fill="#263238"/>
<path d="M344.018 393.481H380.518V386.181H344.018V393.481Z" fill="#37474F"/>
<path d="M4.5 428.1L55.2 427.9L105.8 427.8L207.1 427.6L308.4 427.8L359 427.9L409.7 428.1L359 428.4L308.4 428.5L207.1 428.6L105.8 428.5L55.2 428.4L4.5 428.1Z" fill="#263238"/>
<path d="M391.299 19H22.999V252H391.299V19Z" fill="white"/>
<path d="M391.199 252C391.099 252.1 22.8992 252.1 22.7992 252.2C22.6992 252.1 22.7992 19.2 22.6992 19.1V18.9H22.8992C22.8992 18.9 391.199 19.1 391.299 19.1C391.399 19 391.199 251.9 391.199 252ZM391.199 252C391.199 252 390.999 18.6 391.199 19.1L22.8992 19.3L23.0992 19.1C23.0992 19 23.1992 252.8 22.8992 251.9C22.9992 251.9 391.199 252 391.199 252Z" fill="#263238"/>
<path d="M391.299 19H22.999V28H391.299V19Z" fill="#263238"/>
<path d="M31.599 23.5C31.599 24.5 30.799 25.3 29.799 25.3C28.799 25.3 27.999 24.5 27.999 23.5C27.999 22.5 28.799 21.7 29.799 21.7C30.799 21.7 31.599 22.5 31.599 23.5Z" fill="#326039"/>
<path d="M38.9994 23.5C38.9994 24.5 38.1994 25.3 37.1994 25.3C36.1994 25.3 35.3994 24.5 35.3994 23.5C35.3994 22.5 36.1994 21.7 37.1994 21.7C38.1994 21.7 38.9994 22.5 38.9994 23.5Z" fill="white"/>
<path d="M46.3988 23.5C46.3988 24.5 45.5988 25.3 44.5988 25.3C43.5988 25.3 42.7988 24.5 42.7988 23.5C42.7988 22.5 43.5988 21.7 44.5988 21.7C45.5988 21.7 46.3988 22.5 46.3988 23.5Z" fill="#455A64"/>
<path d="M134.499 140.7H96.3994V190.6H134.499V140.7Z" fill="#EBEBEB"/>
<path d="M180.299 140.7H142.199V190.6H180.299V140.7Z" fill="#EBEBEB"/>
<path d="M226.2 140.7H188.1V190.6H226.2V140.7Z" fill="#EBEBEB"/>
<path d="M271.999 140.7H233.899V190.6H271.999V140.7Z" fill="#EBEBEB"/>
<path d="M317.799 140.7H279.699V190.6H317.799V140.7Z" fill="#EBEBEB"/>
<path d="M120.899 163.1C122.699 164.9 123.599 167.3 123.599 169.7C123.599 172 122.699 174.4 120.899 176.2C119.099 178 116.699 178.9 114.399 178.9C114.299 178.9 114.299 178.9 114.299 178.9C111.999 178.9 109.599 178 107.799 176.2C106.899 175.4 106.899 174.1 107.799 173.2C108.599 172.4 109.999 172.4 110.799 173.2C111.799 174.2 112.999 174.7 114.399 174.7C115.699 174.7 116.999 174.2 117.899 173.2C118.899 172.2 119.399 170.9 119.399 169.7C119.399 168.4 118.899 167.1 117.899 166.1C116.899 165.1 115.699 164.6 114.399 164.6C113.099 164.6 111.799 165 110.799 166.1C109.999 166.9 108.599 166.9 107.799 166.1C107.699 166 107.499 165.8 107.399 165.6C107.399 165.5 107.399 165.5 107.399 165.5C107.399 165.4 107.399 165.4 107.299 165.3C107.299 165.2 107.299 165.1 107.299 165C107.299 165 107.299 165 107.299 164.9C107.299 164.7 107.299 164.5 107.299 164.3L108.399 154.7C108.499 154.1 108.799 153.5 109.299 153.2C109.399 153.2 109.399 153.2 109.399 153.1C109.399 153.1 109.499 153.1 109.499 153C109.799 152.9 110.099 152.8 110.499 152.8H121.499C122.699 152.8 123.599 153.7 123.599 154.9C123.599 156 122.699 157 121.499 157H112.299L111.899 160.7C112.699 160.5 113.599 160.4 114.399 160.4C116.699 160.4 119.099 161.3 120.899 163.1Z" fill="#C7C7C7"/>
<path d="M166.699 163.1C168.499 164.9 169.399 167.3 169.399 169.6C169.399 171.9 168.499 174.3 166.699 176.2C164.899 178 162.499 178.9 160.099 178.9C157.799 178.9 155.399 178 153.599 176.2C152.799 175.4 152.799 174 153.599 173.2C154.399 172.4 155.799 172.4 156.599 173.2C157.599 174.2 158.799 174.7 160.099 174.7C161.399 174.7 162.699 174.2 163.699 173.2C164.699 172.2 165.199 170.9 165.199 169.6C165.199 168.3 164.699 167 163.699 166.1C162.699 165.1 161.499 164.6 160.199 164.6C159.599 164.6 158.999 164.4 158.699 163.9C157.799 163.1 157.799 161.8 158.599 160.9L162.399 157H156.399C155.199 157 154.299 156.1 154.299 154.9C154.299 153.7 155.199 152.8 156.399 152.8H167.399C168.599 152.8 169.499 153.7 169.499 154.9C169.499 155.3 169.399 155.6 169.199 155.9C169.099 156.1 168.999 156.3 168.799 156.4L164.099 161.2C165.099 161.7 165.999 162.3 166.699 163.1Z" fill="#C7C7C7"/>
<path d="M212.599 163.1C214.399 164.9 215.299 167.3 215.299 169.6C215.299 171.9 214.399 174.3 212.599 176.2C210.799 178 208.399 178.9 205.999 178.9C203.699 178.9 201.299 178 199.499 176.2C198.699 175.4 198.699 174 199.499 173.2C200.299 172.4 201.699 172.4 202.499 173.2C203.499 174.2 204.699 174.7 205.999 174.7C207.299 174.7 208.599 174.2 209.599 173.2C210.599 172.2 211.099 170.9 211.099 169.6C211.099 168.3 210.599 167 209.599 166.1C208.599 165.1 207.399 164.6 206.099 164.6C205.499 164.6 204.899 164.4 204.599 163.9C203.699 163.1 203.699 161.8 204.499 160.9L208.299 157H202.299C201.099 157 200.199 156.1 200.199 154.9C200.199 153.7 201.099 152.8 202.299 152.8H213.299C214.499 152.8 215.399 153.7 215.399 154.9C215.399 155.3 215.299 155.6 215.099 155.9C214.999 156.1 214.899 156.3 214.699 156.4L209.999 161.2C210.899 161.7 211.799 162.3 212.599 163.1Z" fill="#C7C7C7"/>
<path d="M261.799 170.1C261.799 175 257.799 179 252.899 179C247.999 179 243.999 175 243.999 170.1C243.999 167 245.599 164.3 247.999 162.7C247.199 161.7 246.799 160.4 246.799 159C246.799 155.6 249.599 152.9 252.999 152.9C256.399 152.9 259.099 155.7 259.099 159C259.099 160.4 258.699 161.7 257.899 162.7C260.199 164.2 261.799 167 261.799 170.1ZM257.799 170.1C257.799 167.5 255.599 165.3 252.999 165.3C250.299 165.3 248.199 167.5 248.099 170.1C248.099 172.7 250.299 174.9 252.999 174.9C255.599 174.9 257.799 172.7 257.799 170.1ZM250.899 159C250.899 160.2 251.799 161.1 252.999 161.1C254.099 161.1 254.999 160.1 254.999 159C254.999 157.9 254.099 157 252.999 157C251.799 156.9 250.899 157.8 250.899 159Z" fill="#C7C7C7"/>
<path d="M234.099 208.1H179.999V225.1H234.099V208.1Z" fill="#326039"/>
<path d="M191.599 217.9C191.799 217.7 191.999 217.7 192.199 217.8C192.599 218.1 193.199 218.5 193.799 218.4C194.199 218.4 194.599 218.3 194.799 218.1C195.099 217.9 195.199 217.7 195.199 217.5C195.199 217.4 195.199 217.3 195.099 217.2C194.999 217.1 194.999 217 194.799 216.9C194.599 216.7 194.099 216.6 193.699 216.5C193.299 216.4 192.899 216.3 192.599 216.2C192.299 216 191.999 215.8 191.799 215.5C191.699 215.3 191.599 215.1 191.599 214.8C191.599 214.3 191.899 213.9 192.299 213.6C192.699 213.3 193.199 213.2 193.699 213.2C194.499 213.2 195.099 213.6 195.499 213.9C195.699 214 195.799 214.3 195.599 214.5C195.499 214.7 195.199 214.8 194.999 214.6C194.599 214.3 194.199 214.1 193.699 214.1C193.299 214.1 192.999 214.2 192.799 214.4C192.599 214.6 192.499 214.8 192.499 214.9C192.499 215 192.499 215.1 192.599 215.1C192.599 215.2 192.699 215.2 192.799 215.3C192.999 215.5 193.399 215.6 193.799 215.7C194.199 215.8 194.599 215.9 194.999 216.1C195.299 216.3 195.599 216.5 195.799 216.8C195.899 217 195.999 217.3 195.999 217.5C195.999 218 195.699 218.5 195.299 218.8C194.899 219.1 194.299 219.3 193.699 219.3C192.799 219.3 191.999 218.8 191.599 218.5C191.499 218.4 191.399 218.1 191.599 217.9Z" fill="white"/>
<path d="M199.798 219.4C198.498 219.4 197.398 218.3 197.398 217V214C197.398 213.7 197.598 213.5 197.898 213.5C198.198 213.5 198.398 213.7 198.398 214V217C198.398 217.8 199.098 218.5 199.898 218.5C200.698 218.5 201.398 217.8 201.398 217V214C201.398 213.7 201.598 213.5 201.898 213.5C202.198 213.5 202.398 213.7 202.398 214V217C202.198 218.3 201.098 219.4 199.798 219.4Z" fill="white"/>
<path d="M204.199 218.9V214C204.199 213.7 204.399 213.5 204.699 213.5H205.899C206.799 213.5 207.499 214.2 207.499 215.1C207.499 215.5 207.399 215.8 207.199 216.1C207.699 216.4 207.999 217 207.999 217.6C207.999 218.6 207.199 219.4 206.199 219.4H204.699C204.399 219.4 204.199 219.2 204.199 218.9ZM205.099 215.8H205.799C206.199 215.8 206.499 215.5 206.499 215.1C206.499 214.7 206.199 214.4 205.799 214.4H205.099V215.8ZM205.099 218.4H206.099C206.599 218.4 206.999 218 206.999 217.5C206.999 217 206.599 216.6 206.099 216.6H205.099V218.4Z" fill="white"/>
<path d="M214.199 214V218.9C214.199 219.2 213.999 219.4 213.699 219.4C213.399 219.4 213.199 219.2 213.199 218.9V215.4L211.999 217.1C211.899 217.2 211.799 217.3 211.599 217.3C211.399 217.3 211.299 217.2 211.199 217.1L210.099 215.4V218.9C210.099 219.2 209.899 219.4 209.599 219.4C209.299 219.4 209.099 219.2 209.099 218.9V214C209.099 213.7 209.299 213.5 209.599 213.5C209.699 213.5 209.899 213.6 209.999 213.7L211.699 216L213.399 213.7C213.499 213.6 213.599 213.5 213.799 213.5C213.999 213.5 214.199 213.7 214.199 214Z" fill="white"/>
<path d="M216.299 214C216.299 213.7 216.499 213.5 216.799 213.5C217.099 213.5 217.299 213.7 217.299 214V218.9C217.299 219.2 217.099 219.4 216.799 219.4C216.499 219.4 216.299 219.2 216.299 218.9V214Z" fill="white"/>
<path d="M222.299 214.4H220.999V218.9C220.999 219.2 220.799 219.4 220.499 219.4C220.199 219.4 219.999 219.2 219.999 218.9V214.4H218.699C218.399 214.4 218.199 214.2 218.199 213.9C218.199 213.6 218.399 213.4 218.699 213.4H222.299C222.599 213.4 222.799 213.6 222.799 213.9C222.799 214.2 222.599 214.4 222.299 214.4Z" fill="white"/>
<path d="M214.2 59.9V67.5H212V59.9C212 57 209.8 54.7 207.1 54.7C204.4 54.7 202.2 57.1 202.2 59.9V67.5H200V59.9C200 55.8 203.2 52.4 207.1 52.4C211 52.4 214.2 55.7 214.2 59.9Z" fill="#EBEBEB"/>
<path d="M200 61.9H202.2V67.5H200V61.9Z" fill="#C7C7C7"/>
<path d="M214.2 62.4V67.5H212V62.3L214.2 62.4Z" fill="#C7C7C7"/>
<path d="M216.9 64.7H197.3V81H216.9V64.7Z" fill="#326039"/>
<path d="M207.9 72.7L208.7 76.6H205.2L206 72.7C205.5 72.4 205.2 71.8 205.2 71.2C205.2 70.2 206 69.5 206.9 69.5C207.9 69.5 208.6 70.3 208.6 71.2C208.8 71.9 208.4 72.4 207.9 72.7Z" fill="white"/>
<path d="M100.699 121.9C100.699 121.8 100.799 121.7 100.899 121.7H102.699C103.699 121.7 104.499 122.5 104.499 123.5C104.499 124.5 103.699 125.3 102.699 125.3H101.099V127.8C101.099 127.9 100.999 128 100.899 128C100.799 128 100.699 127.9 100.699 127.8V121.9ZM102.799 124.9C103.599 124.9 104.199 124.3 104.199 123.5C104.199 122.7 103.599 122.1 102.799 122.1H101.199V124.9H102.799Z" fill="#263238"/>
<path d="M105.999 121.9C105.999 121.8 106.099 121.7 106.199 121.7C106.299 121.7 106.399 121.8 106.399 121.9V127.9C106.399 128 106.299 128.1 106.199 128.1C106.099 128.1 105.999 128 105.999 127.9V121.9Z" fill="#263238"/>
<path d="M108.299 125.9C108.299 124.7 109.299 123.7 110.499 123.7C111.699 123.7 112.599 124.6 112.699 125.8C112.699 125.9 112.599 126 112.499 126H108.799C108.799 127 109.599 127.7 110.499 127.7C111.099 127.7 111.599 127.4 111.899 126.9C111.999 126.8 112.099 126.8 112.199 126.8C112.299 126.9 112.299 127 112.299 127.1C111.899 127.7 111.199 128.1 110.499 128.1C109.299 128.1 108.299 127.1 108.299 125.9ZM108.799 125.5H112.199C112.099 124.7 111.299 124 110.499 124C109.699 124.1 108.899 124.7 108.799 125.5Z" fill="#263238"/>
<path d="M117.999 123.9V127.9C117.999 128 117.899 128.1 117.799 128.1C117.699 128.1 117.599 128 117.599 127.9V127.2C117.199 127.7 116.599 128.1 115.899 128.1C114.699 128.1 113.799 127.1 113.799 125.9C113.799 124.7 114.699 123.7 115.899 123.7C116.599 123.7 117.199 124 117.599 124.6V123.9C117.599 123.8 117.699 123.7 117.799 123.7C117.899 123.7 117.999 123.7 117.999 123.9ZM117.499 125.9C117.499 124.9 116.699 124.1 115.799 124.1C114.899 124.1 114.099 124.9 114.099 125.9C114.099 126.9 114.899 127.7 115.799 127.7C116.799 127.7 117.499 126.9 117.499 125.9Z" fill="#263238"/>
<path d="M119.599 127.2C119.699 127.1 119.799 127.1 119.899 127.2C120.199 127.4 120.699 127.7 121.299 127.7C121.599 127.7 121.899 127.6 122.199 127.4C122.399 127.3 122.499 127.1 122.499 126.9C122.499 126.7 122.399 126.5 122.199 126.4C121.999 126.3 121.699 126.1 121.199 126.1C120.799 126 120.399 125.9 120.199 125.8C119.899 125.6 119.699 125.3 119.699 125C119.699 124.6 119.899 124.3 120.199 124.1C120.499 123.9 120.799 123.8 121.299 123.8C121.899 123.8 122.299 124.1 122.599 124.3C122.699 124.4 122.699 124.5 122.699 124.6C122.599 124.7 122.499 124.7 122.399 124.7C122.099 124.5 121.699 124.3 121.299 124.3C120.899 124.3 120.599 124.4 120.399 124.6C120.199 124.7 120.099 124.9 120.099 125.1C120.099 125.3 120.199 125.4 120.399 125.5C120.599 125.6 120.899 125.7 121.299 125.8C121.699 125.9 122.099 126 122.399 126.2C122.699 126.4 122.899 126.7 122.899 127.1C122.899 127.5 122.699 127.8 122.399 128C122.099 128.2 121.699 128.4 121.299 128.4C120.599 128.4 119.999 128.1 119.599 127.8C119.499 127.4 119.499 127.3 119.599 127.2Z" fill="#263238"/>
<path d="M123.999 125.9C123.999 124.7 124.999 123.7 126.199 123.7C127.399 123.7 128.299 124.6 128.399 125.8C128.399 125.9 128.299 126 128.199 126H124.499C124.499 127 125.299 127.7 126.199 127.7C126.799 127.7 127.299 127.4 127.599 126.9C127.699 126.8 127.799 126.8 127.899 126.8C127.999 126.9 127.999 127 127.999 127.1C127.599 127.7 126.899 128.1 126.199 128.1C124.999 128.1 123.999 127.1 123.999 125.9ZM124.499 125.5H127.899C127.799 124.7 126.999 124 126.199 124C125.399 124.1 124.699 124.7 124.499 125.5Z" fill="#263238"/>
<path d="M132.299 125.9C132.299 124.7 133.299 123.7 134.499 123.7C135.699 123.7 136.599 124.6 136.699 125.8C136.699 125.9 136.599 126 136.499 126H132.799C132.799 127 133.599 127.7 134.499 127.7C135.099 127.7 135.599 127.4 135.899 126.9C135.999 126.8 136.099 126.8 136.199 126.8C136.299 126.9 136.299 127 136.299 127.1C135.899 127.7 135.199 128.1 134.499 128.1C133.299 128.1 132.299 127.1 132.299 125.9ZM132.799 125.5H136.199C136.099 124.7 135.299 124 134.499 124C133.699 124.1 132.999 124.7 132.799 125.5Z" fill="#263238"/>
<path d="M141.399 125.5C141.399 124.7 140.799 124.1 139.999 124.1C139.199 124.1 138.599 124.7 138.599 125.5V127.9V128C138.599 128.1 138.499 128.1 138.399 128.1H138.299C138.199 128.1 138.199 128 138.199 128V127.9V125.5V125.4V123.9C138.199 123.8 138.299 123.7 138.399 123.7C138.499 123.7 138.599 123.8 138.599 123.9V124.3C138.899 123.9 139.399 123.7 139.999 123.7C140.999 123.7 141.799 124.5 141.799 125.5V127.9C141.799 128 141.699 128.1 141.599 128.1C141.499 128.1 141.399 128 141.399 127.9V125.5Z" fill="#263238"/>
<path d="M145.399 123.9C145.399 124 145.299 124.1 145.199 124.1H144.599V127.4C144.599 127.6 144.799 127.7 144.899 127.7C144.999 127.7 145.099 127.8 145.099 127.9C145.099 128 144.999 128.1 144.899 128.1C144.499 128.1 144.099 127.8 144.099 127.3V124H143.499C143.299 124 143.299 123.9 143.299 123.8C143.299 123.7 143.299 123.6 143.499 123.6H144.099V121.9C144.099 121.8 144.199 121.7 144.299 121.7C144.399 121.7 144.499 121.8 144.499 121.9V123.6H145.099C145.299 123.6 145.399 123.7 145.399 123.9Z" fill="#263238"/>
<path d="M146.799 125.9C146.799 124.7 147.799 123.7 148.999 123.7C150.199 123.7 151.099 124.6 151.199 125.8C151.199 125.9 151.099 126 150.999 126H147.299C147.299 127 148.099 127.7 148.999 127.7C149.599 127.7 150.099 127.4 150.399 126.9C150.499 126.8 150.599 126.8 150.699 126.8C150.799 126.9 150.799 127 150.799 127.1C150.399 127.7 149.699 128.1 148.999 128.1C147.799 128.1 146.799 127.1 146.799 125.9ZM147.299 125.5H150.699C150.599 124.7 149.799 124 148.999 124C148.099 124.1 147.399 124.7 147.299 125.5Z" fill="#263238"/>
<path d="M152.499 123.9C152.499 123.8 152.599 123.7 152.699 123.7C152.799 123.7 152.899 123.8 152.899 123.9V124.9C152.899 124.9 152.899 124.8 152.999 124.8C153.299 124.3 153.899 123.7 154.799 123.7C154.899 123.7 154.999 123.8 154.999 123.9C154.999 124 154.899 124.1 154.799 124.1C154.199 124.1 153.799 124.4 153.499 124.8C153.199 125.2 152.999 125.7 152.999 125.8V125.9V127.9C152.999 128 152.899 128.1 152.799 128.1C152.699 128.1 152.599 128 152.599 127.9V123.9H152.499Z" fill="#263238"/>
<path d="M160.799 123.9C160.799 124 160.699 124.1 160.599 124.1H159.999V127.4C159.999 127.6 160.199 127.7 160.299 127.7C160.399 127.7 160.499 127.8 160.499 127.9C160.499 128 160.399 128.1 160.299 128.1C159.899 128.1 159.499 127.8 159.499 127.3V124H158.899C158.699 124 158.699 123.9 158.699 123.8C158.699 123.7 158.699 123.6 158.899 123.6H159.499V121.9C159.499 121.8 159.599 121.7 159.699 121.7C159.799 121.7 159.899 121.8 159.899 121.9V123.6H160.499C160.699 123.6 160.799 123.7 160.799 123.9Z" fill="#263238"/>
<path d="M165.999 125.4C165.999 124.6 165.399 124.1 164.599 124.1C163.799 124.1 163.199 124.6 163.199 125.4V127.9C163.199 128 163.099 128 163.099 128C162.999 128 162.999 128 162.899 127.9C162.899 127.9 162.899 127.9 162.899 127.8C162.899 127.8 162.899 127.8 162.899 127.7V125.4V125.3V121.9C162.899 121.8 162.999 121.7 163.099 121.7C163.199 121.7 163.299 121.8 163.299 121.9V124.3C163.599 123.9 164.199 123.6 164.699 123.6C165.699 123.6 166.599 124.3 166.599 125.4V127.9C166.599 128 166.499 128.1 166.399 128.1C166.299 128.1 166.199 128 166.199 127.9V125.4H165.999Z" fill="#263238"/>
<path d="M167.999 125.9C167.999 124.7 168.999 123.7 170.199 123.7C171.399 123.7 172.299 124.6 172.399 125.8C172.399 125.9 172.299 126 172.199 126H168.499C168.499 127 169.299 127.7 170.199 127.7C170.799 127.7 171.299 127.4 171.599 126.9C171.699 126.8 171.799 126.8 171.899 126.8C171.999 126.9 171.999 127 171.999 127.1C171.599 127.7 170.899 128.1 170.199 128.1C168.999 128.1 167.999 127.1 167.999 125.9ZM168.499 125.5H171.899C171.799 124.7 170.999 124 170.199 124C169.299 124.1 168.599 124.7 168.499 125.5Z" fill="#263238"/>
<path d="M179.499 121.6C181.199 121.6 182.599 123.1 182.599 124.8C182.599 126.6 181.199 128 179.499 128C177.799 128 176.399 126.5 176.399 124.8C176.499 123.1 177.799 121.6 179.499 121.6ZM179.499 127.7C180.899 127.7 182.099 126.5 182.099 124.9C182.099 123.3 180.899 122.1 179.499 122.1C177.999 122.1 176.899 123.3 176.899 124.9C176.899 126.4 178.099 127.7 179.499 127.7Z" fill="#263238"/>
<path d="M185.7 122.2H183.8C183.7 122.2 183.6 122.1 183.6 122C183.6 121.9 183.7 121.8 183.8 121.8H188.1C188.2 121.8 188.3 121.9 188.3 122C188.3 122.1 188.2 122.2 188.1 122.2H186.1V127.9C186.1 128 186 128.1 185.9 128.1C185.8 128.1 185.7 128 185.7 127.9V122.2Z" fill="#263238"/>
<path d="M189.899 121.9C189.899 121.8 189.999 121.7 190.099 121.7H191.899C192.899 121.7 193.699 122.5 193.699 123.5C193.699 124.5 192.899 125.3 191.899 125.3H190.299V127.8C190.299 127.9 190.199 128 190.099 128C189.999 128 189.899 127.9 189.899 127.8V121.9ZM191.999 124.9C192.799 124.9 193.399 124.3 193.399 123.5C193.399 122.7 192.799 122.1 191.999 122.1H190.399V124.9H191.999Z" fill="#263238"/>
<path d="M197.6 125.9C197.6 124.7 198.6 123.7 199.9 123.7C200.4 123.7 200.9 123.9 201.3 124.2C201.4 124.3 201.4 124.4 201.3 124.5C201.2 124.6 201.1 124.6 201 124.5C200.7 124.2 200.3 124.1 199.8 124.1C198.8 124.1 197.9 124.9 197.9 125.9C197.9 126.9 198.7 127.7 199.8 127.7C200.2 127.7 200.6 127.6 201 127.3C201.1 127.2 201.2 127.3 201.3 127.3C201.4 127.4 201.4 127.5 201.3 127.6C200.9 127.9 200.4 128.1 199.9 128.1C198.6 128.1 197.6 127.1 197.6 125.9Z" fill="#263238"/>
<path d="M204.899 123.6C206.099 123.6 206.999 124.6 206.999 125.8C206.999 127 206.099 128 204.899 128C203.699 128 202.799 127 202.799 125.8C202.799 124.7 203.699 123.6 204.899 123.6ZM204.899 127.7C205.799 127.7 206.599 126.9 206.599 125.9C206.599 124.9 205.799 124.1 204.899 124.1C203.999 124.1 203.199 124.9 203.199 125.9C203.199 126.9 203.999 127.7 204.899 127.7Z" fill="#263238"/>
<path d="M212.299 127.2C211.899 127.7 211.299 128.1 210.599 128.1C209.399 128.1 208.399 127.1 208.399 125.9C208.399 124.7 209.399 123.7 210.599 123.7C211.299 123.7 211.899 124 212.299 124.6V122C212.299 121.9 212.399 121.8 212.499 121.8C212.599 121.8 212.699 121.9 212.699 122V125.9V126V128C212.699 128.1 212.599 128.2 212.499 128.2C212.399 128.2 212.299 128.1 212.299 128V127.2ZM212.299 126V125.9C212.299 124.9 211.499 124.2 210.599 124.2C209.699 124.2 208.899 125 208.899 126C208.899 127 209.699 127.8 210.599 127.8C211.499 127.7 212.199 126.9 212.299 126Z" fill="#263238"/>
<path d="M214.299 125.9C214.299 124.7 215.299 123.7 216.499 123.7C217.699 123.7 218.599 124.6 218.699 125.8C218.699 125.9 218.599 126 218.499 126H214.799C214.799 127 215.599 127.7 216.499 127.7C217.099 127.7 217.599 127.4 217.899 126.9C217.999 126.8 218.099 126.8 218.199 126.8C218.299 126.9 218.299 127 218.299 127.1C217.899 127.7 217.199 128.1 216.499 128.1C215.199 128.1 214.299 127.1 214.299 125.9ZM214.699 125.5H218.099C217.999 124.7 217.199 124 216.399 124C215.599 124.1 214.899 124.7 214.699 125.5Z" fill="#263238"/>
<path d="M222.599 127.2C222.699 127.1 222.799 127.1 222.899 127.2C223.199 127.4 223.699 127.7 224.299 127.7C224.599 127.7 224.899 127.6 225.199 127.4C225.399 127.3 225.499 127.1 225.499 126.9C225.499 126.7 225.399 126.5 225.199 126.4C224.999 126.3 224.699 126.1 224.199 126.1C223.799 126 223.399 125.9 223.199 125.8C222.899 125.6 222.699 125.3 222.699 125C222.699 124.6 222.899 124.3 223.199 124.1C223.499 123.9 223.799 123.8 224.299 123.8C224.899 123.8 225.299 124.1 225.599 124.3C225.699 124.4 225.699 124.5 225.699 124.6C225.599 124.7 225.499 124.7 225.399 124.7C225.099 124.5 224.699 124.3 224.299 124.3C223.899 124.3 223.599 124.4 223.399 124.6C223.199 124.7 223.099 124.9 223.099 125.1C223.099 125.3 223.199 125.4 223.399 125.5C223.599 125.6 223.899 125.7 224.299 125.8C224.699 125.9 225.099 126 225.399 126.2C225.699 126.4 225.899 126.7 225.899 127.1C225.899 127.5 225.699 127.8 225.399 128C225.099 128.2 224.699 128.4 224.299 128.4C223.599 128.4 222.999 128.1 222.599 127.8C222.499 127.4 222.499 127.3 222.599 127.2Z" fill="#263238"/>
<path d="M227.1 125.9C227.1 124.7 228.1 123.7 229.3 123.7C230.5 123.7 231.4 124.6 231.5 125.8C231.5 125.9 231.4 126 231.3 126H227.6C227.6 127 228.4 127.7 229.3 127.7C229.9 127.7 230.4 127.4 230.7 126.9C230.8 126.8 230.9 126.8 231 126.8C231.1 126.9 231.1 127 231.1 127.1C230.7 127.7 230 128.1 229.3 128.1C228 128.1 227.1 127.1 227.1 125.9ZM227.5 125.5H230.9C230.8 124.7 230 124 229.2 124C228.4 124.1 227.7 124.7 227.5 125.5Z" fill="#263238"/>
<path d="M236.199 125.5C236.199 124.7 235.599 124.1 234.799 124.1C233.999 124.1 233.399 124.7 233.399 125.5V127.9V128C233.399 128.1 233.299 128.1 233.199 128.1H233.099C232.999 128.1 232.999 128 232.999 128V127.9V125.5V125.4V123.9C232.999 123.8 233.099 123.7 233.199 123.7C233.299 123.7 233.399 123.8 233.399 123.9V124.3C233.699 123.9 234.199 123.7 234.799 123.7C235.799 123.7 236.599 124.5 236.599 125.5V127.9C236.599 128 236.499 128.1 236.399 128.1C236.299 128.1 236.199 128 236.199 127.9V125.5Z" fill="#263238"/>
<path d="M240.099 123.9C240.099 124 239.999 124.1 239.899 124.1H239.299V127.4C239.299 127.6 239.499 127.7 239.599 127.7C239.699 127.7 239.799 127.8 239.799 127.9C239.799 128 239.699 128.1 239.599 128.1C239.199 128.1 238.799 127.8 238.799 127.3V124H238.199C237.999 124 237.999 123.9 237.999 123.8C237.999 123.7 237.999 123.6 238.199 123.6H238.799V121.9C238.799 121.8 238.899 121.7 238.999 121.7C239.099 121.7 239.199 121.8 239.199 121.9V123.6H239.799C239.999 123.6 240.099 123.7 240.099 123.9Z" fill="#263238"/>
<path d="M246.499 123.9C246.499 124 246.399 124.1 246.299 124.1H245.699V127.4C245.699 127.6 245.899 127.7 245.999 127.7C246.099 127.7 246.199 127.8 246.199 127.9C246.199 128 246.099 128.1 245.999 128.1C245.599 128.1 245.199 127.8 245.199 127.3V124H244.599C244.399 124 244.399 123.9 244.399 123.8C244.399 123.7 244.399 123.6 244.599 123.6H245.199V121.9C245.199 121.8 245.299 121.7 245.399 121.7C245.499 121.7 245.599 121.8 245.599 121.9V123.6H246.199C246.399 123.6 246.499 123.7 246.499 123.9Z" fill="#263238"/>
<path d="M250.399 123.6C251.599 123.6 252.499 124.6 252.499 125.8C252.499 127 251.599 128 250.399 128C249.199 128 248.299 127 248.299 125.8C248.299 124.7 249.199 123.6 250.399 123.6ZM250.399 127.7C251.299 127.7 252.099 126.9 252.099 125.9C252.099 124.9 251.299 124.1 250.399 124.1C249.499 124.1 248.699 124.9 248.699 125.9C248.699 126.9 249.499 127.7 250.399 127.7Z" fill="#263238"/>
<path d="M256.599 123.8C256.599 123.7 256.699 123.6 256.799 123.6C256.899 123.6 256.999 123.7 256.999 123.8V126.2C256.999 127 257.599 127.6 258.399 127.6C259.199 127.6 259.799 127 259.799 126.2V123.8V123.7C259.799 123.7 259.899 123.7 259.899 123.6H259.999C259.999 123.6 259.999 123.6 260.099 123.7V123.8V126.2V126.3V127.7C260.099 128.9 259.099 129.8 257.999 129.8C257.699 129.8 257.399 129.7 257.099 129.6C256.999 129.5 256.999 129.4 256.999 129.3C257.099 129.2 257.199 129.2 257.299 129.2C257.499 129.3 257.799 129.4 257.999 129.4C258.899 129.4 259.699 128.7 259.699 127.7V127.4C259.399 127.8 258.899 128 258.299 128C257.299 128 256.499 127.2 256.499 126.2V123.8H256.599Z" fill="#263238"/>
<path d="M263.899 123.6C265.099 123.6 265.999 124.6 265.999 125.8C265.999 127 265.099 128 263.899 128C262.699 128 261.799 127 261.799 125.8C261.799 124.7 262.799 123.6 263.899 123.6ZM263.899 127.7C264.799 127.7 265.599 126.9 265.599 125.9C265.599 124.9 264.799 124.1 263.899 124.1C262.999 124.1 262.199 124.9 262.199 125.9C262.299 126.9 262.999 127.7 263.899 127.7Z" fill="#263238"/>
<path d="M267.499 123.8C267.499 123.7 267.599 123.6 267.699 123.6C267.799 123.6 267.899 123.7 267.899 123.8V126.2C267.899 127 268.499 127.6 269.299 127.6C270.099 127.6 270.699 127 270.699 126.2V123.8C270.699 123.7 270.799 123.6 270.899 123.6C270.999 123.6 271.099 123.7 271.099 123.8V126.2C271.099 127.2 270.299 128 269.299 128C268.299 128 267.499 127.2 267.499 126.2V123.8Z" fill="#263238"/>
<path d="M273.199 123.9C273.199 123.8 273.299 123.7 273.399 123.7C273.499 123.7 273.599 123.8 273.599 123.9V124.9C273.599 124.9 273.599 124.8 273.699 124.8C273.999 124.3 274.599 123.7 275.499 123.7C275.599 123.7 275.699 123.8 275.699 123.9C275.699 124 275.599 124.1 275.499 124.1C274.899 124.1 274.499 124.4 274.199 124.8C273.899 125.2 273.699 125.7 273.699 125.8V125.9V127.9C273.699 128 273.599 128.1 273.499 128.1C273.399 128.1 273.299 128 273.299 127.9V123.9H273.199Z" fill="#263238"/>
<path d="M283.199 125.5C283.199 124.7 282.599 124.1 281.799 124.1C280.999 124.1 280.399 124.7 280.399 125.5V127.9V128C280.399 128.1 280.299 128.1 280.199 128.1H280.099C279.999 128.1 279.999 128 279.999 128V127.9V125.5V125.4V123.9C279.999 123.8 280.099 123.7 280.199 123.7C280.299 123.7 280.399 123.8 280.399 123.9V124.3C280.699 123.9 281.199 123.7 281.799 123.7C282.799 123.7 283.599 124.5 283.599 125.5V127.9C283.599 128 283.499 128.1 283.399 128.1C283.299 128.1 283.199 128 283.199 127.9V125.5Z" fill="#263238"/>
<path d="M285.499 123.8C285.499 123.7 285.599 123.6 285.699 123.6C285.799 123.6 285.899 123.7 285.899 123.8V126.2C285.899 127 286.499 127.6 287.299 127.6C288.099 127.6 288.699 127 288.699 126.2V123.8C288.699 123.7 288.799 123.6 288.899 123.6C288.999 123.6 289.099 123.7 289.099 123.8V126.2C289.099 127.2 288.299 128 287.299 128C286.299 128 285.499 127.2 285.499 126.2V123.8Z" fill="#263238"/>
<path d="M297.599 125.5C297.599 124.7 296.999 124.1 296.199 124.1C295.399 124.1 294.799 124.7 294.799 125.5V127.9C294.799 128 294.699 128 294.699 128H294.599C294.599 128 294.599 128 294.499 128V125.6C294.499 124.8 293.899 124.2 293.099 124.2C292.299 124.2 291.699 124.8 291.699 125.6V128C291.699 128.1 291.699 128.1 291.599 128.2C291.599 128.2 291.599 128.2 291.499 128.2C291.399 128.2 291.299 128.1 291.299 128V125.6V125.4V123.9C291.299 123.8 291.399 123.7 291.499 123.7C291.599 123.7 291.699 123.8 291.699 123.9V124.3C291.999 123.9 292.499 123.7 293.099 123.7C293.799 123.7 294.399 124.1 294.699 124.7C294.999 124.1 295.599 123.7 296.299 123.7C297.299 123.7 298.099 124.5 298.099 125.5V127.9C298.099 128 297.999 128.1 297.899 128.1C297.799 128.1 297.699 128 297.699 127.9V125.5H297.599Z" fill="#263238"/>
<path d="M299.899 126V125.8V121.9C299.899 121.8 299.999 121.7 300.099 121.7C300.199 121.7 300.299 121.8 300.299 121.9V124.5C300.699 124 301.299 123.6 301.999 123.6C303.199 123.6 304.199 124.6 304.199 125.8C304.199 127 303.199 128 301.999 128C301.299 128 300.699 127.7 300.299 127.1V127.7C300.299 127.8 300.199 127.9 300.099 127.9C299.999 127.9 299.899 127.8 299.899 127.7V126ZM300.299 125.9C300.299 126.9 301.099 127.7 301.999 127.7C302.999 127.7 303.699 126.9 303.699 125.9C303.699 124.9 302.899 124.1 301.999 124.1C301.099 124.1 300.299 124.8 300.299 125.9Z" fill="#263238"/>
<path d="M305.6 125.9C305.6 124.7 306.6 123.7 307.8 123.7C309 123.7 309.9 124.6 310 125.8C310 125.9 309.9 126 309.8 126H306.1C306.1 127 306.9 127.7 307.8 127.7C308.4 127.7 308.9 127.4 309.2 126.9C309.3 126.8 309.4 126.8 309.5 126.8C309.6 126.9 309.6 127 309.6 127.1C309.2 127.7 308.5 128.1 307.8 128.1C306.5 128.1 305.6 127.1 305.6 125.9ZM306 125.5H309.4C309.3 124.7 308.5 124 307.7 124C306.9 124.1 306.2 124.7 306 125.5Z" fill="#263238"/>
<path d="M311.299 123.9C311.299 123.8 311.399 123.7 311.499 123.7C311.599 123.7 311.699 123.8 311.699 123.9V124.9C311.699 124.9 311.699 124.8 311.799 124.8C312.099 124.3 312.699 123.7 313.599 123.7C313.699 123.7 313.799 123.8 313.799 123.9C313.799 124 313.699 124.1 313.599 124.1C312.999 124.1 312.599 124.4 312.299 124.8C311.999 125.2 311.799 125.7 311.799 125.8V125.9V127.9C311.799 128 311.699 128.1 311.599 128.1C311.499 128.1 311.399 128 311.399 127.9V123.9H311.299Z" fill="#263238"/>
<path d="M162.3 103.8L162.2 103.7C162.2 103.7 162.2 103.7 162.2 103.6L162.1 103.5L162 103.4L157.7 93.1C157.5 92.6 157.7 92 158.2 91.8C158.7 91.6 159.2 91.8 159.5 92.3L162.9 100.5L166.3 92.3C166.5 91.8 167.1 91.6 167.6 91.8C168.1 92 168.3 92.6 168.1 93.1L163.7 103.4C163.7 103.4 163.7 103.5 163.6 103.5L163.5 103.6C163.5 103.6 163.5 103.6 163.5 103.7L163.4 103.8L163.3 103.9C163.2 103.9 163.2 103.9 163.2 103.9C163.1 103.9 163.1 103.9 163 103.9C162.9 103.9 162.9 103.9 162.8 103.9H162.7C162.4 103.9 162.3 103.9 162.3 103.8Z" fill="#263238"/>
<path d="M169.5 99.6C169.5 97.2 171.4 95.2 173.8 95.2C176.1 95.2 177.9 96.9 178.1 99.3V99.4C178.1 99.4 178.1 99.5 178.1 99.6C178 100 177.7 100.3 177.2 100.3H171.6C171.7 100.7 171.9 101.2 172.2 101.5C172.6 101.9 173.3 102.2 173.9 102.3C174.5 102.4 175.3 102.2 175.7 101.9C176.1 101.5 176.8 101.6 177 101.8C177.2 102 177.4 102.6 177 102.9C176.1 103.7 175.1 104.1 173.8 104.1C171.3 104 169.5 102 169.5 99.6ZM171.4 98.7H176.4C176.2 98 175.3 97 173.8 96.8C172.3 96.9 171.5 98 171.4 98.7Z" fill="#263238"/>
<path d="M185.9 96.1001C185.9 96.6001 185.5 97.0001 185 97.0001C184.6 97.0001 184.2 97.1 183.9 97.3C183.6 97.5 183.3 97.8001 183.1 98.1001C182.7 98.7001 182.5 99.3001 182.4 99.6001V103C182.4 103.5 182 103.9 181.4 103.9C180.9 103.9 180.5 103.5 180.5 103V96.0001C180.5 95.5001 180.9 95.1001 181.4 95.1001C181.9 95.1001 182.4 95.5001 182.4 96.0001V96.1001C182.5 96.0001 182.6 95.8001 182.8 95.7001C183.4 95.3001 184.1 95.0001 185 95.0001C185.5 95.2001 185.9 95.6001 185.9 96.1001Z" fill="#263238"/>
<path d="M190.1 93C190.1 93.5 189.7 94 189.1 94C188.6 94 188.1 93.6 188.1 93V92.6C188.1 92.1 188.5 91.6 189.1 91.6C189.6 91.6 190.1 92 190.1 92.6V93ZM190.1 96.2V103.1C190.1 103.6 189.7 104.1 189.1 104.1C188.6 104.1 188.1 103.7 188.1 103.1V96.2C188.1 95.6 188.5 95.2 189.1 95.2C189.7 95.2 190.1 95.6 190.1 96.2Z" fill="#263238"/>
<path d="M196.1 94.6V94.8H196.6C197.1 94.8 197.6 95.2 197.6 95.8C197.6 96.3 197.2 96.8 196.6 96.8H196.1V103C196.1 103.5 195.7 104 195.1 104C194.6 104 194.1 103.6 194.1 103V96.8H193.6C193.1 96.8 192.6 96.4 192.6 95.8C192.6 95.3 193 94.8 193.6 94.8H194.1V94.6C194.1 93.9 194.2 93.4 194.4 92.9C194.6 92.4 195.1 92 195.7 91.8C196.1 91.7 196.4 91.7 196.8 91.7C197.3 91.7 197.8 92.1 197.8 92.7C197.8 93.2 197.4 93.7 196.8 93.7C196.6 93.7 196.4 93.7 196.3 93.8C196.2 93.8 196.2 93.8 196.2 93.9C196.2 93.7 196.1 94 196.1 94.6Z" fill="#263238"/>
<path d="M201.5 93C201.5 93.5 201.1 94 200.5 94C200 94 199.5 93.6 199.5 93V92.6C199.5 92.1 199.9 91.6 200.5 91.6C201 91.6 201.5 92 201.5 92.6V93ZM201.5 96.2V103.1C201.5 103.6 201.1 104.1 200.5 104.1C200 104.1 199.5 103.7 199.5 103.1V96.2C199.5 95.6 199.9 95.2 200.5 95.2C201.1 95.2 201.5 95.6 201.5 96.2Z" fill="#263238"/>
<path d="M203.899 99.6C203.899 97.1 205.899 95.2 208.399 95.2C209.499 95.2 210.399 95.6 211.199 96.2C211.599 96.5 211.699 97.1 211.399 97.5C210.999 97.9 210.499 98 210.099 97.7C209.599 97.4 209.099 97.1 208.399 97.1C206.999 97.1 205.799 98.3 205.799 99.6C205.799 101 206.999 102.1 208.399 102.1C208.999 102.1 209.599 101.9 210.099 101.5C210.499 101.2 211.099 101.3 211.399 101.7C211.699 102.1 211.599 102.7 211.199 103C210.399 103.5 209.499 103.9 208.399 103.9C205.999 104 203.899 102 203.899 99.6Z" fill="#263238"/>
<path d="M222.1 99.6V103.1C222.1 103.6 221.7 104 221.2 104C220.7 104 220.4 103.7 220.3 103.2C219.6 103.7 218.8 104 218 104C216.8 104 215.8 103.5 215 102.7C214.2 101.9 213.8 100.8 213.8 99.6C213.8 98.4 214.2 97.3 215 96.5C215.8 95.7 216.8 95.2 218 95.2C218.9 95.2 219.7 95.5 220.3 96C220.4 95.6 220.8 95.2 221.2 95.2C221.7 95.2 222.1 95.6 222.1 96.2V99.6ZM220.2 99.6C220.2 98.9 219.9 98.2 219.5 97.8C219.1 97.3 218.5 97.1 217.9 97.1C217.3 97.1 216.7 97.3 216.3 97.8C215.9 98.2 215.6 98.9 215.6 99.6C215.6 100.3 215.8 101 216.3 101.4C216.7 101.8 217.3 102.1 217.9 102.1C218.5 102.1 219.1 101.9 219.5 101.4C219.9 101 220.2 100.3 220.2 99.6Z" fill="#263238"/>
<path d="M229.5 96.2C229.5 96.7 229 97.2 228.5 97.2H228.1V102.1C228.6 102.1 229.1 102.5 229.1 103.1C229.1 103.7 228.7 104.1 228.1 104.1C227 104.1 226.1 103.2 226.1 102.1V97.2H225.6C225.1 97.2 224.6 96.8 224.6 96.2C224.6 95.7 225 95.2 225.6 95.2H226.1V92.6C226.1 92.1 226.5 91.6 227.1 91.6C227.6 91.6 228.1 92 228.1 92.6V95.2H228.5C229 95.2 229.5 95.6 229.5 96.2Z" fill="#263238"/>
<path d="M234.5 93C234.5 93.5 234.1 94 233.5 94C233 94 232.5 93.6 232.5 93V92.6C232.5 92.1 232.9 91.6 233.5 91.6C234 91.6 234.5 92 234.5 92.6V93ZM234.5 96.2V103.1C234.5 103.6 234.1 104.1 233.5 104.1C233 104.1 232.5 103.7 232.5 103.1V96.2C232.5 95.6 232.9 95.2 233.5 95.2C234.1 95.2 234.5 95.6 234.5 96.2Z" fill="#263238"/>
<path d="M238.399 102.7C237.599 101.9 237.199 100.8 237.199 99.6C237.199 98.4 237.699 97.4 238.399 96.5C239.199 95.7 240.199 95.2 241.399 95.2C242.599 95.2 243.599 95.7 244.299 96.5C245.099 97.3 245.499 98.4 245.499 99.6C245.499 100.8 245.099 101.9 244.299 102.7C243.599 103.5 242.499 104 241.399 104C240.199 104.1 239.199 103.6 238.399 102.7ZM239.099 99.6C239.099 100.4 239.299 101 239.699 101.5C240.099 101.9 240.699 102.2 241.399 102.2C241.999 102.2 242.599 102 242.999 101.5C243.399 101 243.699 100.4 243.699 99.6C243.699 98.9 243.499 98.2 242.999 97.8C242.599 97.4 241.999 97.1 241.399 97.1C240.699 97.1 240.099 97.4 239.699 97.8C239.299 98.3 239.099 98.9 239.099 99.6Z" fill="#263238"/>
<path d="M256 98.9V103.1C256 103.6 255.6 104 255.1 104C254.6 104 254.2 103.6 254.2 103.1V98.9C254.2 97.9 253.4 97.1 252.4 97.1C251.4 97.1 250.6 97.9 250.6 98.9V103.1C250.6 103.2 250.6 103.2 250.6 103.3C250.5 103.7 250.1 104.1 249.7 104.1C249.2 104.1 248.8 103.7 248.8 103.2V99V96.3C248.8 95.8 249.2 95.4 249.7 95.4C250.1 95.4 250.4 95.6 250.6 95.9C251.1 95.6 251.8 95.4 252.5 95.4C254.3 95.2 256 96.9 256 98.9Z" fill="#263238"/>
<path d="M436.3 39.7001C436.3 39.7001 429.7 92.3 418.9 104.1C405.9 118.3 396.5 116.2 391.3 123.5C386.1 116.2 376.7 118.3 363.7 104C352.9 92.2001 346.3 39.6 346.3 39.6C374.8 25.8 391.3 10.3 391.3 10.3C391.9 10.8 408.3 26.1 436.3 39.7001Z" fill="#326039"/>
<path opacity="0.1" d="M391.399 10.4001V123.6C386.199 116.3 376.799 118.4 363.799 104.1C352.999 92.3 346.399 39.7001 346.399 39.7001C374.799 25.8001 391.299 10.4001 391.399 10.4001C391.299 10.4001 391.299 10.4001 391.399 10.4001Z" fill="#326039"/>
<path d="M353.399 43.9C353.399 43.9 358.899 88.3 368.099 98.3C379.099 110.3 386.999 108.5 391.399 114.7C395.799 108.5 403.799 110.3 414.699 98.3C423.799 88.3 429.399 43.9 429.399 43.9C405.399 32.2 391.399 19.2 391.399 19.2C391.399 19.2 377.399 32.2 353.399 43.9Z" fill="#E7F9AB"/>
<path opacity="0.2" d="M429.3 43.9C429.3 43.9 423.8 88.3 414.6 98.3C403.7 110.3 395.7 108.5 391.3 114.7V19.2C391.8 19.6 405.7 32.4 429.3 43.9Z" fill="white"/>
<path d="M391.4 84.6001C401.12 84.6001 409 76.7203 409 67.0001C409 57.2798 401.12 49.4001 391.4 49.4001C381.68 49.4001 373.8 57.2798 373.8 67.0001C373.8 76.7203 381.68 84.6001 391.4 84.6001Z" fill="#455A64"/>
<path d="M389.3 78.4L381.5 70.2L384.4 67.4L388.7 71.9L398.1 57.6L401.4 59.8L389.3 78.4Z" fill="white"/>
<path d="M429.3 115.8L426.8 116.3L426.3 118.9L425.7 116.3L423.2 115.8L425.7 115.2L426.3 112.7L426.9 115.2L429.3 115.8Z" fill="#FFC727"/>
<path d="M355.5 95.8L353 96.3L352.5 98.9001L351.9 96.3L349.4 95.8L351.9 95.2001L352.5 92.8L353 95.2001L355.5 95.8Z" fill="#FFC727"/>
<path d="M366.9 26.6L364.4 27.1L363.9 29.7001L363.3 27.1L360.8 26.6L363.3 26L363.9 23.5L364.4 26L366.9 26.6Z" fill="#FFC727"/>
<path d="M424.9 104L423.5 104.3L423.2 105.7L422.9 104.3L421.5 104L422.9 103.7L423.2 102.3L423.5 103.7L424.9 104Z" fill="#FFC727"/>
<path d="M434.5 74.8L433.1 75L432.8 76.5L432.5 75L431.1 74.8L432.5 74.4L432.8 73L433.1 74.4L434.5 74.8Z" fill="#FFC727"/>
<path d="M422.7 23.5L421.3 23.8L421 25.2L420.7 23.8L419.3 23.5L420.7 23.2L421 21.8L421.3 23.2L422.7 23.5Z" fill="#FFC727"/>
<path d="M387.1 129.9L385.7 130.1L385.4 131.6L385.1 130.1L383.7 129.9L385.1 129.5L385.4 128.1L385.7 129.5L387.1 129.9Z" fill="#FFC727"/>
<path d="M347.8 99.3L346.4 99.5001L346.1 101L345.8 99.5001L344.4 99.3L345.8 98.9001L346.1 97.5001L346.4 98.9001L347.8 99.3Z" fill="#FFC727"/>
<path d="M350 58.6L348.6 58.8L348.3 60.3L347.9 58.8L346.5 58.6L347.9 58.2001L348.3 56.8L348.6 58.2001L350 58.6Z" fill="#FFC727"/>
<path d="M408.4 110.6C407.9 110.6 407.9 111.4 408.4 111.4C408.9 111.4 408.9 110.6 408.4 110.6Z" fill="#FFC727"/>
<path d="M344.2 37.4001C343.7 37.4001 343.7 38.2001 344.2 38.2001C344.7 38.2001 344.7 37.4001 344.2 37.4001Z" fill="#FFC727"/>
<path d="M421 112.9C420.5 112.9 420.5 113.7 421 113.7C421.5 113.7 421.5 112.9 421 112.9Z" fill="#FFC727"/>
<path d="M380.1 49.8C379.6 49.8 379.6 50.6 380.1 50.6C380.6 50.6 380.6 49.8 380.1 49.8Z" fill="#FFC727"/>
<path d="M342.7 66.1C342.2 66.1 342.2 66.9 342.7 66.9C343.2 66.9 343.2 66.1 342.7 66.1Z" fill="#FFC727"/>
<path d="M333.3 61.7C332.9 61.7 332.9 62.3 333.3 62.3C333.7 62.2 333.7 61.7 333.3 61.7Z" fill="#FFC727"/>
<path d="M410.3 18.2C409.9 18.2 409.9 18.8 410.3 18.8C410.7 18.8 410.7 18.2 410.3 18.2Z" fill="#FFC727"/>
<path d="M370.5 116C370.1 116 370.1 116.6 370.5 116.6C370.8 116.6 370.8 116 370.5 116Z" fill="#FFC727"/>
<path d="M361.6 110.8C360.6 110.8 360.6 112.3 361.6 112.3C362.5 112.3 362.6 110.8 361.6 110.8Z" fill="#FFC727"/>
<path d="M169.3 178.4V195.2H173.7V202.9L181.4 195.2H233.5V178.4H169.3Z" fill="white"/>
<path d="M169.3 178.4C169.3 184.1 169.5 189.7 169.5 195.2L169.3 195H173.7H173.9V195.2V202.9L173.5 202.7L181.1 195C181.2 194.9 181.2 194.9 181.3 194.9C194.3 194.9 220.4 194.8 233.4 194.8L233 195.2V178.4L233.3 178.7C217.5 178.7 185.3 178.5 169.3 178.4ZM169.3 178.4L201.3 178.2L233.5 178.1H233.8V178.4V195.2V195.6H233.4H207.4C207.5 195.5 180.6 195.7 181.6 195.5L173.9 203.1L173.5 203.5V202.9V195.2L173.7 195.4H169.3H169.1V195.2C169.1 189.6 169.3 184 169.3 178.4Z" fill="#263238"/>
<path d="M180.5 184.5V186.8H179.9V184.5C179.9 183.6 179.2 182.9 178.4 182.9C177.6 182.9 176.9 183.6 176.9 184.5V186.8H176.3V184.5C176.3 183.3 177.2 182.3 178.4 182.3C179.6 182.3 180.5 183.3 180.5 184.5Z" fill="#263238"/>
<path d="M176.3 185.1H177V186.8H176.3V185.1Z" fill="#263238"/>
<path d="M180.499 185.3V186.8H179.899V185.2L180.499 185.3Z" fill="#263238"/>
<path d="M181.3 185.9H175.5V190.7H181.3V185.9Z" fill="#263238"/>
<path d="M190.6 184.8C189.8 186.4 188.6 187.6 187 188.4C187.8 186.9 189.1 185.7 190.6 184.8Z" fill="#263238"/>
<path d="M187 184.8C188.6 185.6 189.8 186.8 190.6 188.4C189.1 187.6 187.8 186.4 187 184.8Z" fill="#263238"/>
<path d="M191.4 186.6C189.7 187.1 188 187.1 186.3 186.6C188 186.1 189.7 186.1 191.4 186.6Z" fill="#263238"/>
<path d="M188.8 184.1C189.3 185.8 189.3 187.5 188.8 189.2C188.3 187.5 188.3 185.8 188.8 184.1Z" fill="#263238"/>
<path d="M199.4 184.8C198.6 186.4 197.4 187.6 195.8 188.4C196.6 186.9 197.9 185.7 199.4 184.8Z" fill="#263238"/>
<path d="M195.8 184.8C197.4 185.6 198.6 186.8 199.4 188.4C197.9 187.6 196.6 186.4 195.8 184.8Z" fill="#263238"/>
<path d="M200.2 186.6C198.5 187.1 196.8 187.1 195.1 186.6C196.8 186.1 198.5 186.1 200.2 186.6Z" fill="#263238"/>
<path d="M197.6 184.1C198.1 185.8 198.1 187.5 197.6 189.2C197.1 187.5 197.1 185.8 197.6 184.1Z" fill="#263238"/>
<path d="M208.2 184.8C207.4 186.4 206.2 187.6 204.6 188.4C205.5 186.9 206.7 185.7 208.2 184.8Z" fill="#263238"/>
<path d="M204.6 184.8C206.2 185.6 207.4 186.8 208.2 188.4C206.7 187.6 205.5 186.4 204.6 184.8Z" fill="#263238"/>
<path d="M208.999 186.6C207.299 187.1 205.599 187.1 203.899 186.6C205.599 186.1 207.299 186.1 208.999 186.6Z" fill="#263238"/>
<path d="M206.399 184.1C206.899 185.8 206.899 187.5 206.399 189.2C205.899 187.5 205.899 185.8 206.399 184.1Z" fill="#263238"/>
<path d="M217 184.8C216.2 186.4 215 187.6 213.4 188.4C214.3 186.9 215.5 185.7 217 184.8Z" fill="#263238"/>
<path d="M213.4 184.8C215 185.6 216.2 186.8 217 188.4C215.5 187.6 214.3 186.4 213.4 184.8Z" fill="#263238"/>
<path d="M217.8 186.6C216.1 187.1 214.4 187.1 212.7 186.6C214.4 186.1 216.1 186.1 217.8 186.6Z" fill="#263238"/>
<path d="M215.2 184.1C215.7 185.8 215.7 187.5 215.2 189.2C214.7 187.5 214.7 185.8 215.2 184.1Z" fill="#263238"/>
<path d="M225.9 184.8C225.1 186.4 223.9 187.6 222.3 188.4C223.1 186.9 224.3 185.7 225.9 184.8Z" fill="#263238"/>
<path d="M222.2 184.8C223.8 185.6 225 186.8 225.8 188.4C224.3 187.6 223.1 186.4 222.2 184.8Z" fill="#263238"/>
<path d="M226.6 186.6C224.9 187.1 223.2 187.1 221.5 186.6C223.2 186.1 224.9 186.1 226.6 186.6Z" fill="#263238"/>
<path d="M224 184.1C224.5 185.8 224.5 187.5 224 189.2C223.5 187.5 223.5 185.8 224 184.1Z" fill="#263238"/>
<path d="M98.9998 381.6L41.2998 428.1H44.4998L111.2 381.6H98.9998Z" fill="#C7C7C7"/>
<path d="M104.399 381.6L75.8994 428.1H79.1994L114.099 381.6H104.399Z" fill="#C7C7C7"/>
<path d="M118.4 381.6L147 428.1H143.7L108.7 381.6H118.4Z" fill="#C7C7C7"/>
<path d="M123.4 381.6L181.2 428.1H177.9L111.2 381.6H123.4Z" fill="#C7C7C7"/>
<path d="M219.8 364.5V350.9L140.5 347.6L98.5996 235.8H2.59961L36.5996 364.5L117.7 387.3H122.8L219.8 364.5Z" fill="#455A64"/>
<path opacity="0.1" d="M2.59961 235.8H13.5996L48.9996 353.1L120.8 373.4L219.8 350.9V364.5L122.8 387.3H117.7L36.5996 364.5L2.59961 235.8Z" fill="black"/>
<path d="M176.6 449.3C174.2 448.4 119.7 403.8 118.7 400.8C118.3 399.7 124.3 391.4 131.9 381.5C133.5 379.4 135.2 377.2 137 375C148.3 360.7 160.6 345.7 160.6 345.7L197.1 375.4L172.5 403.9L167.1 410.2C167.1 410.2 180.3 436.6 181 440C181.8 443.4 179 450.2 176.6 449.3Z" fill="#AD6359"/>
<path d="M176.6 449.3C174.2 448.4 119.7 403.8 118.7 400.8C118.2 399.4 127.2 387.4 137 375L172.5 403.9L167.1 410.2C167.1 410.2 180.3 436.6 181 440C181.8 443.4 179 450.2 176.6 449.3Z" fill="#EBEBEB"/>
<path d="M176.6 449.3C174.2 448.4 119.7 403.8 118.7 400.8C118.3 399.7 124.3 391.4 131.9 381.5L167.1 410.2C167.1 410.2 180.3 436.6 181 440C181.8 443.4 179 450.2 176.6 449.3Z" fill="#326039"/>
<path d="M177.599 446.5C168.699 438.8 131.899 408.6 122.399 401.7C122.299 401.6 122.299 401.7 122.399 401.8C131.099 409.6 168.099 439.5 177.499 446.7C177.699 446.8 177.799 446.6 177.599 446.5Z" fill="#263238"/>
<path d="M179.199 435.1C177.099 433.2 174.199 432.5 171.899 432.9C169.799 433.2 167.399 434.2 165.899 436.1C165.899 436.2 165.999 436.2 165.999 436.2C169.399 433.1 175.299 432.6 179.099 435.3C179.199 435.3 179.299 435.2 179.199 435.1Z" fill="#263238"/>
<path d="M170 413.9C166.4 410.9 161.1 408.7 156.4 409.8C156.2 409.8 156.3 410.1 156.4 410.1C161.1 411.1 165.3 412.4 169.7 414.4C170 414.6 170.2 414.2 170 413.9Z" fill="#263238"/>
<path d="M171.899 417.4C168.299 414.4 162.999 412.2 158.299 413.3C158.099 413.3 158.199 413.6 158.299 413.6C162.999 414.6 167.199 415.9 171.599 417.9C171.899 418 172.099 417.6 171.899 417.4Z" fill="#263238"/>
<path d="M173.799 420.8C170.199 417.8 164.899 415.6 160.199 416.7C159.999 416.7 160.099 417 160.199 417C164.899 418 169.099 419.3 173.499 421.3C173.799 421.4 173.999 421 173.799 420.8Z" fill="#263238"/>
<path d="M175.699 424.2C172.099 421.2 166.799 419 162.099 420.1C161.899 420.1 161.999 420.4 162.099 420.4C166.799 421.4 170.999 422.7 175.399 424.7C175.699 424.8 175.999 424.4 175.699 424.2Z" fill="#263238"/>
<path d="M131.899 394.9C127.799 391.6 122.599 397.9 126.699 401.3C130.799 404.6 135.999 398.2 131.899 394.9Z" fill="white"/>
<path d="M181.899 407.4C181.299 404.4 177.799 403.9 175.299 404.6C171.299 405.7 167.099 408.2 164.299 411.2C164.199 411.3 164.299 411.4 164.299 411.4C164.199 411.7 164.299 412.2 164.699 412.2C168.799 412.5 173.099 413.4 177.099 412.5C179.599 412 182.399 410.3 181.899 407.4ZM170.999 411.5C168.999 411.4 166.999 411.2 164.999 411.1C167.099 409.8 169.199 408.4 171.499 407.4C172.599 406.9 173.699 406.4 174.899 406C176.699 405.4 182.799 405.3 179.899 409.6C178.299 412 173.399 411.7 170.999 411.5Z" fill="#263238"/>
<path d="M154.099 405.2C156.899 408.3 160.899 410.1 164.399 412.2C164.799 412.4 165.099 412.1 165.199 411.8C165.299 411.8 165.399 411.8 165.299 411.7C164.699 407.7 162.799 403.1 160.099 400C158.499 398.1 155.299 396.3 153.099 398.5C151.099 400.3 152.499 403.4 154.099 405.2ZM153.599 401.3C153.699 396.1 158.599 399.7 159.699 401.2C160.399 402.2 161.099 403.2 161.699 404.3C162.899 406.5 163.799 408.8 164.899 411.1C163.199 410 161.499 409 159.799 407.9C157.699 406.6 153.599 404.1 153.599 401.3Z" fill="#263238"/>
<path d="M235.099 319.6C232.299 338.7 184.499 393.4 178.999 399.7C178.199 400.6 177.699 401.1 177.699 401.1L138.999 370.6L139.499 370L174.399 325.4L71.8994 323.5L111.199 293.7C111.199 293.7 114.299 295.6 120.899 294.7C143.599 291.7 194.699 285 206.699 285.6C222.099 286.5 237.599 302 235.099 319.6Z" fill="#263238"/>
<path d="M186.899 308.9C185.599 310.2 184.499 311.9 183.299 313.4C182.099 315 180.799 316.5 179.599 318.1C179.799 317.6 179.999 317.2 180.299 316.7C181.099 315.1 181.699 313.5 182.599 312C182.699 311.9 182.499 311.8 182.499 311.9C181.599 313.4 180.499 314.8 179.599 316.4C179.199 317.1 178.899 317.9 178.499 318.7C178.299 319.1 178.099 319.5 177.999 320C177.899 320.2 177.799 320.4 177.799 320.6C177.199 321.3 176.699 322.1 176.199 322.8C174.999 324.5 173.999 326.2 172.799 327.9C172.699 328 172.899 328.1 172.899 328C174.099 326.5 175.499 325 176.699 323.5C177.899 321.9 179.099 320.3 180.299 318.7C181.399 317.1 182.599 315.5 183.699 313.9C184.699 312.3 186.099 310.7 186.899 308.9C186.999 308.9 186.999 308.8 186.899 308.9Z" fill="#37474F"/>
<path d="M182.999 392.1C180.799 390.2 178.399 388.4 176.099 386.6C173.799 384.8 171.399 383 169.099 381.3C164.399 377.8 159.699 374.2 154.999 370.7C152.399 368.8 149.799 366.9 147.099 365.2C146.999 365.1 146.899 365.3 146.999 365.4C151.499 369.2 156.199 372.7 160.899 376.2C165.599 379.7 170.299 383.2 175.099 386.7C177.699 388.6 180.299 390.5 182.999 392.3C182.999 392.4 183.099 392.2 182.999 392.1Z" fill="#37474F"/>
<path d="M99.7994 243.3C110.399 263.6 123.099 285 134.999 288.2C146.399 291.2 173.399 262.8 177.999 253.4C179.599 250.2 158.199 235.9 155.099 238.3C149.399 242.8 136.899 257.1 135.099 256.7C133.199 256.3 118.099 242.8 104.399 231.4C96.0994 224.6 92.3994 229.3 99.7994 243.3Z" fill="#AD6359"/>
<path d="M159 205.4L150.8 234.1C150.5 234.9 150.9 235.6 151.7 235.7L166.6 236.2C167.4 236.2 168.4 235.6 168.7 234.7L176.9 206C177.2 205.2 176.8 204.5 176 204.4L161.1 203.9C160.3 203.9 159.3 204.6 159 205.4Z" fill="#A6A6A6"/>
<path d="M160.8 205.4L152.6 234.1C152.3 234.9 152.7 235.6 153.5 235.7L168.4 236.2C169.2 236.2 170.2 235.6 170.5 234.7L178.7 206C179 205.2 178.6 204.5 177.8 204.4L162.9 203.9C162.1 204 161.1 204.6 160.8 205.4Z" fill="#DBDBDB"/>
<path d="M164.8 206.9C164.8 207.6 164.2 208.1 163.5 208.1C162.8 208.1 162.3 207.5 162.3 206.8C162.3 206.1 162.9 205.6 163.6 205.6C164.3 205.6 164.9 206.2 164.8 206.9Z" fill="#455A64"/>
<path d="M184.9 237.1C186.2 228.8 185.2 226.4 190 220C193.1 215.8 191.8 211.9 186.8 214.3C178.7 218.2 174.8 228.6 174.5 232.6L184.9 237.1Z" fill="#AD6359"/>
<path d="M174.2 259C174.2 259 182 249.9 184.2 241.2C185.7 235.2 187.6 221.6 174.4 208.5C171.3 205.4 164.6 203.2 167.9 210.1C170.2 215 173.2 217.5 174 220.6C174 220.6 165.2 218.8 162.2 222.1C160.9 223.6 157.3 227.6 155 231.2C155 231.2 155.6 231.9 156.6 232.7C156.6 232.7 154.1 236 154.6 242.3L174.2 259Z" fill="#AD6359"/>
<path d="M184.7 235.1C183.2 232.2 180 226.1 175.6 222C170.7 217.5 160.1 210 156.8 213.6C154.4 216.3 158.2 219.5 158.2 219.5C158.2 219.5 153.2 217.3 151.5 220.2C150 222.8 153.1 225.1 153.1 225.1C153.1 225.1 149.8 224.3 148.8 227.1C147.6 230.5 154.7 231.6 156.5 236C156.8 237.2 184.7 235.1 184.7 235.1Z" fill="#AD6359"/>
<path d="M171.6 228C169.8 225.5 164.1 220.8 158.2 219.5C158.1 219.5 158 219.6 158.1 219.6C164.3 222.4 169.5 226.3 171.6 228Z" fill="#263238"/>
<path d="M166.9 232.8C165.1 230.8 159.1 226.3 153 225.1C152.9 225.1 152.8 225.2 152.9 225.2C159.5 227.9 164.7 231.2 166.9 232.8Z" fill="#263238"/>
<path d="M147.799 242L170.099 265.7C170.099 265.7 146.499 292.1 135.499 289.4C124.399 286.6 103.499 256.7 96.7992 237.7C92.1992 224.5 99.4992 226.7 107.199 233.1C114.899 239.6 134.999 255.6 135.899 255.3C136.699 255 147.799 242 147.799 242Z" fill="#326039"/>
<path opacity="0.1" d="M140.2 289.1C138.5 289.6 136.8 289.7 135.4 289.3C124.3 286.5 103.4 256.6 96.6997 237.6C93.5997 228.9 95.7996 226.9 99.7996 228.4C111.9 246.2 127.9 270.2 140.2 289.1Z" fill="black"/>
<path d="M162.799 269.6C159.599 266.3 146.799 252.5 144.299 249.3C144.099 249.1 144.199 248.9 144.399 249.1C154.299 258.6 159.899 266.1 162.899 269.4C162.999 269.6 162.899 269.7 162.799 269.6Z" fill="#263238"/>
<path d="M124.599 307.4C124.599 307.4 51.2993 320.8 50.8993 320.4C50.5993 320 58.9993 240.7 83.7993 227.3C87.6993 225.2 97.2993 223.9 101.299 228.1C112.999 239.9 125.499 306.3 124.599 307.4Z" fill="#326039"/>
<path d="M123.8 300.8L51.5996 313.2C51.8996 311 52.1996 308.4 52.6996 305.5L122.5 293.5C123 296.3 123.5 298.8 123.8 300.8Z" fill="#EBEBEB"/>
<path d="M121.699 289.7L53.3994 301.4C53.5994 300.1 53.7994 298.8 54.0994 297.4L120.999 285.9C121.199 287.2 121.499 288.5 121.699 289.7Z" fill="#EBEBEB"/>
<path d="M98.1999 240.1C94.0999 240.1 88.8999 232.6 87.3999 227.1C87.2999 226.7 88.5999 223.4 90.0999 219.2C90.9999 216.7 91.8999 213.9 92.4999 211.2L108 219.2C108 219.2 105 224.3 104 228.9C103.9 229.3 103.9 229.7 103.9 230C103.9 230.1 103.9 230.1 103.9 230.2C103.6 232.5 102.1 240.1 98.1999 240.1Z" fill="#AD6359"/>
<path d="M108 219.3C108 219.3 105 224.4 104 229C103.9 229.4 103.9 229.7 103.9 230.1C103.9 230.2 103.9 230.2 103.9 230.3C103.4 230.3 102.8 230.2 102.2 230C92.5995 227.5 92.7995 214.9 92.9995 211.5L108 219.3Z" fill="#263238"/>
<path d="M91.7999 193.2C89.2999 199 90.5999 216.6 94.3999 220.9C99.9999 227.2 110 228.8 115.6 221.9C121 215.2 119 192.3 114.6 188.2C108.1 182.4 95.4999 184.7 91.7999 193.2Z" fill="#AD6359"/>
<path d="M107.9 205.9L107.8 206C107.9 207.2 107.9 208.5 106.9 209V209.1C108.2 208.8 108.2 207 107.9 205.9Z" fill="#263238"/>
<path d="M106.7 204.8C104.8 204.8 105 208.6 106.8 208.6C108.5 208.6 108.3 204.8 106.7 204.8Z" fill="#263238"/>
<path d="M114.8 205.5C114.9 206.8 115.1 208.1 116.2 208.5V208.6C115 208.5 114.7 206.7 114.8 205.5Z" fill="#263238"/>
<path d="M115.8 204.3C117.7 204.1 118 207.9 116.3 208.1C114.6 208.3 114.2 204.5 115.8 204.3Z" fill="#263238"/>
<path d="M105.1 203.1C105.6 202.9 106.1 202.7 106.5 202.5C107.1 202.3 107.5 202.1 107.9 201.6C108.1 201.3 108 200.8 107.7 200.6C107.1 200.1 106.4 200.2 105.7 200.5C105 200.8 104.5 201.2 104.1 201.9C103.7 202.6 104.5 203.3 105.1 203.1Z" fill="#263238"/>
<path d="M117.2 202.3C116.7 202.2 116.2 202.1 115.7 202C115.1 201.9 114.6 201.8 114.2 201.4C114 201.2 114 200.7 114.2 200.4C114.7 199.8 115.5 199.8 116.2 199.9C117 200 117.5 200.3 118.1 200.9C118.5 201.5 117.9 202.3 117.2 202.3Z" fill="#263238"/>
<path d="M107.2 216.4C107.4 216.7 107.7 217.1 108.1 217.2C108.5 217.3 109 217.2 109.4 217.1C109.4 217.1 109.5 217.1 109.4 217.2C109 217.6 108.4 217.8 107.8 217.6C107.3 217.4 107.1 216.9 107 216.4C107.1 216.4 107.2 216.4 107.2 216.4Z" fill="#263238"/>
<path d="M108.5 212.9C109.2 213.9 110.2 214.4 111.3 214.5C111.8 214.6 112.3 214.6 112.8 214.5C112.9 214.5 113.2 214.4 113.3 214.4C113.4 214.4 113.5 214.3 113.5 214.1L113.3 211.6C113.6 211.7 115.4 212.4 115.3 211.9C114.9 208 114.4 203.6 113.1 199.8C113.1 199.7 112.9 199.7 112.9 199.8C113.2 203.6 114.1 207.3 114.5 211.1C113.9 210.9 113 210.6 112.6 210.6C112.5 210.6 112.9 213.7 112.9 213.7C111.4 214 110.2 213.6 108.7 212.6C108.5 212.8 108.4 212.9 108.5 212.9Z" fill="#263238"/>
<path d="M112.399 214.4C112.399 214.4 111.599 215.5 110.399 216C109.999 216.2 109.499 216.2 108.999 216.1C107.999 215.8 107.999 214.9 108.199 214.2C108.299 213.6 108.599 213 108.599 213C108.599 213 109.999 214.3 112.399 214.4Z" fill="#263238"/>
<path d="M110.3 216C109.9 216.2 109.4 216.2 108.9 216.1C107.9 215.8 107.9 214.9 108.1 214.2C109.2 214.2 110.3 214.9 110.3 216Z" fill="#FF9CBD"/>
<path d="M90.2 209.2C94.8 209.6 97.2 204.1 96.2 199.7C96.2 199.7 108.4 201.4 109.1 191.6C109.1 191.6 112 196.1 117.6 196.2L118.4 199.6C119.7 199.2 121 195.7 118 192.9C118 192.9 117.8 188 114.2 185C110.6 182 107 183.9 107 183.9C107 183.9 104.1 181.5 99.6 182C95.1 182.5 93.2 186.6 93.2 186.6C93.2 186.6 87.1 187.7 86.1 192C85 196.3 87.2 199.2 87.2 199.2C87.2 199.2 85.7 200.9 86.4 204.6C86.9 207.1 88.8 209.1 90.2 209.2Z" fill="#263238"/>
<path d="M108.8 190.7C108.9 191.5 108.9 192.3 108.8 193.1C108.7 193.9 108.6 194.7 108.3 195.4C107.8 196.9 106.8 198.2 105.4 198.9C104.1 199.7 102.4 199.9 100.9 200C100.1 200 99.2996 200 98.4996 199.9C97.6996 199.8 96.8996 199.7 96.0996 199.6C96.8996 199.8 97.6996 200 98.4996 200.1C99.2996 200.2 100.1 200.3 100.9 200.3C102.5 200.2 104.2 200.1 105.7 199.3C107.2 198.5 108.3 197 108.7 195.4C109.2 193.9 109.2 192.2 108.8 190.7Z" fill="#263238"/>
<path d="M115 196.4C113.6 195.9 112.4 195.3 111.3 194.4C110.8 194 110.3 193.5 109.9 192.9C109.5 192.3 109.2 191.7 108.9 191C109 191.7 109.2 192.5 109.5 193.1C109.9 193.8 110.3 194.3 110.9 194.8C111.5 195.3 112.1 195.7 112.8 195.9C113.6 196.2 114.3 196.4 115 196.4Z" fill="#263238"/>
<path d="M105.6 211.9C103.3 211.8 101.3 210.1 100.8 207.8C100.2 205 102 202.3 104.8 201.7C107.6 201.1 110.3 202.9 110.9 205.7C111.5 208.5 109.7 211.2 106.9 211.8C106.4 211.9 106 211.9 105.6 211.9ZM106 202.3C105.6 202.3 105.3 202.3 104.9 202.4C102.5 202.9 100.9 205.2 101.4 207.7C101.9 210.1 104.2 211.7 106.7 211.2C109.1 210.7 110.7 208.4 110.2 205.9C109.8 203.8 108 202.4 106 202.3Z" fill="#326039"/>
<path d="M117.3 211C115.3 210.9 113.6 208.8 113.5 206.1C113.4 204.7 113.7 203.4 114.3 202.4C115 201.4 115.9 200.7 116.9 200.7C117.9 200.6 119 201.1 119.7 202.1C120.5 203 120.9 204.3 121 205.6C121.2 208.4 119.6 210.8 117.5 211C117.6 211 117.5 211 117.3 211ZM117.3 201.4C117.2 201.4 117.1 201.4 117 201.4C116.2 201.5 115.4 202 114.9 202.8C114.3 203.7 114.1 204.8 114.2 206C114.4 208.5 115.9 210.4 117.6 210.2C119.3 210.1 120.6 208 120.4 205.5C120.3 204.3 119.9 203.2 119.2 202.4C118.7 201.9 118 201.5 117.3 201.4Z" fill="#326039"/>
<path d="M110.7 206.3L110.2 205.8C110.9 205.1 112.7 204.1 114 205.3L113.5 205.8C112.4 204.7 110.8 206.3 110.7 206.3Z" fill="#326039"/>
<path d="M89.0004 209.3L88.4004 209C88.5004 208.7 89.7004 206.1 91.2004 205.8C92.6004 205.5 100.8 205.6 101.2 205.6V206.3C98.5004 206.2 92.4004 206.2 91.3004 206.5C90.3004 206.7 89.3004 208.6 89.0004 209.3Z" fill="#326039"/>
<path d="M94.5001 208.8C94.5001 208.8 91.1001 202.8 88.4001 204C85.7001 205.2 87.9001 213.6 90.8001 214.9C93.7001 216.3 95.0001 213.6 95.0001 213.6L94.5001 208.8Z" fill="#AD6359"/>
<path d="M89.1006 206.4C91.1006 207.5 92.0006 209.6 92.6006 211.6C92.0006 210.8 91.2006 210.3 90.1006 210.9C90.0006 210.9 90.1006 211 90.1006 211C91.0006 210.9 91.6006 211.1 92.1006 211.8C92.5006 212.3 92.7006 213 92.9006 213.6C93.0006 213.8 93.3006 213.7 93.3006 213.5C93.3006 213.5 93.3006 213.5 93.3006 213.4C93.7006 210.9 92.0006 207 89.1006 206.4Z" fill="#263238"/>
<path d="M104 232.2C103.8 235.5 103.2 243.2 97.7997 242.2C95.5997 241.8 93.7997 240.3 92.2997 238.8C90.6997 237.3 87.3997 233.1 85.0997 228.5C85.0997 228.4 84.8997 228.5 84.9997 228.6C85.3997 229.9 86.2997 232.1 87.5997 234.2C88.7997 236.2 90.2997 238.1 91.9997 239.7C93.5997 241.2 95.5997 242.7 97.8997 243.1C100.1 243.4 101.8 242.3 102.7 240.4C103.9 237.9 104.2 234.9 104 232.2Z" fill="#263238"/>
<path d="M75.5989 233.6C64.1989 243.6 34.7989 283.1 41.9989 291.6C49.2989 300.1 94.4989 294.2 107.499 289.5C111.399 288.1 99.5989 263.7 95.3989 262.7C91.7989 261.9 72.4989 268.5 72.0989 267.4C71.5989 266.1 75.3989 257.6 81.4989 241.9C88.4989 223.9 80.6989 229.2 75.5989 233.6Z" fill="#AD6359"/>
<path d="M114.499 257.1C123.599 256.8 125.999 258.1 133.499 253.7C138.399 250.8 142.399 252.7 139.199 257.8C133.999 266 122.399 269 117.999 268.8L114.499 257.1Z" fill="#AD6359"/>
<path d="M89.7988 263.3C89.7988 263.3 100.499 258.7 110.099 257.4C116.799 256.5 131.599 256.1 144.099 271.9C147.099 275.6 148.599 283.1 141.599 278.7C136.599 275.6 134.299 272.1 131.099 270.9C131.099 270.9 131.999 280.6 128.099 283.4C126.399 284.7 121.599 288 117.499 290.1C117.499 290.1 116.799 289.3 116.099 288.2C116.099 288.2 112.199 290.5 105.499 289.2L89.7988 263.3Z" fill="#AD6359"/>
<path d="M116.599 257.5C119.599 259.4 125.799 263.7 129.599 268.9C133.899 274.7 140.599 287 136.299 290.1C133.099 292.4 130.199 287.9 130.199 287.9C130.199 287.9 131.899 293.6 128.599 295C125.599 296.3 123.499 292.7 123.499 292.7C123.499 292.7 123.899 296.3 120.799 297C116.999 297.9 116.699 290.1 112.099 287.7C111.099 287.3 116.599 257.5 116.599 257.5Z" fill="#AD6359"/>
<path d="M122.799 272.4C125.299 274.7 129.599 281.3 130.299 287.8C130.299 287.9 130.199 288 130.199 287.9C127.899 281 124.399 275 122.799 272.4Z" fill="#263238"/>
<path d="M117.099 277C118.999 279.2 123.199 286.2 123.699 292.8C123.699 292.9 123.599 293 123.599 292.9C121.399 285.5 118.499 279.6 117.099 277C116.999 277 116.999 276.9 117.099 277Z" fill="#263238"/>
<path d="M130.999 270.8C133.799 272 135.599 273.6 137.899 275.5C138.999 276.5 140.199 277.4 141.399 278.3C142.499 279.1 144.199 280.2 145.599 279.3C146.399 278.8 146.499 277.8 146.399 277C146.299 276.1 145.599 274.3 145.099 273.5C145.099 273.5 145.099 273.4 145.199 273.5C145.599 274.2 146.499 275.8 146.699 276.6C146.899 277.3 146.999 278.2 146.699 278.9C146.099 280.5 144.199 280.5 142.899 279.9C142.099 279.6 141.399 279 140.699 278.6C139.999 278.1 139.399 277.6 138.799 277.1C137.499 276 136.299 274.9 134.999 273.8C133.499 272.6 132.499 272 130.999 270.8Z" fill="#263238"/>
<path d="M136.099 281.7C135.499 280 132.099 272.6 130.899 270.8C130.899 270.8 130.899 270.7 130.999 270.7C133.099 273.1 136.199 279.2 136.799 281.1C137.499 283 138.199 285.4 137.999 287.5C137.699 290.6 135.599 290.9 134.799 291C133.899 291.1 132.999 290.8 132.199 290.3C131.399 289.7 130.599 288.7 130.099 287.8C130.099 287.8 130.099 287.7 130.199 287.7C131.099 289 132.799 290.4 134.499 290.3C135.199 290.3 135.999 290 136.499 289.5C137.099 288.8 137.199 287.9 137.199 287.1C137.299 285.4 136.699 283.5 136.099 281.7Z" fill="#263238"/>
<path d="M89.7992 263.3L100.999 294.5C100.999 294.5 44.3992 301.4 40.5992 291.3C36.7992 281.2 62.0992 245.6 72.8992 235.6C85.3992 224 86.3992 228.5 82.7992 239.5C78.9992 251.1 72.2992 267.6 72.2992 267.6L89.7992 263.3Z" fill="#326039"/>
<path d="M54.5991 273.9C57.2991 272.4 60.1991 271.1 63.1991 270C66.0991 268.9 69.0991 268.1 72.0991 267.4C73.7991 267 75.5991 266.7 77.2991 266.4C77.3991 266.4 77.3991 266.5 77.2991 266.5C74.1991 267.1 71.1991 268 68.2991 269C65.3991 270 62.3991 271 59.4991 272.1C57.8991 272.7 56.1991 273.4 54.5991 274.1C54.5991 274 54.4991 273.9 54.5991 273.9Z" fill="#263238"/>
<path d="M89.5994 263.2C89.2994 263.2 73.6994 266.7 73.0994 266.9C73.1994 266.7 76.6994 258.9 77.1994 257.8C77.2994 257.7 77.2994 257.6 77.3994 257.5C77.6994 257 78.0994 256.5 78.3994 256C78.7994 255.3 79.1994 254.7 79.5994 254C79.1994 254.6 78.7994 255.3 78.2994 255.9C78.0994 256.2 77.8994 256.5 77.6994 256.8C78.0994 256 78.3994 255.2 78.6994 254.4C79.1994 253.1 79.6994 251.8 80.1994 250.5C80.1994 250.5 80.1994 250.4 80.0994 250.5C79.0994 252.8 77.9994 255 76.8994 257.3C75.8994 259.6 71.8994 267.9 71.8994 267.9C71.8994 267.9 89.1994 263.7 89.4994 263.6C89.7994 263.4 89.7994 263.2 89.5994 263.2Z" fill="#263238"/>
<path d="M88.6997 282.8C87.4997 279.3 86.2997 275.8 84.8997 272.4C84.0997 270.4 83.3997 268.5 82.5997 266.5C82.5997 266.4 82.3997 266.5 82.4997 266.5C83.5997 270 84.6997 273.6 85.8997 277.1C87.0997 280.6 88.3997 284.1 89.6997 287.5C90.3997 289.5 91.1997 291.4 92.0997 293.3H92.1997C91.1997 289.8 89.9997 286.3 88.6997 282.8Z" fill="#263238"/>
<path d="M101.6 295.1C101.1 294.1 100.6 292.7 100.1 291.8C99.9996 291.5 99.7996 291.6 99.8996 291.8C100.2 292.7 100.5 293.6 100.8 294.5C99.9996 294.6 99.1996 294.6 98.3996 294.7C97.4996 294.8 96.5996 294.9 95.6996 295C93.8996 295.2 92.0996 295.4 90.2996 295.5C86.6996 295.8 82.9996 296 79.3996 296.2C72.0996 296.5 64.6996 296.5 57.3996 296.1C55.3996 296 53.2996 295.8 51.2996 295.6C49.1996 295.4 46.9996 295.1 45.2996 294.7C45.1996 294.7 45.1996 294.8 45.2996 294.8C46.9996 295.3 48.6996 295.7 50.4996 296C52.2996 296.3 54.1996 296.5 55.9996 296.7C59.6996 297 63.3996 297.2 67.0996 297.2C74.3996 297.3 81.7996 297 89.0996 296.5C91.0996 296.3 93.1996 296.2 95.1996 296C96.1996 295.9 97.2996 295.8 98.2996 295.7C99.1996 295.4 101.7 295.2 101.6 295.1Z" fill="#263238"/>
<path d="M174.599 294.4H103.299V297.6H174.599V294.4Z" fill="#C7C7C7"/>
<path d="M174.599 294.4V297.6H126.099L128.599 294.4H174.599Z" fill="#A6A6A6"/>
<path d="M135.898 297.6H198.298L207.298 253.6H144.898L135.898 297.6Z" fill="#A6A6A6"/>
<path d="M138.799 297.6H201.199L210.199 253.6H147.899L138.799 297.6Z" fill="#C7C7C7"/>
<path d="M180.198 273.9C180.298 276 178.898 278 177.098 278.3C175.298 278.7 173.798 277.3 173.798 275.2C173.698 273.1 175.098 271.1 176.898 270.8C178.598 270.5 180.098 271.8 180.198 273.9Z" fill="white"/>
<path d="M319.899 388.9C318.999 391.3 274.199 445.6 271.199 446.6C270.099 447 261.799 440.9 251.999 433.3C249.899 431.7 247.699 429.9 245.499 428.2C231.199 416.9 216.299 404.5 216.299 404.5L246.099 368.1L274.499 392.8L280.699 398.2C280.699 398.2 307.099 385.1 310.599 384.4C313.899 383.7 320.799 386.5 319.899 388.9Z" fill="#AD6359"/>
<path d="M319.899 388.9C318.999 391.3 274.199 445.6 271.199 446.6C269.799 447.1 257.899 438 245.499 428.2L274.499 392.8L280.699 398.2C280.699 398.2 307.099 385.1 310.599 384.4C313.899 383.7 320.799 386.5 319.899 388.9Z" fill="#EBEBEB"/>
<path d="M319.899 388.9C318.999 391.3 274.199 445.6 271.199 446.6C270.099 447 261.799 440.9 251.999 433.3L280.799 398.2C280.799 398.2 307.199 385.1 310.699 384.4C313.899 383.7 320.799 386.5 319.899 388.9Z" fill="#326039"/>
<path d="M316.999 387.9C309.299 396.8 278.899 433.5 271.999 442.9C271.899 443 271.999 443 272.099 442.9C279.999 434.2 309.999 397.3 317.199 388C317.299 387.9 317.199 387.7 316.999 387.9Z" fill="#263238"/>
<path d="M305.7 386.3C303.8 388.4 303.1 391.3 303.4 393.6C303.7 395.7 304.6 398.1 306.6 399.6C306.7 399.6 306.7 399.5 306.7 399.5C303.6 396 303.1 390.2 305.8 386.4C305.9 386.3 305.8 386.2 305.7 386.3Z" fill="#263238"/>
<path d="M284.499 395.5C281.399 399.1 279.199 404.4 280.399 409.1C280.399 409.3 280.699 409.2 280.699 409.1C281.699 404.4 282.999 400.2 284.999 395.8C285.099 395.5 284.699 395.2 284.499 395.5Z" fill="#263238"/>
<path d="M287.9 393.6C284.8 397.2 282.6 402.5 283.8 407.2C283.8 407.4 284.1 407.3 284.1 407.2C285.1 402.5 286.4 398.3 288.4 393.9C288.5 393.6 288.1 393.3 287.9 393.6Z" fill="#263238"/>
<path d="M291.299 391.7C288.199 395.3 285.999 400.6 287.199 405.3C287.199 405.5 287.499 405.4 287.499 405.3C288.499 400.6 289.799 396.4 291.799 392C291.999 391.7 291.499 391.4 291.299 391.7Z" fill="#263238"/>
<path d="M294.7 389.8C291.6 393.4 289.4 398.7 290.6 403.4C290.6 403.6 290.9 403.5 290.9 403.4C291.9 398.7 293.2 394.5 295.2 390.1C295.4 389.8 295 389.5 294.7 389.8Z" fill="#263238"/>
<path d="M265.299 433.5C261.899 437.6 268.299 442.8 271.699 438.7C274.999 434.6 268.699 429.4 265.299 433.5Z" fill="white"/>
<path d="M278 383.5C275 384.1 274.5 387.6 275.2 390.1C276.3 394.1 278.8 398.3 281.8 401.1C281.9 401.2 282 401.1 282 401.1C282.3 401.2 282.8 401.1 282.8 400.7C283.1 396.6 284 392.3 283.1 388.3C282.6 385.9 280.9 383 278 383.5ZM282.1 394.4C282 396.4 281.8 398.4 281.7 400.4C280.4 398.3 279.1 396.2 278 393.9C277.5 392.8 277 391.7 276.6 390.5C276 388.7 276 382.6 280.2 385.5C282.6 387.2 282.2 392 282.1 394.4Z" fill="#263238"/>
<path d="M275.699 411.3C278.799 408.5 280.599 404.5 282.699 401C282.899 400.6 282.599 400.3 282.299 400.2C282.299 400.1 282.299 400 282.199 400.1C278.199 400.6 273.599 402.6 270.499 405.2C268.499 406.8 266.799 410 268.999 412.2C270.799 414.3 273.899 412.9 275.699 411.3ZM271.799 411.8C266.599 411.7 270.299 406.8 271.699 405.7C272.699 405 273.699 404.3 274.799 403.8C276.999 402.6 279.299 401.7 281.599 400.7C280.499 402.4 279.499 404.1 278.399 405.8C277.099 407.7 274.599 411.8 271.799 411.8Z" fill="#263238"/>
<path d="M272.999 387.3L239.799 426.7L139.599 355.3L129.699 348.3C129.699 348.3 126.899 350.2 122.599 352.5C116.699 355.7 107.999 359.7 100.299 360.7C87.4988 362.4 68.0988 362 57.4988 347.4C48.5988 335.1 51.5988 319.3 51.5988 319.3L65.6988 313.4C65.6988 313.4 99.2988 286.1 120.899 285.5C130.099 285.2 143.299 292.4 155.599 299.8C167.899 307.2 272.999 387.3 272.999 387.3Z" fill="#263238"/>
<path d="M129.599 348.3C129.599 348.3 126.799 350.2 122.499 352.5C115.099 343.4 99.399 326.9 98.999 326.3L129.599 348.3Z" fill="#37474F"/>
<path d="M77.9991 304.3C75.9991 305.7 73.9991 307.1 72.0991 308.5C70.1991 309.9 68.0991 311.2 66.2991 312.7C64.3991 314.2 62.5991 315.9 60.7991 317.5C59.8991 318.3 59.0991 319.1 58.2991 319.9C57.4991 320.7 56.5991 321.5 55.8991 322.5C55.7991 322.6 55.9991 322.7 55.9991 322.6C56.9991 322 57.7991 321.2 58.6991 320.5C59.5991 319.7 60.5991 318.9 61.4991 318.2C63.2991 316.7 65.1991 315.2 66.9991 313.7C68.7991 312.2 70.4991 310.6 72.1991 309.1C74.0991 307.4 76.0991 305.9 77.9991 304.3C78.0991 304.3 78.0991 304.3 77.9991 304.3Z" fill="#37474F"/>
<path d="M262.699 383.5C260.699 385.6 258.799 387.9 256.899 390.1C254.999 392.3 253.099 394.6 251.299 396.9C247.599 401.4 243.799 406 240.199 410.5C238.199 413 236.199 415.6 234.299 418.2C234.199 418.3 234.399 418.5 234.499 418.3C238.499 414 242.199 409.4 245.899 404.9C249.599 400.4 253.299 395.8 256.999 391.2C258.999 388.7 261.099 386.2 262.899 383.5C262.999 383.5 262.799 383.4 262.699 383.5Z" fill="#37474F"/>
<path d="M187.399 389.3C182.299 385.2 170.699 377.1 165.499 373.3C160.199 369.5 154.999 365.6 149.699 361.9C148.199 360.8 146.599 359.8 145.099 358.7C143.599 357.6 141.999 356.7 140.399 355.6C140.299 355.5 140.199 355.7 140.299 355.7C141.699 356.7 142.999 357.9 144.399 358.9C145.699 359.9 146.999 360.9 148.299 361.9C150.899 363.8 153.399 365.7 155.999 367.7C161.199 371.6 166.499 375.4 171.799 379.2C174.799 381.3 184.099 387.6 187.199 389.6C187.299 389.7 187.599 389.4 187.399 389.3Z" fill="#37474F"/>
<path d="M220.299 347C215.599 343 204.899 335.3 199.899 331.6C194.899 327.9 189.999 324.1 184.899 320.4C179.899 316.7 174.999 313 169.999 309.3C165.199 305.7 160.399 302.1 155.299 298.9C152.499 297.2 149.699 295.6 146.699 294.1C143.799 292.7 140.899 291.2 137.799 290.3C137.699 290.3 137.699 290.4 137.699 290.5C140.199 291.9 142.899 293.2 145.399 294.6C147.899 296 150.399 297.4 152.799 298.9C157.899 302.1 162.599 305.6 167.399 309.2C177.299 316.5 187.299 323.9 197.299 331.1C202.899 335.2 214.099 343.5 219.899 347.2C220.199 347.5 220.499 347.2 220.299 347Z" fill="#37474F"/>
</svg>
