<svg width="32" height="12" viewBox="0 0 32 12" fill="none" xmlns="http://www.w3.org/2000/svg">
<path fill-rule="evenodd" clip-rule="evenodd" d="M8.22836 10.9889H5.50223L3.45797 2.96049C3.36094 2.59119 3.15492 2.2647 2.85187 2.11082C2.09557 1.72412 1.26218 1.41637 0.353027 1.26115V0.952062H4.7446C5.35071 0.952062 5.80528 1.41637 5.88105 1.95561L6.94172 7.74673L9.66652 0.952062H12.3169L8.22836 10.9889ZM13.8322 10.9889H11.2576L13.3776 0.952062H15.9522L13.8322 10.9889ZM19.2832 3.73268C19.3589 3.1921 19.8135 2.88301 20.3438 2.88301C21.1772 2.8054 22.085 2.96062 22.8427 3.34598L23.2972 1.18501C22.5396 0.875918 21.7062 0.720703 20.9499 0.720703C18.4511 0.720703 16.6328 2.11095 16.6328 4.04043C16.6328 5.50828 17.9208 6.27901 18.8299 6.74331C19.8135 7.20628 20.1923 7.51537 20.1165 7.97834C20.1165 8.6728 19.3589 8.98189 18.6026 8.98189C17.6935 8.98189 16.7843 8.7504 15.9523 8.3637L15.4977 10.526C16.4068 10.9114 17.3904 11.0666 18.2996 11.0666C21.1015 11.1429 22.8427 9.75395 22.8427 7.66925C22.8427 5.04398 19.2832 4.8901 19.2832 3.73268V3.73268ZM31.853 10.9889L29.8087 0.952062H27.6129C27.1583 0.952062 26.7038 1.26115 26.5522 1.72412L22.7668 10.9889H25.4171L25.9461 9.52234H29.2026L29.5056 10.9889H31.853ZM27.9918 3.65502L28.7481 7.43772H26.6281L27.9918 3.65502Z" fill="white"/>
</svg>
