<svg width="124" height="30" viewBox="0 0 124 30" fill="none" xmlns="http://www.w3.org/2000/svg">
<g clip-path="url(#clip0_1153_31848)">
<mask id="mask0_1153_31848" style="mask-type:luminance" maskUnits="userSpaceOnUse" x="0" y="0" width="124" height="30">
<path d="M123.038 0H0V30H123.038V0Z" fill="white"/>
</mask>
<g mask="url(#mask0_1153_31848)">
<path d="M12.37 23.8258H2.281C1.6762 23.8253 1.09633 23.5848 0.668674 23.1571C0.241019 22.7295 0.000529594 22.1496 0 21.5448L0 7.51879C0.000529594 6.91399 0.241019 6.33412 0.668674 5.90646C1.09633 5.47881 1.6762 5.23832 2.281 5.23779H12.37C13.9606 5.24017 15.4853 5.87308 16.61 6.99778C17.7347 8.12248 18.3676 9.64722 18.37 11.2378V17.8208C18.3676 19.4114 17.7347 20.9361 16.61 22.0608C15.4853 23.1855 13.9606 23.8184 12.37 23.8208M3.228 20.5968H12.37C13.1057 20.596 13.8111 20.3034 14.3313 19.7831C14.8516 19.2629 15.1442 18.5575 15.145 17.8218V11.2408C15.1442 10.5051 14.8516 9.79969 14.3313 9.27945C13.8111 8.7592 13.1057 8.46658 12.37 8.46579H3.228V20.5968Z" fill="white"/>
<path d="M34.3785 23.8251H24.9555C24.1114 23.8241 23.3021 23.4883 22.7052 22.8914C22.1083 22.2945 21.7725 21.4853 21.7715 20.6411V12.5951C21.7725 11.751 22.1083 10.9418 22.7052 10.3449C23.3021 9.74799 24.1114 9.41219 24.9555 9.41113H34.3785C35.2226 9.41219 36.0319 9.74799 36.6287 10.3449C37.2256 10.9418 37.5614 11.751 37.5625 12.5951V20.6411C37.5614 21.4853 37.2256 22.2945 36.6287 22.8914C36.0319 23.4883 35.2226 23.8241 34.3785 23.8251ZM24.9995 20.5971H34.3355V12.6391H24.9995V20.5971Z" fill="white"/>
<path d="M91.6125 23.8261H80.6186C79.7745 23.8251 78.9652 23.4893 78.3683 22.8924C77.7715 22.2955 77.4356 21.4863 77.4346 20.6421V12.5951C77.4356 11.751 77.7715 10.9418 78.3683 10.3449C78.9652 9.74799 79.7745 9.41219 80.6186 9.41113H91.6116V12.6391H80.6616V20.5981H91.6116L91.6125 23.8261Z" fill="white"/>
<path d="M105.608 23.8262H97.6274C96.7833 23.8251 95.974 23.4893 95.3771 22.8924C94.7802 22.2955 94.4444 21.4863 94.4434 20.6422V9.34717H97.6714V20.5982H105.608V23.8262Z" fill="white"/>
<path d="M106.984 30.0002H99.3682V26.7722H106.94V9.34717H110.168V26.8152C110.167 27.6593 109.831 28.4685 109.234 29.0654C108.638 29.6623 107.828 29.9991 106.984 30.0002Z" fill="white"/>
<path d="M43.7474 28.1491H40.5234V12.5951C40.5245 11.751 40.8603 10.9418 41.4572 10.3449C42.0541 9.74799 42.8633 9.41219 43.7074 9.41113H53.1234C53.9676 9.41219 54.7768 9.74799 55.3737 10.3449C55.9706 10.9418 56.3064 11.751 56.3074 12.5951V20.6411C56.3064 21.4853 55.9706 22.2945 55.3737 22.8914C54.7768 23.4883 53.9676 23.8241 53.1234 23.8251H45.6694V20.5981H53.0804V12.6391H43.7444L43.7474 28.1491Z" fill="white"/>
<path d="M70.7506 23.8261H62.7426C61.8985 23.8251 61.0892 23.4893 60.4923 22.8924C59.8955 22.2955 59.5597 21.4863 59.5586 20.6421V12.5951C59.5597 11.751 59.8955 10.9418 60.4923 10.3449C61.0892 9.74799 61.8985 9.41219 62.7426 9.41113H72.1656C73.0097 9.41219 73.8189 9.74799 74.4158 10.3449C75.0127 10.9418 75.3485 11.751 75.3496 12.5951V15.7571C75.3485 16.6013 75.0127 17.4105 74.4158 18.0074C73.8189 18.6043 73.0097 18.9401 72.1656 18.9411H64.7116V15.7141H72.1246V12.6391H62.7886V20.5981H70.7536L70.7506 23.8261Z" fill="white"/>
<path d="M106.328 0H113.75V1.259H110.669V7.4H109.41V1.259H106.329L106.328 0Z" fill="white"/>
<path d="M123.038 0.00976562V7.39577H121.779V2.50477L119.649 6.14877L118.925 7.39577L118.197 6.14977L116.073 2.51477V7.39577H114.814V0.00976562H116.068L116.073 0.0187656L118.925 4.90077L121.779 0.00976562H123.038Z" fill="white"/>
</g>
</g>
<defs>
<clipPath id="clip0_1153_31848">
<rect width="123.038" height="30" fill="white"/>
</clipPath>
</defs>
</svg>
