<svg width="124" height="30" viewBox="0 0 124 30" fill="none" xmlns="http://www.w3.org/2000/svg">
<path d="M12.37 23.826H2.281C1.6762 23.8255 1.09633 23.585 0.668674 23.1574C0.241019 22.7297 0.000529594 22.1498 0 21.545L0 7.51904C0.000529594 6.91424 0.241019 6.33436 0.668674 5.90671C1.09633 5.47905 1.6762 5.23857 2.281 5.23804H12.37C13.9606 5.24042 15.4853 5.87332 16.61 6.99802C17.7347 8.12273 18.3676 9.64747 18.37 11.238V17.821C18.3676 19.4116 17.7347 20.9363 16.61 22.061C15.4853 23.1857 13.9606 23.8187 12.37 23.821M3.228 20.597H12.37C13.1057 20.5962 13.8111 20.3036 14.3313 19.7834C14.8516 19.2631 15.1442 18.5578 15.145 17.822V11.241C15.1442 10.5053 14.8516 9.79993 14.3313 9.27969C13.8111 8.75945 13.1057 8.46683 12.37 8.46603H3.228V20.597Z" fill="white"/>
<path d="M34.378 23.8249H24.955C24.1109 23.8238 23.3016 23.488 22.7047 22.8912C22.1078 22.2943 21.7721 21.485 21.771 20.6409V12.5949C21.7721 11.7508 22.1078 10.9415 22.7047 10.3446C23.3016 9.74775 24.1109 9.41195 24.955 9.41089H34.378C35.2221 9.41195 36.0314 9.74775 36.6283 10.3446C37.2251 10.9415 37.5609 11.7508 37.562 12.5949V20.6409C37.5609 21.485 37.2251 22.2943 36.6283 22.8912C36.0314 23.488 35.2221 23.8238 34.378 23.8249ZM24.999 20.5969H34.335V12.6389H24.999V20.5969Z" fill="white"/>
<path d="M91.613 23.8259H80.6191C79.775 23.8248 78.9657 23.489 78.3688 22.8922C77.7719 22.2953 77.4361 21.486 77.4351 20.6419V12.5949C77.4361 11.7508 77.7719 10.9415 78.3688 10.3446C78.9657 9.74775 79.775 9.41195 80.6191 9.41089H91.6121V12.6389H80.662V20.5979H91.6121L91.613 23.8259Z" fill="white"/>
<path d="M105.608 23.8259H97.6269C96.7828 23.8249 95.9735 23.4891 95.3766 22.8922C94.7798 22.2953 94.4439 21.486 94.4429 20.6419V9.34692H97.6709V20.5979H105.608V23.8259Z" fill="white"/>
<path d="M106.984 29.9999H99.3679V26.7719H106.94V9.34692H110.168V26.8149C110.167 27.659 109.831 28.4683 109.234 29.0652C108.637 29.6621 107.828 29.9989 106.984 29.9999Z" fill="white"/>
<path d="M43.7469 28.1489H40.5229V12.5949C40.524 11.7508 40.8598 10.9415 41.4567 10.3446C42.0536 9.74775 42.8628 9.41195 43.7069 9.41089H53.123C53.9671 9.41195 54.7763 9.74775 55.3732 10.3446C55.9701 10.9415 56.3059 11.7508 56.3069 12.5949V20.6409C56.3059 21.485 55.9701 22.2943 55.3732 22.8912C54.7763 23.488 53.9671 23.8238 53.123 23.8249H45.6689V20.5979H53.08V12.6389H43.744L43.7469 28.1489Z" fill="white"/>
<path d="M70.7511 23.8259H62.7431C61.8989 23.8248 61.0897 23.489 60.4928 22.8922C59.8959 22.2953 59.5601 21.486 59.5591 20.6419V12.5949C59.5601 11.7508 59.8959 10.9415 60.4928 10.3446C61.0897 9.74775 61.8989 9.41195 62.7431 9.41089H72.1661C73.0102 9.41195 73.8194 9.74775 74.4163 10.3446C75.0132 10.9415 75.349 11.7508 75.3501 12.5949V15.7569C75.349 16.601 75.0132 17.4103 74.4163 18.0071C73.8194 18.604 73.0102 18.9398 72.1661 18.9409H64.7121V15.7139H72.1251V12.6389H62.7891V20.5979H70.7541L70.7511 23.8259Z" fill="white"/>
<path d="M106.328 0H113.75V1.259H110.669V7.4H109.41V1.259H106.329L106.328 0Z" fill="#326039"/>
<path d="M123.038 0.0100098V7.39601H121.779V2.50501L119.649 6.14901L118.925 7.39601L118.197 6.15001L116.073 2.51501V7.39601H114.814V0.0100098H116.068L116.073 0.0190098L118.925 4.90101L121.779 0.0100098H123.038Z" fill="#326039"/>
</svg>
